<?xml version="1.0" standalone="no"?>
<!DOCTYPE svg PUBLIC "-//W3C//DTD SVG 1.1//EN" "http://www.w3.org/Graphics/SVG/1.1/DTD/svg11.dtd" >
<svg xmlns="http://www.w3.org/2000/svg" xmlns:xlink="http://www.w3.org/1999/xlink" version="1.1">
<metadata></metadata>
<defs>
<font id="genathregular_italic" horiz-adv-x="937" >
<font-face units-per-em="2048" ascent="1585" descent="-463" />
<missing-glyph horiz-adv-x="442" />
<glyph unicode="&#xfb00;" horiz-adv-x="980" d="M1378 1257q0 -43 -23.5 -64.5t-56.5 -21.5q-25 0 -43 13l-112 166q-29 0 -47.5 -11.5t-34.5 -27.5q-37 -39 -70 -103.5t-57.5 -133t-40.5 -128t-23 -88.5l-6 -29h183l-17 -57h-180l-199 -807q-57 -233 -168 -340q-43 -43 -98 -67.5t-117 -24.5q-68 0 -107.5 32t-39.5 85 q0 41 23.5 59.5t45.5 18.5q10 0 18.5 -1t18.5 -8l72 -147h8q35 0 70 35q33 33 58.5 87t45 112.5t30.5 109.5t17 76l177 780h-287l-199 -807q-57 -233 -168 -340q-43 -43 -98 -67.5t-123 -24.5q-78 0 -123 35t-45 94q0 47 25.5 68.5t52.5 21.5q23 0 41 -12l84 -164h8 q41 0 72 31q33 33 58.5 87t45 112.5t30.5 109.5t17 76l176 780h-194l18 57h189q18 80 51 170.5t86 166t129 125.5t180 50q72 0 116 -24.5t64 -59.5l23 25q111 111 248 111q98 0 147 -42.5t49 -93.5zM432 829h285q23 98 52.5 178t66.5 144l-131 149h-7q-53 0 -94 -48 t-72.5 -117.5t-54 -147.5t-39.5 -135z" />
<glyph unicode="&#xfb01;" horiz-adv-x="968" d="M946 1257q0 -43 -23.5 -64.5t-56.5 -21.5q-25 0 -43 13l-112 166q-29 0 -47.5 -11.5t-34.5 -27.5q-37 -39 -70 -103.5t-57.5 -133t-41 -128t-22.5 -88.5l-6 -29h227l127 56q57 0 78 -25.5t21 -54.5q0 -31 -12.5 -69t-28.5 -79l-187 -460q-6 -16 -10 -30.5t-4 -27.5 q0 -12 6 -21t21 -9q16 0 38.5 14t46 35.5t45 46t38.5 45.5l14 18l37 -24l-6 -11q-2 -6 -6 -12q-6 -8 -11 -14q-20 -31 -53 -71t-74 -75.5t-88 -60.5t-96 -25q-43 0 -60.5 19.5t-17.5 46.5q0 29 15.5 71t31.5 81l193 483q4 10 10 29.5t6 35.5q0 12 -6 21.5t-22 9.5h-287 l-199 -807q-57 -233 -168 -340q-43 -43 -98 -67.5t-123 -24.5q-78 0 -123 35t-45 94q0 47 25.5 68.5t52.5 21.5q23 0 41 -12l84 -164h8q41 0 72 31q33 33 58.5 87t45 112.5t30.5 109.5t17 76l176 780h-194l18 57h189q37 160 92 271.5t125 181.5q111 111 248 111 q98 0 147 -42.5t49 -93.5z" />
<glyph unicode="&#xfb02;" horiz-adv-x="978" d="M489 39q0 35 14.5 77t24.5 77l338 1013l-155 144q-27 0 -46.5 -11.5t-35.5 -27.5q-37 -39 -70 -103.5t-57.5 -133t-41 -128t-22.5 -88.5l-6 -29h182l-16 -57h-180l-199 -807q-57 -233 -168 -340q-43 -43 -98 -67.5t-123 -24.5q-78 0 -123 35t-45 94q0 47 25.5 68.5 t52.5 21.5q23 0 41 -12l84 -164h8q41 0 72 31q33 33 58.5 87t45 112.5t30.5 109.5t17 76l176 780h-194l18 57h189q37 160 92 271.5t125 181.5q111 111 248 111q84 0 133 -33l149 35l23 -37l-385 -1151q-6 -16 -12.5 -35.5t-6.5 -32.5q0 -29 27 -28q18 0 47 21.5t57.5 50 t55 60t41.5 52.5l10 12l37 -26l-6 -11q-2 -6 -7 -12q-6 -8 -10 -14q-23 -35 -58.5 -81t-81.5 -87t-98.5 -71t-107.5 -30q-29 0 -48.5 15.5t-19.5 48.5z" />
<glyph unicode="&#xfb03;" horiz-adv-x="1400" d="M731 1341q72 0 116 -24.5t64 -59.5l23 25q111 111 248 111q98 0 147 -42t49 -94q0 -43 -23.5 -64.5t-56.5 -21.5q-25 0 -43 13l-112 166q-29 0 -47.5 -11.5t-34.5 -27.5q-37 -39 -70 -103.5t-57.5 -133t-40.5 -128t-23 -88.5l-6 -29h228l127 56q57 0 77.5 -25.5 t20.5 -54.5q0 -31 -12.5 -69t-28.5 -79l-186 -460q-6 -16 -10.5 -30.5t-4.5 -27.5q0 -12 6 -21t21 -9q16 0 38.5 14t46 35.5t45 46t38.5 45.5l14 18l37 -24l-6 -11q-2 -6 -6 -12q-6 -8 -11 -14q-20 -31 -53 -71t-74 -75.5t-88 -60.5t-96 -25q-43 0 -60.5 19.5t-17.5 46.5 q0 29 15.5 71t31.5 81l193 483q4 10 10 29.5t6 35.5q0 12 -6 21.5t-22 9.5h-287l-199 -807q-57 -233 -168 -340q-43 -43 -98 -67.5t-117 -24.5q-68 0 -107.5 32t-39.5 85q0 41 23.5 59.5t45.5 18.5q10 0 18.5 -1t18.5 -8l72 -147h8q35 0 70 35q33 33 58.5 87t45 112.5 t30.5 109.5t17 76l177 780h-287l-199 -807q-57 -233 -168 -340q-43 -43 -98 -67.5t-123 -24.5q-78 0 -123 35t-45 94q0 47 25.5 68.5t52.5 21.5q23 0 41 -12l84 -164h8q41 0 72 31q33 33 58.5 87t45 112.5t30.5 109.5t17 76l176 780h-194l18 57h189q18 80 51 170.5t86 166 t129 125.5t180 50zM432 829h285q23 98 52.5 178t66.5 144l-131 149h-7q-53 0 -94 -48t-72.5 -117.5t-54 -147.5t-39.5 -135z" />
<glyph unicode="&#xfb04;" horiz-adv-x="1411" d="M731 1341q72 0 116 -24.5t64 -59.5l23 25q111 111 248 111q84 0 133 -33l149 35l23 -37l-385 -1151q-6 -16 -12.5 -35.5t-6.5 -32.5q0 -29 27 -28q18 0 47 21.5t57.5 50t55 60t41.5 52.5l10 12l37 -26l-6 -11q-2 -6 -6 -12q-6 -8 -11 -14q-23 -35 -58.5 -81t-81.5 -87 t-98.5 -71t-107.5 -30q-29 0 -48 15.5t-19 48.5q0 35 14 77t25 77l337 1013l-155 144q-27 0 -46.5 -11.5t-35.5 -27.5q-37 -39 -70 -103.5t-57.5 -133t-40.5 -128t-23 -88.5l-6 -29h183l-17 -57h-180l-199 -807q-57 -233 -168 -340q-43 -43 -98 -67.5t-117 -24.5 q-68 0 -107.5 32t-39.5 85q0 41 23.5 59.5t45.5 18.5q10 0 18.5 -1t18.5 -8l72 -147h8q35 0 70 35q33 33 58.5 87t45 112.5t30.5 109.5t17 76l177 780h-287l-199 -807q-57 -233 -168 -340q-43 -43 -98 -67.5t-123 -24.5q-78 0 -123 35t-45 94q0 47 25.5 68.5t52.5 21.5 q23 0 41 -12l84 -164h8q41 0 72 31q33 33 58.5 87t45 112.5t30.5 109.5t17 76l176 780h-194l18 57h189q18 80 51 170.5t86 166t129 125.5t180 50zM432 829h285q23 98 52.5 178t66.5 144l-131 149h-7q-53 0 -94 -48t-72.5 -117.5t-54 -147.5t-39.5 -135z" />
<glyph unicode="&#x17f;t" horiz-adv-x="974" d="M877 829h163l-22 -57h-164l-223 -559q-20 -55 -21 -78q0 -27 29 -26q14 0 36.5 14t46 34.5t46.5 45t39 47.5l12 16l37 -26l-22 -35q-20 -31 -52 -71t-73 -74.5t-88.5 -59.5t-98.5 -25q-41 0 -59.5 17.5t-18.5 44.5t13.5 66.5t25.5 72.5l234 596h-154l23 57h153l150 371 l-178 150h-11q-37 0 -75 -39q-41 -41 -74 -112t-58.5 -146.5t-43 -143t-25.5 -102.5l-205 -827q-27 -102 -65.5 -197.5t-108.5 -163.5q-41 -39 -94 -62.5t-123 -23.5q-78 0 -123 35t-45 94q0 47 26.5 68.5t51.5 21.5q12 0 20.5 -4t18.5 -10l86 -162h12q33 0 60.5 25.5 t50 64.5t41 87t32 95.5t22.5 85t13 58.5l160 706l16 74h-192l18 57h189q41 154 93 273t126 192q98 98 233 99q74 0 124 -23.5t73 -58.5l20 51q8 6 26.5 11t39 6t40 -2t34.5 -13z" />
<glyph unicode="fb" horiz-adv-x="1353" d="M1331 754q0 -68 -22.5 -145t-61.5 -152.5t-91 -147t-112 -129.5q-92 -92 -195.5 -148.5t-201.5 -56.5q-45 0 -72.5 9.5t-45 21.5t-26.5 26.5t-16 24.5l377 1151l-153 142q-27 0 -46.5 -11.5t-35.5 -27.5q-37 -39 -70 -103.5t-57.5 -133t-41 -128t-22.5 -88.5l-6 -29h182 l-16 -57h-180l-199 -807q-57 -233 -168 -340q-43 -43 -98 -67.5t-123 -24.5q-78 0 -123 35t-45 94q0 47 25.5 68.5t52.5 21.5q23 0 41 -12l84 -164h8q41 0 72 31q33 33 58.5 87t45 112.5t30.5 109.5t17 76l176 780h-194l18 57h189q37 160 92 271.5t125 181.5 q111 111 248 111q84 0 133 -33l145 35l25 -37l-201 -590q-23 -68 -45.5 -130.5t-38.5 -111.5q-20 -57 -39 -108l4 -2q37 76 104.5 172t159.5 180q53 53 113.5 85t116.5 32q57 0 80.5 -36t23.5 -95zM1182 680q0 27 -11.5 47.5t-40.5 20.5q-41 0 -88 -34t-93 -80t-85 -94 t-59 -77q-23 -33 -51.5 -80t-53 -97t-41 -100.5t-16.5 -91.5q0 -27 10.5 -47t38.5 -20q39 0 88 33.5t95.5 79.5t85 94.5t59.5 76.5q23 33 51.5 79t53 97.5t41 101.5t16.5 91z" />
<glyph unicode="&#x17f;&#x17f;" horiz-adv-x="944" d="M637 -35q-57 -233 -168 -340q-43 -43 -99.5 -67.5t-115.5 -24.5q-63 0 -100 29.5t-37 79.5q0 39 21.5 56t43.5 17q8 0 16.5 -1t18.5 -7l68 -135h6q37 0 71 35q33 33 58.5 87t45 112.5t31 109.5t17.5 76l176 780h-194l18 57h188q23 102 54.5 183.5t70.5 146.5l-122 141h-7 q-53 0 -95 -49t-75 -121q-16 -35 -28.5 -68.5t-24.5 -74.5t-25.5 -92t-29.5 -121l-201 -809q-57 -233 -168 -340q-43 -43 -98 -67.5t-123 -24.5q-78 0 -123 35t-45 94q0 47 25.5 68.5t52.5 21.5q23 0 41 -12l84 -164h8q41 0 72 31q33 33 58.5 87t45 112.5t30.5 109.5t17 76 l176 780h-194l18 57h189q18 80 51 170.5t86 166t129 125.5t180 50q66 0 109 -21.5t65 -51.5l15 14q111 111 247 111q98 0 147.5 -40t49.5 -93q0 -43 -23.5 -63.5t-56.5 -20.5q-25 0 -43 12l-113 164q-59 -10 -99 -60.5t-75 -128.5q-39 -86 -66.5 -185t-45.5 -177z" />
<glyph unicode="fh" horiz-adv-x="1343" d="M750 1393q84 0 133 -33l145 35l25 -37l-185 -541q-29 -84 -57.5 -165t-50.5 -146q-27 -76 -53 -146h4q35 70 88 161t116.5 172t133 136.5t139.5 55.5q43 0 71.5 -40t28.5 -124q0 -117 -38 -248t-100.5 -241.5t-144 -183.5t-167.5 -73q-47 0 -81 25t-34 76q0 47 23.5 69.5 t52.5 22.5q18 0 33.5 -10.5t21.5 -30.5l-8 -123q35 0 68.5 28.5t63.5 75t56.5 105.5t46.5 119q29 80 44.5 159.5t15.5 141.5q0 41 -6.5 65.5t-13.5 38t-15 17.5t-14 4q-35 0 -74 -31t-79 -80t-79 -110.5t-72.5 -123t-61.5 -116.5t-44 -92q-6 -12 -14.5 -30.5t-17.5 -38 t-17 -38t-12 -30.5l-33 -86q-25 -6 -45 -7q-47 0 -72 41l393 1192l-153 142q-27 0 -46.5 -11.5t-35.5 -27.5q-37 -39 -70 -103.5t-57.5 -133t-41 -128t-22.5 -88.5l-6 -29h182l-16 -57h-180l-199 -807q-57 -233 -168 -340q-43 -43 -98 -67.5t-123 -24.5q-78 0 -123 35 t-45 94q0 47 25.5 68.5t52.5 21.5q23 0 41 -12l84 -164h8q41 0 72 31q33 33 58.5 87t45 112.5t30.5 109.5t17 76l176 780h-194l18 57h189q37 160 92 271.5t125 181.5q111 111 248 111z" />
<glyph unicode="fk" horiz-adv-x="1349" d="M750 1393q41 0 74.5 -9.5t58.5 -23.5l147 35l25 -37q-27 -80 -58 -170q-27 -78 -59.5 -174t-65.5 -197l-90 -274h27q35 0 64.5 11t64.5 44q27 27 50.5 58.5t45 63.5t43 61.5t43.5 52.5q23 23 50.5 37t60.5 14q47 0 68.5 -21.5t21.5 -50.5q0 -31 -22.5 -56.5t-63.5 -25.5 l-88 45q-8 0 -26.5 -22.5t-41 -54t-46 -64.5t-42.5 -53q-29 -29 -58.5 -46.5t-74.5 -19.5v-2q45 -4 77 -17.5t48 -29.5q27 -25 38 -63.5t19 -100.5l15 -104q4 -39 11 -74t28 -35q23 0 51.5 48t54.5 126l43 -12l-4 -16q-16 -63 -43 -120t-61 -91q-23 -23 -46.5 -36.5 t-52.5 -13.5q-51 0 -72.5 36t-33.5 134t-23.5 173t-23.5 110q-12 37 -39 54.5t-74 21.5l-168 -522q-25 -6 -47 -7q-57 0 -82 41l391 1192l-153 142q-27 0 -46.5 -11.5t-35.5 -27.5q-37 -39 -70 -103.5t-57.5 -133t-41 -128t-22.5 -88.5l-6 -29h182l-16 -57h-180l-199 -807 q-57 -233 -168 -340q-43 -43 -98 -67.5t-123 -24.5q-78 0 -123 35t-45 94q0 47 25.5 68.5t52.5 21.5q23 0 41 -12l84 -164h8q41 0 72 31q33 33 58.5 87t45 112.5t30.5 109.5t17 76l176 780h-194l18 57h189q37 160 92 271.5t125 181.5q111 111 248 111z" />
<glyph unicode="ft" horiz-adv-x="1001" d="M981 1362q8 6 26.5 11t39 6t40 -2t33.5 -13l-217 -535h164l-23 -57h-163l-224 -559q-20 -55 -20 -78q0 -27 29 -26q14 0 36.5 14t46 34.5t46 45t39.5 47.5l12 16l37 -26l-23 -35q-20 -31 -52 -71t-73 -74.5t-88 -59.5t-98 -25q-41 0 -59.5 17.5t-18.5 44.5t13.5 66.5 t25.5 72.5l233 596h-325l-199 -807q-57 -233 -168 -340q-43 -43 -98 -67.5t-123 -24.5q-78 0 -123 35t-45 94q0 47 25.5 68.5t52.5 21.5q23 0 41 -12l84 -164h8q41 0 72 31q33 33 58.5 87t45 112.5t30.5 109.5t17 76l176 780h-194l18 57h189q37 160 92 271.5t125 181.5 q111 111 248 111q72 0 127 -25t81 -59l3 2zM432 829h334l143 357q-10 0 -17 4t-15 8l-166 152q-27 0 -46.5 -11.5t-35.5 -27.5q-37 -39 -70 -103.5t-57.5 -133t-41 -128t-22.5 -88.5z" />
<glyph unicode="fj" horiz-adv-x="940" d="M791 885q53 0 71.5 -25.5t18.5 -56.5q0 -33 -10.5 -71t-18.5 -66q-53 -201 -96 -343.5t-78 -240.5t-62.5 -159.5t-48.5 -102.5q-66 -129 -141.5 -204t-161.5 -75q-66 0 -96.5 25.5t-30.5 68.5q0 39 21.5 59.5t50.5 20.5q27 0 41 -14l63 -121q49 29 89 99.5t77 175.5 q18 49 38 111.5t47.5 156.5t65.5 227t91 328q4 10 9 28.5t5 34.5q0 33 -30 31h-287l-199 -807q-57 -233 -168 -340q-43 -43 -98 -67.5t-123 -24.5q-78 0 -123 35t-45 94q0 47 25.5 68.5t52.5 21.5q23 0 41 -12l84 -164h8q41 0 72 31q33 33 58.5 87t45 112.5t30.5 109.5 t17 76l176 780h-194l18 57h189q37 160 92 271.5t125 181.5q111 111 248 111q98 0 147 -42t49 -94q0 -43 -23.5 -64.5t-56.5 -21.5q-25 0 -43 13l-112 166q-29 0 -47.5 -11.5t-34.5 -27.5q-37 -39 -70 -103.5t-57.5 -133t-41 -128t-22.5 -88.5l-6 -29h227l127 56h5z" />
<glyph unicode="ffb" horiz-adv-x="1787" d="M418 772l-199 -807q-57 -233 -168 -340q-43 -43 -98 -67.5t-123 -24.5q-78 0 -123 35t-45 94q0 47 25.5 68.5t52.5 21.5q23 0 41 -12l84 -164h8q41 0 72 31q33 33 58.5 87t45 112.5t30.5 109.5t17 76l176 780h-194l18 57h189q18 80 51 170.5t86 166t129 125.5t180 50 q72 0 116 -24.5t64 -59.5l23 25q111 111 248 111q41 0 73.5 -8.5t55.5 -22.5l151 33l25 -37l-201 -590q-23 -68 -45 -130.5t-39 -111.5q-20 -57 -39 -108l4 -2q37 76 104.5 172t160.5 180q53 53 113.5 85t115.5 32q57 0 80.5 -36t23.5 -95q0 -68 -22.5 -145t-61.5 -152.5 t-91 -147t-111 -129.5q-92 -92 -195.5 -148.5t-202.5 -56.5q-45 0 -72.5 9.5t-45 21.5t-26.5 26.5t-15 24.5l376 1151l-155 142q-27 0 -46.5 -11.5t-35.5 -27.5q-37 -39 -70 -103.5t-57.5 -133t-40.5 -128t-23 -88.5l-6 -29h183l-17 -57h-180l-199 -807q-57 -233 -168 -340 q-43 -43 -98 -67.5t-117 -24.5q-68 0 -107.5 32t-39.5 85q0 41 23.5 59.5t45.5 18.5q10 0 18.5 -1t18.5 -8l72 -147h8q35 0 70 35q33 33 58.5 87t45 112.5t30.5 109.5t17 76l177 780h-287zM1616 680q0 27 -11.5 47.5t-39.5 20.5q-41 0 -88 -34t-93.5 -80t-85 -94t-59.5 -77 q-23 -33 -51.5 -80t-53 -97t-41 -100.5t-16.5 -91.5q0 -27 10.5 -47t38.5 -20q39 0 88.5 33.5t95.5 79.5t85 94.5t59 76.5q23 33 51.5 79t53 97.5t41 101.5t16.5 91zM717 829q23 98 52.5 178t66.5 144l-131 149h-7q-53 0 -94 -48t-72.5 -117.5t-54 -147.5t-39.5 -135l-6 -23 h285z" />
<glyph unicode="ffh" horiz-adv-x="1777" d="M418 772l-199 -807q-57 -233 -168 -340q-43 -43 -98 -67.5t-123 -24.5q-78 0 -123 35t-45 94q0 47 25.5 68.5t52.5 21.5q23 0 41 -12l84 -164h8q41 0 72 31q33 33 58.5 87t45 112.5t30.5 109.5t17 76l176 780h-194l18 57h189q18 80 51 170.5t86 166t129 125.5t180 50 q72 0 116 -24.5t64 -59.5l23 25q111 111 248 111q41 0 73.5 -8.5t55.5 -22.5l151 33l25 -37l-184 -541q-29 -84 -57.5 -165t-51.5 -146q-27 -76 -53 -146h4q35 70 88 161t116.5 172t133 136.5t139.5 55.5q43 0 71.5 -40t28.5 -124q0 -117 -37.5 -248t-100 -241.5 t-144.5 -183.5t-168 -73q-47 0 -81 25t-34 76q0 47 23.5 69.5t52.5 22.5q18 0 33.5 -10.5t21.5 -30.5l-8 -123q35 0 68.5 28.5t63.5 75t56.5 105.5t47.5 119q29 80 44 159.5t15 141.5q0 41 -6 65.5t-13.5 38t-15.5 17.5t-14 4q-35 0 -74 -31t-79 -80t-79 -110.5t-72.5 -123 t-61 -116.5t-44.5 -92q-6 -12 -14 -30.5t-17.5 -38t-17.5 -38t-12 -30.5l-33 -86q-25 -6 -45 -7q-47 0 -72 41l393 1192l-155 142q-27 0 -46.5 -11.5t-35.5 -27.5q-37 -39 -70 -103.5t-57.5 -133t-40.5 -128t-23 -88.5l-6 -29h183l-17 -57h-180l-199 -807 q-57 -233 -168 -340q-43 -43 -98 -67.5t-117 -24.5q-68 0 -107.5 32t-39.5 85q0 41 23.5 59.5t45.5 18.5q10 0 18.5 -1t18.5 -8l72 -147h8q35 0 70 35q33 33 58.5 87t45 112.5t30.5 109.5t17 76l177 780h-287zM717 829q23 98 52.5 178t66.5 144l-131 149h-7q-53 0 -94 -48 t-72.5 -117.5t-54 -147.5t-39.5 -135l-6 -23h285z" />
<glyph unicode="&#x17f;i" horiz-adv-x="964" d="M219 -35q-57 -233 -168 -340q-43 -43 -98 -67.5t-123 -24.5q-78 0 -123 35t-45 94q0 47 25.5 68.5t52.5 21.5q23 0 41 -12l84 -164h8q41 0 72 31q33 33 58.5 87t45 112.5t30.5 109.5t17 76l176 780h-194l18 57h189q37 160 92 271.5t125 181.5q111 111 248 111 q98 0 147 -40t49 -93q0 -43 -23.5 -63.5t-56.5 -20.5q-25 0 -43 12l-112 164q-59 -10 -99.5 -60.5t-74.5 -128.5q-39 -86 -67 -185t-46 -177zM885 244l-6 -11q-2 -6 -7 -12q-6 -8 -10 -14q-20 -31 -53 -71t-74 -75.5t-88 -60.5t-96 -25q-43 0 -60.5 19.5t-17.5 46.5 q0 29 15.5 70t31.5 82l193 485q4 10 10 28.5t6 34.5q0 12 -5 22.5t-22 10.5q-41 0 -78.5 -42t-76.5 -107l-8 -15l-37 23l10 22q23 49 53.5 91t65.5 73t73.5 48.5t77.5 17.5q59 0 79 -25.5t20 -54.5q0 -31 -12.5 -69t-28.5 -79l-187 -460q-6 -16 -10 -30.5t-4 -27.5 q0 -12 6 -21t21 -9q16 0 38.5 14t46 35.5t45 46t38.5 45.5l14 18z" />
<glyph unicode="&#x17f;l" horiz-adv-x="964" d="M737 1393q45 0 80 -9.5t62 -25.5l139 37l22 -37l-387 -1151q-6 -16 -11 -35.5t-5 -32.5q0 -29 27 -28q18 0 46.5 21.5t57.5 50t55.5 60t40.5 52.5l10 12l37 -26l-6 -11q-2 -6 -6 -12q-6 -8 -10 -14q-23 -35 -58.5 -81t-82 -87t-98.5 -71t-107 -30q-29 0 -48.5 15.5 t-19.5 48.5q0 35 14.5 77t24.5 77l344 1032l-147 125h-11q-37 0 -75 -39q-41 -41 -74 -112t-58.5 -146.5t-43 -143t-25.5 -102.5l-205 -827q-27 -102 -65.5 -197.5t-108.5 -163.5q-41 -39 -94 -62.5t-123 -23.5q-78 0 -123 35t-45 94q0 47 26.5 68.5t51.5 21.5q12 0 20.5 -4 t18.5 -10l86 -162h12q33 0 60.5 25.5t50 64.5t41 87t32 95.5t22.5 85t13 58.5l160 706l16 74h-192l18 57h189q41 154 93 273t126 192q98 99 233 99z" />
<glyph unicode="&#x17f;h" horiz-adv-x="1329" d="M737 1393q45 0 80 -9.5t64 -25.5l133 37l24 -37l-184 -541q-29 -84 -57.5 -165t-51.5 -146q-27 -76 -53 -146h4q35 70 88.5 161t117 172t133 136.5t139.5 55.5q43 0 71.5 -40t28.5 -124q0 -117 -38 -248t-100.5 -241.5t-144.5 -183.5t-168 -73q-47 0 -80.5 25t-33.5 76 q0 47 23.5 69.5t51.5 22.5q18 0 34 -10.5t22 -30.5l-9 -123q35 0 69 28.5t63.5 75t56.5 105.5t47 119q29 80 44 159.5t15 141.5q0 41 -6 65.5t-13 38t-15.5 17.5t-14.5 4q-35 0 -73.5 -31t-78.5 -80t-79 -110.5t-73 -123t-61.5 -116.5t-43.5 -92q-6 -12 -14.5 -30.5 t-17.5 -38t-17.5 -38t-12.5 -30.5l-33 -86q-25 -6 -45 -7q-47 0 -71 41l399 1211l-145 123h-11q-37 0 -75 -39q-41 -41 -74 -112t-58.5 -146.5t-43 -143t-25.5 -102.5l-205 -827q-27 -102 -65.5 -197.5t-108.5 -163.5q-41 -39 -94 -62.5t-123 -23.5q-78 0 -123 35t-45 94 q0 47 26.5 68.5t51.5 21.5q12 0 20.5 -4t18.5 -10l86 -162h12q33 0 60.5 25.5t50 64.5t41 87t32 95.5t22.5 85t13 58.5l160 706l16 74h-192l18 57h189q41 154 93 273t126 192q98 99 233 99z" />
<glyph unicode="&#x17f;k" horiz-adv-x="1335" d="M737 1393q45 0 80 -9.5t64 -25.5l135 37l24 -37q-27 -80 -57 -170q-27 -78 -59.5 -174t-65.5 -197l-90 -274h27q35 0 64.5 11t64.5 44q27 27 50 58.5t44.5 63.5t43 61.5t44.5 52.5t50.5 37t60.5 14q47 0 68.5 -21.5t21.5 -50.5q0 -31 -22.5 -56.5t-63.5 -25.5l-88 45 q-8 0 -27 -22.5t-41.5 -54t-46 -64.5t-41.5 -53q-29 -29 -58.5 -46.5t-74.5 -19.5v-2q45 -4 76.5 -17.5t48.5 -29.5q27 -25 38 -63.5t19 -100.5l14 -104q4 -39 11.5 -74t27.5 -35q23 0 51.5 48t55.5 126l43 -12l-4 -16q-16 -63 -43 -120t-62 -91q-23 -23 -46 -36.5 t-52 -13.5q-51 0 -72.5 36t-34.5 134q-12 98 -23 173t-24 110q-12 37 -38.5 54.5t-73.5 21.5l-168 -522q-25 -6 -47 -7q-57 0 -82 41l397 1211l-145 123h-11q-37 0 -75 -39q-41 -41 -74 -112t-58.5 -146.5t-43 -143t-25.5 -102.5l-205 -827q-27 -102 -65.5 -197.5 t-108.5 -163.5q-41 -39 -94 -62.5t-123 -23.5q-78 0 -123 35t-45 94q0 47 26.5 68.5t51.5 21.5q12 0 20.5 -4t18.5 -10l86 -162h12q33 0 60.5 25.5t50 64.5t41 87t32 95.5t22.5 85t13 58.5l160 706l16 74h-192l18 57h189q41 154 93 273t126 192q98 99 233 99z" />
<glyph unicode="&#x17f;&#x17f;i" horiz-adv-x="1382" d="M637 -35q-57 -233 -168 -340q-43 -43 -99.5 -67.5t-115.5 -24.5q-63 0 -100 29.5t-37 79.5q0 39 21.5 56t43.5 17q8 0 16.5 -1t18.5 -7l68 -135h6q37 0 71 35q33 33 58.5 87t45 112.5t31 109.5t17.5 76l176 780h-194l18 57h188q23 102 54.5 183.5t70.5 146.5l-122 141h-7 q-53 0 -95 -49t-75 -121q-16 -35 -28.5 -68.5t-24.5 -74.5t-25.5 -92t-29.5 -121l-201 -809q-57 -233 -168 -340q-43 -43 -98 -67.5t-123 -24.5q-78 0 -123 35t-45 94q0 47 25.5 68.5t52.5 21.5q23 0 41 -12l84 -164h8q41 0 72 31q33 33 58.5 87t45 112.5t30.5 109.5t17 76 l176 780h-194l18 57h189q18 80 51 170.5t86 166t129 125.5t180 50q66 0 109 -21.5t65 -51.5l15 14q111 111 247 111q98 0 147.5 -40t49.5 -93q0 -43 -23.5 -63.5t-56.5 -20.5q-25 0 -43 12l-113 164q-59 -10 -99 -60.5t-75 -128.5q-39 -86 -66.5 -185t-45.5 -177zM1303 244 l-7 -11q-2 -6 -6 -12q-6 -8 -10 -14q-20 -31 -53 -71t-74 -75.5t-88 -60.5t-96 -25q-43 0 -60.5 19.5t-17.5 46.5q0 29 15.5 70t31.5 82l192 485q4 10 10.5 28.5t6.5 34.5q0 12 -5 22.5t-22 10.5q-41 0 -78.5 -42t-76.5 -107l-9 -15l-36 23l10 22q23 49 53.5 91t65 73 t73.5 48.5t78 17.5q59 0 78.5 -25.5t19.5 -54.5q0 -31 -12 -69t-29 -79l-186 -460q-6 -16 -10 -30.5t-4 -27.5q0 -12 6 -21t20 -9q16 0 39 14t46.5 35.5t45 46t37.5 45.5l15 18z" />
<glyph unicode="gg" horiz-adv-x="1433" d="M1483 825q0 -39 -24.5 -54t-53.5 -15l-102 35l-33 -13q37 -61 37 -141q0 -59 -21.5 -126t-60.5 -122t-93.5 -91t-121.5 -36q-43 0 -82 17q-10 -10 -18.5 -29t-8.5 -43q0 -31 18.5 -52.5t50 -37t72.5 -30.5t84 -34q47 -20 92.5 -42.5t80 -51.5t56 -66.5t21.5 -89.5 q0 -68 -31.5 -118t-84 -82.5t-121 -49t-142.5 -16.5q-117 0 -216 31t-152 96q-49 -66 -141.5 -96.5t-196.5 -30.5q-80 0 -156 14.5t-136 44t-96 75.5t-36 112q0 59 36 100t85 66.5t102 38t88 16.5v4q-47 23 -73.5 56.5t-26.5 78.5q0 57 39 94t80 54q-53 35 -82 91t-29 130 q0 59 21.5 126t60.5 122t93 91t122 36q53 0 93 -22.5t69 -57.5q55 37 95 57.5t73 20.5q31 0 47 -16.5t16 -43.5q0 -39 -24.5 -54t-53.5 -15l-102 35l-33 -13q37 -61 37 -141q0 -59 -21.5 -126t-60.5 -122t-93 -91t-122 -36q-43 0 -82 17q-10 -10 -18 -29t-8 -43 q0 -31 18 -52.5t50 -37t73 -30.5t84 -34q66 -29 128 -64.5t97 -86.5q27 25 58.5 43t63.5 30.5t62.5 19.5t55.5 9v4q-47 23 -74 56.5t-27 78.5q0 57 39 94t80 54q-53 35 -81.5 91t-28.5 130q0 59 21.5 126t60 122t93 91t122.5 36q53 0 93 -22.5t68 -57.5q55 37 95 57.5 t73 20.5q31 0 47.5 -16.5t16.5 -43.5zM543 -240q0 59 -36 87t-106 59l-18 8q-23 10 -49.5 21.5t-50.5 21.5q-29 12 -58 27q-31 -4 -71.5 -16.5t-77.5 -33t-62.5 -51t-25.5 -71.5q0 -43 24.5 -82t68.5 -70t105.5 -49.5t135.5 -18.5q61 0 103 14.5t68.5 39t38 54t11.5 60.5z M1249 -240q0 59 -35.5 87t-105.5 59l-18 8q-23 10 -49.5 21.5t-51.5 21.5q-29 12 -57 27q-31 -4 -72 -16.5t-78 -33t-62.5 -51t-25.5 -71.5q0 -43 24.5 -82t68.5 -70t105.5 -49.5t135.5 -18.5q61 0 103.5 14.5t69 39t37.5 54t11 60.5zM487 727q0 14 -2 32.5t-9 34 t-19.5 25.5t-30.5 10q-31 0 -60.5 -23.5t-55 -57t-45 -68.5t-29.5 -59q-20 -45 -35 -97.5t-15 -101.5q0 -14 2 -32.5t9.5 -34t18.5 -26t30 -10.5q31 0 60.5 24t56 57.5t46 68.5t29.5 59q20 47 34.5 98.5t14.5 100.5zM1194 727q0 14 -2 32.5t-9 34t-19.5 25.5t-30.5 10 q-31 0 -61 -23.5t-55.5 -57t-45 -68.5t-29.5 -59q-20 -45 -34.5 -97.5t-14.5 -101.5q0 -14 2 -32.5t9 -34t18.5 -26t29.5 -10.5q31 0 60.5 24t56.5 57.5t46.5 68.5t29.5 59q20 47 34.5 98.5t14.5 100.5z" />
<glyph horiz-adv-x="0" />
<glyph unicode="&#xd;" horiz-adv-x="1024" />
<glyph horiz-adv-x="0" />
<glyph horiz-adv-x="0" />
<glyph unicode=" "  horiz-adv-x="442" />
<glyph unicode="&#x09;" horiz-adv-x="442" />
<glyph unicode="&#xa0;" horiz-adv-x="442" />
<glyph unicode="!" horiz-adv-x="481" d="M504 1188q-12 -45 -45 -138.5t-75 -208t-87 -235.5t-84 -221h-31q14 100 34 221t38 233.5t35.5 205t29.5 137.5q6 27 15.5 52.5t25 44.5t37 31.5t56.5 12.5q31 0 45 -11.5t18 -29.5t0 -42.5t-12 -51.5zM238 84q0 -45 -32 -77t-77 -32t-77 32t-32 77t32 77t77 32t77 -32 t32 -77z" />
<glyph unicode="&#x22;" horiz-adv-x="645" d="M301 1374l8 8h183l4 -8l-222 -522h-45zM602 1374l8 8h183l4 -8l-222 -522h-45z" />
<glyph unicode="#" horiz-adv-x="1347" d="M823 395h-430l-170 -428h-92l170 428h-258l27 78h262l160 401h-299l26 78h303l166 416h92l-166 -416h430l166 416h93l-166 -416h252l-27 -78h-256l-160 -401h293l-27 -78h-297l-170 -428h-92zM424 473h430l160 401h-430z" />
<glyph unicode="$" horiz-adv-x="1019" d="M455 -8q-12 -2 -25 -2h-22q-51 0 -103 10l-37 -139h-55l39 149q-72 20 -116 47t-58 37l-45 -59h-47l75 364h41q2 -31 9.5 -74.5t26 -90t50 -89.5t82.5 -69l158 594q-61 59 -108.5 126.5t-47.5 166.5q0 84 29 144t75 100t104.5 61.5t115.5 29.5l33 119h55l-31 -112h17 q70 0 131 -17l35 129h55l-39 -141q45 -14 77 -30.5t52 -28.5l25 47h43l-64 -334h-45q2 109 -28.5 174t-77.5 100l-142 -528l35 -33q59 -59 103 -129t44 -156q0 -143 -100 -239t-262 -121l-37 -137h-55zM594 516q-29 29 -59.5 55.5t-61.5 55.5l-154 -572q43 -12 97 -12 q14 0 27.5 1t25.5 3zM526 827q29 -29 58.5 -56.5t62.5 -55.5l139 518q-29 12 -58.5 17t-57.5 5q-20 0 -29 -2zM715 295q0 51 -21.5 93t-56.5 83l-109 -412q80 27 133.5 87.5t53.5 148.5zM430 1036q0 -47 14.5 -86t38.5 -73l99 366q-66 -18 -109 -68.5t-43 -138.5z" />
<glyph unicode="%" horiz-adv-x="1521" d="M1055 -23q-23 0 -52.5 7.5t-57 29t-47 61.5t-19.5 105q0 66 24 162q33 123 82 196.5t100.5 113.5t96.5 52.5t71 12.5q20 0 50 -7.5t58 -31t47 -64.5t19 -108q0 -35 -5 -75t-19 -89q-33 -121 -81 -193.5t-98 -110.5t-96 -49.5t-73 -11.5zM1245 684q-39 0 -69.5 -26.5 t-56 -73.5t-47 -109.5t-40.5 -136.5q-18 -72 -29.5 -129t-11.5 -98q0 -100 74 -101q72 0 120 86t89 242q18 72 30.5 133t12.5 109q0 49 -16.5 76.5t-55.5 27.5zM336 565q-23 0 -52.5 7.5t-57 29t-47 61t-19.5 105.5t24 162q33 123 82 196.5t100.5 113.5t96.5 52.5t72 12.5 q20 0 49.5 -7.5t57.5 -31t47.5 -64.5t19.5 -108q0 -35 -5.5 -75t-19.5 -89q-33 -121 -81 -193.5t-98 -110.5t-96 -49.5t-73 -11.5zM526 1272q-39 0 -69.5 -26.5t-56 -74t-47 -110t-42.5 -135.5q-18 -72 -29.5 -128.5t-11.5 -97.5q0 -102 76 -102q72 0 119 86t88 242 q20 72 32.5 133t12.5 108t-16.5 76t-55.5 29zM1430 1331l-1199 -1376h-75l1198 1376h76z" />
<glyph unicode="&#x26;" horiz-adv-x="1654" d="M551 739q0 29 -21.5 43.5t-52.5 14.5q-33 0 -62.5 -13.5t-45.5 -29.5q10 -23 33.5 -51.5t72.5 -28.5q35 0 55.5 18t20.5 47zM1012 831q55 0 110.5 -17t99.5 -56t70.5 -98.5t26.5 -141.5q0 -119 -56.5 -219t-150.5 -172t-217 -113t-256 -41q-119 0 -216 32t-166 89.5 t-106.5 138t-37.5 179.5q0 59 15 111t42 97.5t60.5 82t68.5 63.5q-4 12 -9 37.5t-5 64.5q0 57 21.5 109.5t58 91.5t86 61.5t106.5 22.5q82 0 127 -34t45 -77q0 -37 -22.5 -59t-57.5 -22q-14 0 -22 2l-129 100q-72 -16 -111 -73.5t-39 -123.5q0 -16 2 -31.5t6 -29.5 q29 20 74 38.5t98 18.5q66 0 111 -32.5t45 -94.5q0 -61 -45 -106t-123 -45t-127 44t-70 87q-70 -53 -101.5 -123t-31.5 -152q0 -74 30 -137t85 -110.5t134 -74t177 -26.5q117 0 219.5 36t179 97.5t122 143.5t45.5 174q0 57 -18.5 102t-48.5 75t-67.5 45t-78.5 15 q-68 0 -111 -43t-43 -100q0 -53 24.5 -80t43.5 -29l16 15q-27 29 -27 71q0 41 28 71t75 30t75.5 -30t28.5 -77q0 -59 -46 -98t-111 -39q-70 0 -121.5 49t-51.5 148q0 63 27 124.5t80 108.5q45 41 107.5 64.5t136.5 23.5q41 0 92 -7t104 -15q61 -10 131 -18.5t121 -8.5 q84 0 130 28.5t46 86.5v6l-139 26q-10 4 -20.5 17.5t-10.5 38.5q0 27 19.5 48t60.5 21q51 0 94 -44t43 -138q0 -111 -65 -160q-31 -25 -74 -36t-108 -11q-51 0 -114 8.5t-120 18.5q-59 10 -116.5 18.5t-102.5 8.5q-51 0 -93 -13.5t-69 -44.5l6 -8q16 8 42 14t59 6z" />
<glyph unicode="'" horiz-adv-x="344" d="M301 1374l8 8h183l4 -8l-222 -522h-45z" />
<glyph unicode="(" horiz-adv-x="548" d="M748 1294q-23 -16 -51.5 -36.5t-59.5 -49.5q-35 -29 -74 -65.5t-78 -83.5q-80 -94 -154.5 -227.5t-123.5 -319.5q-29 -104 -41 -205.5t-12 -200.5q0 -166 33.5 -309t99.5 -250l-21 -12q-123 152 -179 320t-56 346q0 164 49 346q33 127 92 243.5t142 216t188.5 177.5 t230.5 127z" />
<glyph unicode=")" horiz-adv-x="548" d="M-223 -344q23 16 51.5 36.5t58.5 49.5q35 29 74 65.5t78 83.5q80 94 154.5 227.5t123.5 319.5q55 205 56 406q0 166 -34 309t-99 250l20 12q123 -152 179.5 -319.5t56.5 -345.5q0 -84 -13.5 -169t-38.5 -178q-35 -127 -93 -243.5t-141 -216t-188.5 -177t-230.5 -126.5z " />
<glyph unicode="*" horiz-adv-x="1017" d="M1032 936q0 -39 -8 -66q-4 -18 -11 -33.5t-16 -29.5l-342 145l230 -293q-12 -12 -24.5 -22t-29.5 -21q-16 -10 -31.5 -16t-31.5 -10l-141 348l-45 -371q-39 0 -66 8q-18 4 -33.5 11.5t-29.5 15.5l147 342l-295 -229q-12 12 -22.5 25.5t-18.5 29.5q-20 25 -26 64l346 139 l-371 45q0 39 8 65q8 33 29 64l340 -146l-230 293q12 12 25.5 22.5t30.5 18.5q14 10 30.5 17.5t32.5 11.5l139 -348l46 370q39 0 65 -8q18 -4 33.5 -11t30.5 -15l-146 -342l293 229q12 -12 22.5 -25.5t18.5 -29.5q10 -14 17.5 -29.5t11.5 -32.5l-348 -141z" />
<glyph unicode="+" horiz-adv-x="1165" d="M610 465v-494h-67v494h-477v63h477v496h67v-496h477v-63h-477z" />
<glyph unicode="," horiz-adv-x="442" d="M242 0q0 -61 -21.5 -119.5t-60.5 -106.5t-90.5 -84t-112.5 -55l-12 33q86 47 145.5 124t59.5 167q0 20 -3 31q-25 -14 -53 -15q-47 0 -74.5 28t-27.5 73t30.5 74.5t75.5 29.5q66 0 105 -49q39 -51 39 -131z" />
<glyph unicode="-" horiz-adv-x="722" d="M588 463h-484l25 100h483z" />
<glyph unicode="." horiz-adv-x="409" d="M205 82q0 -45 -31 -76t-76 -31q-43 0 -74.5 31t-31.5 76t31.5 75.5t74.5 30.5q45 0 76 -30.5t31 -75.5z" />
<glyph unicode="/" horiz-adv-x="782" d="M-2 -150h-98l942 1543h96z" />
<glyph unicode="0" d="M324 -25q-37 0 -84 11.5t-88 48.5t-70 104.5t-29 179.5q0 63 11.5 142.5t37.5 177.5q59 223 141.5 357t166.5 207t157.5 95.5t118.5 22.5q41 0 87 -13.5t85 -52t64.5 -107.5t25.5 -179q0 -66 -11 -148t-40 -182q-59 -221 -138 -352t-160 -201t-154.5 -90.5t-120.5 -20.5z M674 1278q-70 0 -125 -49t-101.5 -135t-86 -204t-76.5 -253q-35 -135 -56.5 -245.5t-21.5 -188.5q0 -90 29.5 -137.5t101.5 -47.5q63 0 116.5 41t98.5 120t85 192.5t79 259.5q37 135 60.5 251.5t23.5 204.5q0 90 -28.5 140.5t-98.5 50.5z" />
<glyph unicode="1" d="M571 1147l-215 8l9 37q70 18 138 39.5t124 40.5q66 23 123 45h36l-331 -1235l188 -27l-16 -57q-25 2 -62 3t-78 2t-79 1h-125q-37 0 -77 -1t-78 -2t-62 -3l14 57l205 27z" />
<glyph unicode="2" d="M-78 0l12 47q51 41 123 101.5t151 133t160 153.5t150 165q41 49 83 104.5t77 112.5t56.5 114.5t21.5 110.5q0 68 -39 111t-119 43q-53 0 -100 -18.5t-87 -49t-72 -69.5t-54 -80l-37 29q25 51 62.5 106t92 99t126 73t163.5 29q123 0 185.5 -64.5t62.5 -160.5 q0 -86 -38 -168t-96 -158t-127 -142.5t-130 -119.5q-55 -49 -112.5 -97.5t-113 -93.5t-105.5 -85t-89 -72h387q43 0 69.5 8t49 26.5t45 46t57.5 64.5h45l-145 -309h-16q-16 6 -48 8t-69 2h-582z" />
<glyph unicode="3" d="M922 1122q0 -72 -33 -129t-83 -101t-111.5 -77t-119.5 -57v-2q57 -12 98.5 -42t68 -69t38 -83t11.5 -83q0 -115 -52.5 -208t-137.5 -158.5t-191.5 -100.5t-214.5 -35q-92 0 -161 31t-69 90q0 41 27.5 66.5t62.5 25.5q33 0 62 -18l98 -149l-2 -3h23q92 0 164.5 40 t125 101.5t80 135.5t27.5 139q0 78 -25.5 124t-62.5 70.5t-78 33t-72 10.5l-2 12q68 37 133.5 74t120.5 90q53 49 87 112.5t34 122.5q0 66 -40 97.5t-99 31.5q-92 0 -170 -55t-125 -141l-35 31q57 125 159.5 196.5t233.5 71.5q102 0 166 -51.5t64 -143.5z" />
<glyph unicode="4" d="M848 395h-215l-119 -444h-145l118 444h-503l16 60l811 852h66l-211 -791h252zM674 1090l-133 -146l-404 -428h383l94 352q10 35 19.5 74t19.5 72q10 37 23 76h-2z" />
<glyph unicode="5" d="M954 1137h-477l-125 -349q29 6 53.5 8.5t49.5 2.5q70 0 132 -19.5t109 -59.5t75 -98.5t28 -138.5q0 -121 -56.5 -217t-145.5 -162.5t-199.5 -101.5t-217.5 -35q-47 0 -88 8.5t-73.5 23.5t-51 37.5t-18.5 51.5q0 41 26.5 66.5t63.5 25.5q20 0 33.5 -4t29.5 -14l101 -148 q6 0 11 -1t11 -1q84 0 158 39t129 100.5t87 138.5t32 150q0 63 -18.5 108.5t-49.5 75t-72.5 43t-91.5 13.5q-31 0 -64.5 -5t-64.5 -16l-24 11l221 608h463l82 88h45z" />
<glyph unicode="6" d="M983 1311q-102 -39 -194.5 -100.5t-174.5 -138.5t-148.5 -168t-115.5 -189l2 -2q14 14 39 33.5t57.5 36t74.5 28.5t91 12q55 0 98.5 -20.5t74 -57t46 -86t15.5 -106.5q0 -106 -40 -209.5t-109.5 -185.5t-165 -132.5t-205.5 -50.5q-150 0 -211.5 87.5t-61.5 232.5 q0 98 32 205.5t90.5 213t141 206t185 185.5t220.5 149.5t249 99.5q4 -10 6 -21.5t4 -21.5zM342 23q74 0 137.5 50t109.5 129t72.5 175t26.5 186q0 82 -35 138.5t-112 56.5q-35 0 -67 -11.5t-61.5 -28t-53 -38t-40.5 -39.5q-16 -29 -38.5 -74t-43 -101t-35 -119.5 t-14.5 -125.5q0 -39 7.5 -74.5t26 -63.5t48 -44t72.5 -16z" />
<glyph unicode="7" d="M1102 1260q-57 -78 -138 -188.5t-171.5 -233.5t-184.5 -251t-178 -239.5t-150.5 -200t-103.5 -131.5q-23 -29 -47.5 -39t-56.5 -10q-8 0 -20.5 1t-25 4t-21.5 11.5t-9 22.5q0 8 2 14q2 12 8 23.5t26.5 36t59.5 67.5t109 121q86 94 182 204t194.5 223.5t192.5 225 t172 209.5h-407q-63 0 -105.5 -21.5t-83.5 -51.5q-23 -18 -41 -37t-35 -39h-43l205 379h41l-2 -84h625z" />
<glyph unicode="8" d="M958 1112q0 -78 -32.5 -140.5t-82.5 -111.5t-110.5 -86t-114.5 -63q92 -86 137.5 -164t45.5 -166q0 -82 -34 -155.5t-96.5 -129t-150.5 -88.5t-194 -33q-143 0 -226.5 61.5t-83.5 174.5q0 90 39 162.5t100.5 129t135.5 98.5t143 71q-92 78 -131 156.5t-39 164.5 q0 70 32 133.5t86 109.5t128 73.5t158 27.5q131 0 210.5 -57t79.5 -168zM838 1114q0 82 -48.5 129t-136.5 47q-53 0 -96 -19.5t-75.5 -52t-50 -76.5t-17.5 -95q0 -86 32.5 -145.5t102.5 -125.5q4 -4 11 -9t13 -11l15 -15q49 27 94 67t80 88t55.5 103.5t20.5 114.5zM637 350 q0 86 -49 157t-123 136q-29 -16 -81 -50t-105.5 -86t-92.5 -123t-39 -161q0 -98 52.5 -149t138.5 -51q66 0 121 25.5t95 69.5t61.5 103t21.5 129z" />
<glyph unicode="9" d="M20 -18q100 39 193.5 100t175.5 138t148.5 168t115.5 190l-2 2q-16 -14 -39.5 -34t-56.5 -36t-75 -28.5t-91 -12.5q-55 0 -98 20.5t-74 57.5t-46 86t-15 106q0 106 40 210t109.5 186t164.5 132t206 50q150 0 211 -87t61 -233q0 -98 -31.5 -205.5t-90 -213t-141.5 -206 t-185.5 -185.5t-221 -149.5t-247.5 -98.5q-4 10 -6.5 21.5t-4.5 21.5zM662 1270q-74 0 -137.5 -50.5t-109.5 -129t-73 -175t-27 -186.5q0 -82 35 -138t113 -56q33 0 65.5 11t62.5 27.5t53.5 38t39.5 39.5q16 27 38.5 73t43 102.5t35 120t14.5 124.5q0 39 -7 75t-25.5 63.5 t-48 44t-72.5 16.5z" />
<glyph unicode=":" horiz-adv-x="458" d="M221 82q0 -45 -30.5 -76t-75.5 -31q-43 0 -75 31t-32 76t32 75.5t75 30.5q45 0 75.5 -30.5t30.5 -75.5zM383 700q0 -45 -30.5 -75.5t-76.5 -30.5q-43 0 -74.5 30.5t-31.5 75.5t31.5 76t74.5 31q45 0 76 -31t31 -76z" />
<glyph unicode=";" horiz-adv-x="495" d="M391 700q0 -45 -30.5 -75.5t-75.5 -30.5q-43 0 -75 30.5t-32 75.5t32 76t75 31q45 0 75.5 -31t30.5 -76zM266 0q0 -61 -21.5 -119.5t-60.5 -106.5t-90 -84t-112 -55l-13 33q86 47 145.5 124t59.5 167q0 20 -2 31q-25 -14 -53 -15q-47 0 -75 28t-28 73t31 74.5t76 29.5 q66 0 104 -49q39 -51 39 -131z" />
<glyph unicode="&#x3c;" horiz-adv-x="1363" d="M121 612l-4 4v107l4 4l1079 455v-70l-1036 -438v-6l1036 -439v-69z" />
<glyph unicode="=" horiz-adv-x="1404" d="M166 311v64h1044v-64h-1044zM166 590v63h1044v-63h-1044z" />
<glyph unicode="&#x3e;" horiz-adv-x="1353" d="M236 160v69l1036 439v6l-1036 438v70l1079 -455l4 -4v-107l-4 -4z" />
<glyph unicode="?" horiz-adv-x="751" d="M836 1155q0 -70 -29 -125t-75 -100t-103.5 -82t-112.5 -68q-45 -25 -85 -46t-70.5 -42.5t-49 -43t-18.5 -46.5q0 -43 27.5 -62.5t68.5 -19.5q23 0 43.5 4t40.5 11l8 -33q-31 -12 -62.5 -19.5t-64.5 -7.5q-72 0 -127 35t-55 113q0 45 24.5 79.5t63.5 64.5t89 55.5 t102 54.5q49 27 96 56.5t83 66t58.5 80.5t22.5 100q0 90 -50.5 130t-123.5 38h-27l-115 -179q-8 -8 -18 -11t-21 -3q-29 0 -48 16.5t-19 51.5q0 37 23.5 67.5t61.5 53t85 36t96 13.5q57 0 107.5 -15.5t89.5 -46.5t61.5 -75t22.5 -101zM315 84q0 -45 -31.5 -77t-76.5 -32 t-77 32t-32 77t32 77t77 32t76.5 -32t31.5 -77z" />
<glyph unicode="@" horiz-adv-x="1564" d="M1464 385q-43 -111 -112.5 -193.5t-156.5 -137t-184.5 -82t-193.5 -27.5q-139 0 -261 51t-211 142t-140 217t-51 278q0 164 57 303t155.5 240.5t229.5 159t276 57.5q139 0 242 -45t170.5 -120t100 -171t32.5 -197q0 -100 -29.5 -199.5t-85 -178.5t-136.5 -128t-183 -49 q-66 0 -103.5 26.5t-37.5 92.5q0 49 20.5 102.5t38.5 98.5h-2q-4 0 -6 2q-20 -43 -51 -98.5t-70 -104.5t-87 -84t-103 -35q-53 0 -74 33t-21 80q0 63 17.5 131.5t48.5 133.5t71 123t85 103q18 18 44.5 41t57.5 43.5t62.5 33.5t60.5 13q57 0 90 -47l33 82q18 8 43 8 q12 0 25.5 -2t23.5 -12l-154 -438q-6 -16 -14 -40l-16 -48q-16 -53 -17 -90q0 -35 19.5 -60.5t70.5 -25.5q61 0 118.5 39.5t103 107.5t73 160t27.5 196q0 98 -35 184.5t-97.5 149t-151.5 98t-199 35.5q-150 0 -267.5 -62.5t-200.5 -164.5t-127 -232t-44 -266 q0 -137 44 -248.5t121.5 -191.5t184 -123t233.5 -43q80 0 165 20.5t165 69.5t150.5 130t119.5 200zM983 903q-25 57 -92 58q-59 0 -109.5 -53.5t-89.5 -127t-60.5 -151.5t-21.5 -127q0 -25 7.5 -54.5t39.5 -29.5q31 0 65 28.5t66.5 72.5t63.5 99.5t56.5 109.5t45 100 t29.5 75z" />
<glyph unicode="A" horiz-adv-x="1146" d="M1040 -2q-47 4 -111.5 5t-113.5 1h-63q-35 0 -74 -1t-75 -2t-62 -3l12 57l190 27l-28 340h-424l-201 -340l184 -27l-14 -57q-47 4 -114.5 5t-116.5 1q-51 0 -87 -1t-87 -5l14 57l158 27l626 1046l-6 91q29 10 70 38.5t63 61.5h27l100 -1237l150 -27zM686 788 q-4 41 -6 88.5t-6 86.5q-4 45 -6 88l-109 -181l-235 -397h389z" />
<glyph unicode="B" horiz-adv-x="1175" d="M1163 1038q0 -78 -29.5 -138t-79.5 -103t-116 -69t-135 -34l-2 -4q104 -18 173.5 -88t69.5 -190q0 -72 -29.5 -141.5t-78.5 -120.5q-43 -45 -98.5 -74t-117 -46.5t-129 -23.5t-134.5 -6h-541l14 55l201 27l303 1130l-186 29l14 53h522q68 0 136.5 -11t122 -41t87 -79 t33.5 -125zM860 406q0 55 -17.5 94t-45.5 67q-51 47 -125 60.5t-158 13.5h-61l-152 -567l31 -6q20 -4 41.5 -8.5t41 -7.5t29.5 -3h56q98 0 154.5 24.5t101.5 67.5q49 49 76.5 118t27.5 147zM989 1061q0 86 -53 135t-141 49h-35l-152 -24l-145 -539h80q131 0 211 30.5 t133 84.5q51 53 76.5 120.5t25.5 143.5z" />
<glyph unicode="C" horiz-adv-x="1216" d="M1210 967h-43q-4 80 -30.5 136t-68.5 93t-95 53.5t-109 16.5q-137 0 -241.5 -78t-175 -197t-106.5 -257t-36 -261q0 -98 19.5 -180t59.5 -140.5t98.5 -90t135.5 -31.5q78 0 145.5 27.5t124 71.5t100.5 98.5t75 109.5l41 -6l-117 -320h-45l2 54q-12 -6 -41 -21.5t-72 -31 t-101 -27t-130 -11.5q-102 0 -190 34t-154 101.5t-103.5 168t-37.5 233.5q0 141 52 284.5t148.5 259t234.5 189.5t308 74q127 0 207 -26.5t129 -53.5l29 53h45z" />
<glyph unicode="D" horiz-adv-x="1449" d="M1411 825q0 -74 -13.5 -149.5t-41 -149t-67.5 -141.5t-93 -125q-137 -145 -337 -202.5t-447 -57.5h-494l14 53l199 29l303 1130l-182 31l12 51h557q115 0 221.5 -23.5t188.5 -78.5t131 -145.5t49 -221.5zM1223 850q0 199 -105.5 297t-302.5 98h-20l-187 -33l-303 -1130 q14 -2 39 -7t50.5 -11.5t49 -10.5t35.5 -4q205 0 348.5 68.5t237.5 206.5q37 55 66.5 120.5t50 135t31 139.5t10.5 131z" />
<glyph unicode="E" horiz-adv-x="1218" d="M1202 1018h-41l-59 139q-29 63 -43 78q-8 6 -16.5 7t-18.5 1h-408l-149 -555h307q16 0 25.5 3t19.5 20l103 149h41l-111 -407h-41l-18 161q-2 16 -9.5 19.5t-23.5 3.5h-307l-148 -555l191 -31h200q35 0 58.5 4t50 19.5t60.5 46.5t89 84l29 28q18 18 35 37l41 45h51 l-139 -315h-1053l14 55l199 27l303 1130l-184 29l14 53h965z" />
<glyph unicode="F" horiz-adv-x="1124" d="M1219 1008h-35l-86 147q-10 14 -15.5 24.5t-11.5 20.5q-14 23 -22.5 33t-38.5 10h-394l-151 -565h352q16 0 25.5 3t19.5 19l107 170h39l-121 -448h-39l-12 182q-2 16 -9.5 19.5t-23.5 3.5h-352l-146 -545l244 -27l-12 -57q-25 2 -71 3t-98.5 2t-99.5 1h-211 q-39 0 -76.5 -1t-62.5 -3l14 55l199 27l303 1130l-184 29l14 53h991z" />
<glyph unicode="G" horiz-adv-x="1359" d="M1325 559l-168 -29l-113 -419l117 24l10 -39q-10 -6 -54 -25.5t-116.5 -41t-167 -38t-200.5 -16.5q-104 0 -183 22.5t-141 68.5q-94 68 -144 181t-50 271q0 145 54 288.5t152.5 257.5t235.5 184.5t305 70.5q117 0 200 -25.5t132 -52.5l29 51h45l-58 -325h-43 q-4 80 -30.5 136t-68.5 93t-95 53.5t-109 16.5q-137 0 -241.5 -77t-175 -193.5t-106.5 -255t-36 -259.5q0 -90 15.5 -171t54.5 -143.5t105.5 -99t166.5 -36.5q35 0 51.5 1t32.5 5l131 47l119 446l-205 29l17 53q25 -2 63.5 -3t80.5 -2t81 -1h192l70 2q35 2 59 4z" />
<glyph unicode="H" horiz-adv-x="1462" d="M1597 1241l-196 -29l-303 -1130l182 -27l-16 -57q-25 2 -62 3t-77 2t-76 1h-125q-37 0 -76 -1t-77 -2t-62 -3l14 57l199 27l147 555h-614l-148 -555l182 -27l-16 -57q-25 2 -61.5 3t-76.5 2t-77 1h-125q-37 0 -76 -1t-76.5 -2t-62.5 -3l14 57l199 27l303 1130l-184 29 l14 55q25 -2 61.5 -3t76.5 -2t77 -1h125q37 0 77 1t77 2t61 3l-12 -55l-197 -29l-143 -524h614l144 524l-185 29l15 55q25 -2 61.5 -3t76.5 -2t77 -1h125q37 0 76.5 1t76.5 2t62 3z" />
<glyph unicode="I" horiz-adv-x="671" d="M807 1241l-197 -29l-303 -1130l182 -27l-16 -57q-25 2 -61.5 3t-76.5 2t-77 1h-125q-37 0 -76 -1t-76.5 -2t-62.5 -3l14 57l199 27l303 1130l-184 29l14 55q25 -2 61.5 -3t76.5 -2t77 -1h125q37 0 77 1t77 2t61 3z" />
<glyph unicode="J" horiz-adv-x="636" d="M788 1241l-196 -29l-227 -845q-31 -115 -63 -212.5t-68.5 -180.5t-84 -153.5t-108.5 -129.5q-68 -66 -147.5 -100.5t-176.5 -34.5q-88 0 -140 38.5t-52 108.5q0 53 30.5 75.5t59.5 22.5q12 0 22.5 -2t20.5 -10l109 -182h16q76 0 143 71q47 51 85 130t68 163t50.5 163 t34.5 130l254 948l-223 29l14 55q25 -2 66.5 -3t89 -2t90.5 -1h129q39 0 78.5 1t77.5 2t63 3z" />
<glyph unicode="K" horiz-adv-x="1296" d="M1438 1239l-164 -27l-563 -483l368 -647l125 -27l-14 -57q-47 4 -99.5 5t-101.5 1h-67q-43 0 -90.5 -1t-90.5 -2t-67 -3l14 57l191 27l-314 555h-110l-150 -555l184 -27l-16 -57q-25 2 -63.5 3t-80.5 2t-83 1h-125q-35 0 -72 -1t-71.5 -2t-59.5 -3l16 57l197 27l303 1130 l-184 27l16 57q25 -2 58.5 -3t70.5 -2t72 -1h123q41 0 83 1t82 2t66 3l-16 -57l-197 -27l-141 -524h111l618 524l-186 27l14 57q25 -2 54.5 -3t61 -2t62.5 -1h55q51 0 97.5 1t99.5 5z" />
<glyph unicode="L" horiz-adv-x="1191" d="M991 0h-1073l14 55l199 27l303 1130l-184 29l14 55q25 -2 61.5 -3t77.5 -2t78 -1h125q39 0 80 1t79 2t64 3l-14 -55l-207 -29l-303 -1130l191 -31h200q35 0 59.5 4t51.5 19.5t60.5 46.5t88.5 84l131 137h46z" />
<glyph unicode="M" horiz-adv-x="1636" d="M1677 1255l-161 -36l-156 -1137l158 -27l-15 -57q-25 2 -55.5 3t-63 2t-65.5 1h-55q-51 0 -122 -1t-122 -5l14 57l156 27l92 688q16 119 29.5 188.5t23.5 114.5h-4q-23 -47 -45 -92q-20 -39 -41.5 -82t-40.5 -78l-459 -829h-45l-100 686q-8 47 -14 93t-11 85 q-6 45 -10 88h-2q-27 -47 -49 -92q-20 -39 -44 -81t-42 -77l-332 -608l305 -31l-16 -57q-25 2 -68 3t-90 2t-90 1h-67q-102 0 -203 -6l16 57l146 27l518 942l-31 188l-194 48l20 55l432 -43l-14 -53l-68 -19l103 -688q4 -39 11 -83t11 -85q6 -47 12 -92h2q27 47 52 96 q23 41 46 87t44 81l377 682l-68 21l14 53l390 37z" />
<glyph unicode="N" horiz-adv-x="1419" d="M1561 1241l-172 -29l-334 -1247h-37l-494 887q-10 16 -18 31.5t-14 27.5q-8 12 -15 25l-4 -2l-10 -41q-4 -18 -10.5 -42t-12.5 -46l-190 -723l266 -27l-16 -57q-25 2 -63 3t-80 2t-81 1h-63q-51 0 -112.5 -1t-112.5 -5l16 57l186 27l246 928l-129 211l-123 20l15 53h278 l522 -944q12 -23 23.5 -44t21.5 -38q10 -20 23 -39h2l37 142l225 841l-248 29l15 55q25 -2 60.5 -3t75.5 -2t77 -1h61q100 0 203 6z" />
<glyph unicode="O" horiz-adv-x="1386" d="M1341 791q0 -145 -54 -291t-150.5 -262.5t-229.5 -189.5t-293 -73q-125 0 -219 40t-156.5 111t-94 168t-31.5 210q0 141 52 285.5t147.5 262t229.5 192.5t298 75q129 0 223 -41t156.5 -111.5t92 -166.5t29.5 -209zM1151 829q0 74 -15.5 152t-52 140.5t-96 102.5 t-147.5 40q-125 0 -224.5 -78t-169 -196t-106.5 -257t-37 -264q0 -80 16.5 -159t53.5 -141.5t96 -100t145 -37.5q125 0 224.5 79.5t169 199.5t106.5 259t37 260z" />
<glyph unicode="P" horiz-adv-x="1114" d="M1151 997q0 -90 -36 -173t-99.5 -146.5t-149.5 -101t-186 -37.5q-53 0 -106.5 13t-84.5 36l29 35q23 -12 53.5 -18.5t55.5 -6.5q82 0 146.5 41t110.5 103.5t70.5 137t24.5 142.5q0 111 -61.5 167t-153.5 56h-16l-138 -22l-305 -1141l230 -27l-15 -55h-604l14 55l201 27 l303 1130l-186 29l14 53h430q74 0 140.5 -7t119.5 -25q86 -29 142.5 -91.5t56.5 -173.5z" />
<glyph unicode="Q" horiz-adv-x="1388" d="M2347 -293q-25 -25 -62.5 -57.5t-96 -63t-144.5 -51t-205 -20.5q-174 0 -345 34.5t-316 81.5q-88 27 -168 55.5t-156 50t-148.5 36t-144.5 14.5q-49 0 -94 -9t-82 -21.5t-61.5 -24t-32.5 -15.5l-10 -141q-10 -8 -23.5 -15t-40.5 -7q-35 0 -55.5 25.5t-20.5 55.5 q0 41 28 67t87 58l258 136q31 16 73 37.5t81 43.5q45 25 94 52l-4 6q-14 -6 -59.5 -19.5t-108.5 -13.5q-111 0 -199 35t-149.5 101.5t-94 160.5t-32.5 213q0 141 53 284.5t150.5 259t230.5 189.5t293 74q127 0 221 -40t156.5 -110.5t93 -167t30.5 -208.5 q0 -125 -28.5 -226.5t-82.5 -187.5t-131 -159t-173 -138q-92 -61 -199.5 -119.5t-224.5 -120.5l4 -8q31 10 97.5 30.5t148.5 20.5q63 0 133.5 -13t145.5 -34.5t156 -49.5t165 -54q139 -43 290.5 -77t313.5 -34q74 0 131 12.5t100 30t73 38t52 36.5zM1153 831q0 74 -15.5 151 t-52 139.5t-96 102.5t-147.5 40q-121 0 -219.5 -73t-169 -187.5t-109.5 -256t-39 -276.5q0 -80 16.5 -156.5t53.5 -136t96 -96.5t145 -37q84 0 156 36t131.5 96.5t106.5 140t78.5 166.5t48 176t16.5 171z" />
<glyph unicode="R" horiz-adv-x="1196" d="M1106 -2q-20 2 -34.5 3t-29.5 1h-135q-10 0 -24.5 -1t-40.5 -3q-29 49 -59.5 128t-65.5 165q-18 43 -43 98t-56.5 105.5t-72.5 88.5t-92 48l-148 -549l184 -27l-14 -57q-25 2 -61.5 3t-76.5 2t-79 1h-125q-37 0 -77 -1t-77.5 -2t-62.5 -3l14 57l201 27l303 1130l-186 29 l14 53h465q59 0 128 -9t126 -36.5t95 -80t38 -138.5q0 -92 -39 -164.5t-102.5 -123t-143 -76t-161.5 -23.5v-4q70 -23 112.5 -97.5t85.5 -168.5q20 -45 39 -88t37 -84q20 -49 35.5 -75t33 -40t43 -19.5t68.5 -11.5zM944 1081q0 88 -50 129t-134 41h-27l-121 -20l-153 -572 q16 -2 35.5 -3t35.5 -1q104 0 175 30t118 77q37 37 60.5 80t37 86t18.5 82.5t5 70.5z" />
<glyph unicode="S" horiz-adv-x="1013" d="M983 936h-45q2 98 -22.5 161.5t-64.5 101.5t-88 53.5t-95 15.5q-100 0 -170 -54.5t-70 -169.5q0 -66 28.5 -119t72.5 -100t96.5 -91t99.5 -91q59 -59 103 -131t44 -160q0 -84 -34.5 -153.5t-97 -118.5t-148.5 -77t-186 -28q-68 0 -124.5 14.5t-98.5 33t-69.5 36 t-37.5 23.5l-45 -59h-47l75 372h41q2 -41 14.5 -102.5t46.5 -119.5t94 -100t159 -42q59 0 113.5 17.5t95.5 51t65.5 80.5t24.5 107q0 57 -25.5 105t-66.5 93t-90.5 88t-96.5 91q-33 31 -62.5 63.5t-52 69.5t-36 79t-13.5 93q0 100 39 167.5t97.5 107.5t128 57.5t133.5 17.5 q57 0 106 -10.5t89 -23.5t69 -28.5t47 -27.5l25 47h43z" />
<glyph unicode="T" horiz-adv-x="1277" d="M1360 983h-60l-8 227q-2 23 -9 28t-30 5h-319l-311 -1161l215 -27l-13 -57q-25 2 -65.5 3t-86.5 2t-89 1h-131q-41 0 -85 -1t-85 -2t-68 -3l16 57l218 27l311 1161h-336q-23 0 -34 -5t-28 -28l-161 -227h-60l154 381h55l35 -55q8 -12 17.5 -13.5t31.5 -1.5h842q23 0 33 1 t26 14l70 55h55z" />
<glyph unicode="U" horiz-adv-x="1353" d="M1520 1239l-183 -27l-184 -684q-35 -135 -87 -230t-126 -167q-78 -74 -177 -115t-241 -41q-182 0 -271 91.5t-89 234.5q0 53 9 106.5t30 127.5l182 677l-182 27l14 57q25 -2 61.5 -3t76.5 -2t77 -1h125q39 0 78 1t77 2t62 3l-14 -57l-199 -27l-186 -688 q-12 -47 -21.5 -100t-9.5 -105q0 -41 11.5 -85t41 -78.5t80.5 -57t129 -22.5q109 0 191 37t143 102q53 59 93 137t75 209l174 651l-193 27l15 57q47 -4 113.5 -5t115.5 -1q100 0 203 6z" />
<glyph unicode="V" horiz-adv-x="1150" d="M1350 1239l-158 -27l-758 -1261h-22l-101 1261l-149 27l14 57q47 -4 110.5 -5t112.5 -1h62q39 0 79 1t76.5 2t63.5 3l-14 -57l-191 -27l53 -706q4 -43 6.5 -90t6.5 -86q4 -47 6 -90h2q16 29 35 61q16 27 35.5 59.5t37.5 63.5l471 788l-186 27l14 57q47 -4 115 -5t117 -1 q53 0 89 1t87 5z" />
<glyph unicode="W" horiz-adv-x="1564" d="M1761 1239l-157 -27l-756 -1261h-23l-47 573l-344 -573h-22l-101 1261l-149 27l14 57q47 -4 110.5 -5t112.5 -1h869q14 0 26.5 1t27.5 2t40 3l-14 -57l-117 -27l-305 -507l14 -199q4 -43 6 -90t6 -88q4 -47 9 -90h2q16 29 34 61q16 29 36 61.5t38 63.5l471 788l-125 27 l15 57q47 -4 83.5 -5t86.5 -1q51 0 86.5 1t89.5 5zM723 1212l-109 21l-139 -21l53 -706q4 -43 6.5 -90t6.5 -86q4 -47 6 -90h2q16 31 35 61q16 27 34.5 58.5t38.5 64.5l115 188zM1030 1233l-143 -21l20 -270q2 -31 4 -58.5t4 -49.5q2 -25 3 -48h2q12 25 26 50q12 23 25.5 46 t27.5 46l168 284z" />
<glyph unicode="X" horiz-adv-x="1267" d="M1444 1239l-176 -25l-531 -542l248 -592l166 -25l-14 -57q-47 4 -114 5t-116 1h-67q-43 0 -88 -1t-88 -2t-68 -3l16 57l185 25l-197 485l-475 -485l194 -25l-16 -57q-25 2 -58.5 3t-69.5 2t-71 1h-57q-51 0 -87 -1t-87 -5l16 57l164 25l529 538l-242 596l-154 25l17 57 q25 -2 57.5 -3t68.5 -2t68 -1h119q35 0 71 1t70.5 2t59.5 3l-15 -57l-174 -25l187 -489l479 489l-195 25l17 57q25 -2 59.5 -3t71.5 -2t72 -1h59q53 0 91 1t91 5z" />
<glyph unicode="Y" horiz-adv-x="1097" d="M1300 1239l-135 -27l-520 -624l-135 -506l188 -27l-16 -57q-25 2 -59.5 3t-71.5 2t-74 1h-125q-41 0 -84 -1t-83 -2t-64 -3l16 57l197 27l141 520l-145 610l-144 27l15 57q25 -2 54.5 -3t61 -2t62.5 -1h117q39 0 79.5 1t78.5 2t65 3l-17 -57l-196 -27l133 -557l459 557 l-195 27l17 57q25 -2 56.5 -3t65 -2t64.5 -1h98q18 0 34.5 1t34 2t44.5 3z" />
<glyph unicode="Z" horiz-adv-x="1210" d="M1335 1251l-1030 -1034l-59 -59q-31 -31 -56 -54q-29 -29 -57 -53v-2h84q35 0 76 1t72 1h313q35 0 59.5 4t50 19.5t60.5 46.5t88 84q12 10 17 16t16.5 17.5t34 35t65.5 68.5h45l-143 -342h-1059v41l1067 1071q20 23 44 44.5t44 41.5q23 23 47 45v2q-27 -2 -55 -2h-410 q-35 0 -59.5 -4t-50 -19.5t-59.5 -46t-89 -83.5l-131 -138h-45l141 342h979v-43z" />
<glyph unicode="[" horiz-adv-x="587" d="M791 1341h-308l-467 -1738h308l-13 -47h-411l491 1837h412z" />
<glyph unicode="\" horiz-adv-x="1099" d="M270 1393h88l531 -1543h-90z" />
<glyph unicode="]" horiz-adv-x="587" d="M172 -444h-412l13 47h307l467 1738h-307l12 52h412z" />
<glyph unicode="^" horiz-adv-x="948" d="M928 682l-2 -4h-90l-177 571l-466 -571h-99l-2 4l592 713h21z" />
<glyph unicode="_" horiz-adv-x="1462" d="M1042 -244h-1036l25 86h1036z" />
<glyph unicode="`" horiz-adv-x="540" d="M399 1047l-249 206q-10 10 -29 30t-19 48q0 23 16.5 37t39.5 14q29 0 45 -13t33 -34l22 -32l180 -256h-39z" />
<glyph unicode="a" horiz-adv-x="858" d="M600 334q-6 -16 -15.5 -43t-18.5 -55.5t-15 -55t-6 -41.5q0 -35 22 -35q18 0 45 19.5t53.5 48.5t51 60.5t41.5 54.5l41 -29q-18 -27 -50 -74t-73 -93t-91 -81t-102 -35q-41 0 -57 28t-16 69q0 39 12 85t28.5 90t32 79.5t21.5 52.5h-6q-12 -23 -30.5 -58.5t-43.5 -76.5 t-55.5 -85t-67.5 -81q-43 -45 -94 -74t-105 -29q-66 0 -90 40t-24 98q0 80 22.5 163.5t60.5 163.5t88 152t105 127q76 78 152 122t125 44q51 0 73.5 -19.5t38.5 -42.5h2l41 95q27 10 58.5 9t48.5 -18zM608 715q-16 33 -42.5 55.5t-76.5 22.5q-70 0 -133 -62.5t-112 -153 t-78 -189.5t-29 -171q-4 -109 62 -108q45 0 91 42t91 106.5t85 141t71 144.5z" />
<glyph unicode="b" horiz-adv-x="841" d="M819 754q0 -68 -22.5 -145t-61.5 -152.5t-91 -147t-112 -129.5q-92 -92 -195.5 -148.5t-201.5 -56.5q-45 0 -72.5 9.5t-45 21.5t-26.5 26.5t-16 24.5l398 1215l-148 41l19 53q61 4 129.5 12t142.5 17l25 -37l-201 -590q-23 -68 -45.5 -130.5t-38.5 -111.5 q-20 -57 -39 -108l4 -2q37 76 104.5 172t159.5 180q53 53 113.5 85t116.5 32q57 0 80.5 -36t23.5 -95zM670 680q0 27 -11.5 47.5t-40.5 20.5q-41 0 -88 -34t-93 -80t-85 -94t-59 -77q-23 -33 -51.5 -80t-53 -97t-41 -100.5t-16.5 -91.5q0 -27 10.5 -47t38.5 -20 q39 0 88 33.5t95.5 79.5t85 94.5t59.5 76.5q23 33 51.5 79t53 97.5t41 101.5t16.5 91z" />
<glyph unicode="c" horiz-adv-x="634" d="M657 774q0 -41 -22.5 -69.5t-63.5 -28.5q-18 0 -29.5 4t-19.5 8l-37 156q-41 -10 -80.5 -48t-74.5 -84t-61.5 -94.5t-41.5 -78.5q-31 -68 -54 -148t-23 -153q0 -23 4 -47.5t13 -47t26.5 -37t46.5 -14.5q45 0 90 37t86 90l37 -31q-20 -35 -50 -71.5t-66 -68.5t-78 -52.5 t-85 -20.5q-49 0 -81 18.5t-51 49.5t-26.5 69t-7.5 78q0 109 41 231t110.5 225.5t161 171t193.5 67.5q70 0 106.5 -33t36.5 -78z" />
<glyph unicode="d" horiz-adv-x="860" d="M600 334q-6 -16 -15.5 -43t-18.5 -55.5t-15 -55t-6 -41.5q0 -35 22 -35q18 0 45 19.5t53.5 48.5t51 60.5t41.5 54.5l41 -29q-18 -27 -50 -74t-73 -93t-91 -81t-102 -35q-41 0 -57 28t-16 69q0 39 12 85t28.5 90t32 79.5t21.5 52.5h-6q-12 -23 -30.5 -58.5t-43.5 -76.5 t-55.5 -85t-67.5 -81q-43 -45 -94 -74t-105 -29q-66 0 -90 40t-24 98q0 80 22.5 163.5t61.5 163.5t88 152t104 127q76 78 152 122t125 44q41 0 62.5 -13.5t35.5 -31.5l143 432l-149 41l18 53q63 4 130 11t143 18l24 -37zM608 715q-16 33 -42.5 55.5t-76.5 22.5 q-70 0 -133 -62.5t-112 -153t-78 -189.5t-29 -171q0 -109 62 -108q45 0 91 42t91 106.5t85 141t71 144.5z" />
<glyph unicode="e" horiz-adv-x="663" d="M645 731q0 -47 -16.5 -93t-43 -83t-61.5 -60.5t-73 -25.5l-252 -8q-25 -61 -37 -117.5t-12 -103.5q0 -23 3 -48.5t12 -49t27.5 -39t49.5 -15.5q51 0 111.5 40t115.5 114l35 -27q-70 -113 -162 -176.5t-178 -63.5q-45 0 -75 20.5t-48 52.5t-25.5 72t-7.5 79q0 78 25.5 172 t79.5 190q27 49 66.5 105.5t89.5 104.5t108.5 81t120.5 33q72 0 109.5 -42t37.5 -112zM561 762q0 31 -12 50t-37 19q-29 0 -66.5 -24.5t-75.5 -66.5t-76 -97t-67 -115l-18 -43l180 50q43 12 75 38.5t53.5 58.5t32.5 66.5t11 63.5z" />
<glyph unicode="f" horiz-adv-x="548" d="M946 1257q0 -43 -23.5 -64.5t-56.5 -21.5q-25 0 -43 13l-112 166q-29 0 -47.5 -11.5t-34.5 -27.5q-37 -39 -70 -103.5t-57.5 -133t-41 -128t-22.5 -88.5l-6 -29h182l-16 -57h-180l-199 -807q-57 -233 -168 -340q-43 -43 -98 -67.5t-123 -24.5q-78 0 -123 35t-45 94 q0 47 25.5 68.5t52.5 21.5q23 0 41 -12l84 -164h8q41 0 72 31q33 33 58.5 87t45 112.5t30.5 109.5t17 76l176 780h-194l18 57h189q37 160 92 271.5t125 181.5q111 111 248 111q98 0 147 -42.5t49 -93.5z" />
<glyph unicode="g" horiz-adv-x="727" d="M776 825q0 -39 -24.5 -54t-53.5 -15l-102 35l-33 -13q37 -61 37 -141q0 -59 -21.5 -126t-60.5 -122t-93 -91t-122 -36q-43 0 -82 17q-10 -10 -18 -29t-8 -43q0 -31 18 -52.5t50 -37t73 -30.5t84 -34q47 -20 92 -42.5t80 -51.5t56.5 -66.5t21.5 -89.5q0 -68 -32 -118 t-84 -82.5t-120.5 -49t-142.5 -16.5q-80 0 -156 14.5t-136 44t-96 75.5t-36 112q0 59 36 100t85 66.5t102 38t88 16.5v4q-47 23 -73.5 56.5t-26.5 78.5q0 57 39 94t80 54q-53 35 -82 91t-29 130q0 59 21.5 126t60.5 122t93 91t122 36q53 0 93 -22.5t69 -57.5q55 37 95 57.5 t73 20.5q31 0 47 -16.5t16 -43.5zM487 727q0 14 -2 32.5t-9 34t-19.5 25.5t-30.5 10q-31 0 -60.5 -23.5t-55 -57t-45 -68.5t-29.5 -59q-20 -45 -35 -97.5t-15 -101.5q0 -14 2 -32.5t9.5 -34t18.5 -26t30 -10.5q31 0 60.5 24t56 57.5t46 68.5t29.5 59q20 47 34.5 98.5 t14.5 100.5zM543 -240q0 59 -36 87t-106 59l-18 8q-23 10 -49.5 21.5t-50.5 21.5q-29 12 -58 27q-31 -4 -71.5 -16.5t-77.5 -33t-62.5 -51t-25.5 -71.5q0 -43 24.5 -82t68.5 -70t105.5 -49.5t135.5 -18.5q61 0 103 14.5t68.5 39t38 54t11.5 60.5z" />
<glyph unicode="h" horiz-adv-x="839" d="M784 721q0 -117 -37.5 -248t-100 -241.5t-144.5 -183.5t-168 -73q-47 0 -81 25t-34 76q0 47 23.5 69.5t52.5 22.5q18 0 33.5 -10.5t21.5 -30.5l-8 -123q35 0 68.5 28.5t63.5 75t56.5 105.5t47.5 119q29 80 44 159.5t15 141.5q0 41 -6 65.5t-13.5 38t-15.5 17.5t-14 4 q-33 0 -73 -31t-80 -80t-79 -110.5t-72.5 -123t-61 -116.5t-44.5 -92q-6 -12 -14 -30.5t-17.5 -38t-17.5 -38t-12 -30.5l-33 -86q-25 -6 -45 -7q-47 0 -72 41l414 1256l-148 41l19 53q59 4 119.5 11t152.5 18l25 -37l-184 -541q-29 -84 -57.5 -165t-51.5 -146 q-27 -76 -53 -146h4q35 70 88 161t116.5 172t133 136.5t139.5 55.5q43 0 71.5 -40t28.5 -124z" />
<glyph unicode="i" horiz-adv-x="518" d="M438 244l-6 -11q-2 -6 -6 -12q-6 -8 -10 -14q-20 -31 -53 -71t-74 -75.5t-88 -60.5t-97 -25q-43 0 -60 19.5t-17 46.5q0 29 15 70t32 82l192 485q4 10 10.5 28.5t6.5 34.5q0 12 -5.5 22.5t-21.5 10.5q-41 0 -79 -42t-77 -107l-8 -15l-37 23l11 22q23 49 53.5 91t65 73 t73.5 48.5t78 17.5q59 0 78.5 -25.5t19.5 -54.5q0 -31 -12 -69t-29 -79l-186 -460q-6 -16 -10 -30.5t-4 -27.5q0 -12 6 -21t20 -9q16 0 39 14t46.5 35.5t45 46t37.5 45.5l14 18zM590 1286q0 -39 -27.5 -66.5t-66.5 -27.5t-66 27.5t-27 66.5t27 65.5t66 26.5t66.5 -26.5 t27.5 -65.5z" />
<glyph unicode="j" horiz-adv-x="479" d="M555 1286q0 -39 -26.5 -66.5t-65.5 -27.5t-65.5 27.5t-26.5 66.5t26.5 65.5t65.5 26.5t65.5 -26.5t26.5 -65.5zM422 803q0 -33 -9.5 -71t-19.5 -66l-141 -461q-31 -100 -60.5 -172t-59.5 -125t-61.5 -93t-66.5 -75q-104 -104 -215 -151.5t-197 -47.5q-66 0 -96.5 25.5 t-30.5 68.5q0 39 21.5 59.5t50.5 20.5q27 0 41 -14l60 -115q61 8 118.5 40t104.5 81q92 94 148.5 218t109.5 292l143 461q4 10 9 28.5t5 34.5q0 33 -26 33q-45 0 -88 -53t-76 -115l-8 -18l-39 24q0 4 4 13l4 8q23 45 51.5 90t64.5 81t78 58.5t91 22.5q53 0 71.5 -25.5 t18.5 -56.5z" />
<glyph unicode="k" horiz-adv-x="843" d="M815 813q0 -31 -22.5 -56.5t-63.5 -25.5l-88 45q-8 0 -26.5 -22.5t-41 -54t-46 -64.5t-42.5 -53q-29 -29 -58.5 -46.5t-74.5 -19.5v-2q45 -4 77 -17.5t48 -29.5q27 -25 38 -63.5t20 -100.5l14 -104q4 -39 11 -74t28 -35q23 0 51.5 48t54.5 126l43 -12l-4 -16 q-16 -63 -42.5 -120t-61.5 -91q-23 -23 -46.5 -36.5t-52.5 -13.5q-51 0 -72.5 36t-33.5 134t-23.5 173t-23.5 110q-12 37 -39 54.5t-74 21.5l-168 -522q-25 -6 -47 -7q-57 0 -82 41l414 1256l-148 41l19 53q59 4 119.5 11t152.5 18l25 -37q-27 -80 -57 -170 q-27 -78 -60 -174t-65 -197l-91 -274h27q35 0 64.5 11t64.5 44q27 27 50.5 58.5t45 63.5t43 61.5t43.5 52.5q23 23 50.5 37t60.5 14q47 0 68.5 -21.5t21.5 -50.5z" />
<glyph unicode="l" horiz-adv-x="485" d="M174 207q-4 -16 -10 -35.5t-6 -32.5q0 -29 26 -28q18 0 47 21.5t57.5 50t55.5 60t41 52.5l10 12l37 -26l-6 -11q-2 -6 -6 -12q-6 -8 -10 -14q-23 -35 -59 -81t-82 -87t-98 -71t-108 -30q-29 0 -48 15.5t-19 48.5q0 35 14.5 77t24.5 77l360 1079l-147 41l16 53q29 2 66 5 t74.5 7t72.5 8.5t62 8.5l22 -37z" />
<glyph unicode="m" horiz-adv-x="1370" d="M1276 229q-14 -23 -43 -64.5t-67 -83.5t-86 -74t-99 -32q-47 0 -64.5 21.5t-17.5 50.5t10.5 61.5t28.5 84.5l168 460q14 39 14 66q0 37 -33 37q-47 0 -107 -65.5t-117.5 -156t-105.5 -182.5t-73 -147q-12 -25 -32.5 -69t-30.5 -68l-31 -82q-18 -8 -43 -9q-55 0 -78 43 l211 633q6 18 10 35t4 31q0 37 -32 37q-47 0 -106.5 -65.5t-116 -156t-103.5 -182.5t-72 -147q-12 -25 -32.5 -69t-30.5 -68l-31 -82q-25 -6 -45 -6q-53 0 -76 40l191 623q10 35 17 58.5t7 41.5q0 12 -5 24.5t-28 12.5q-25 0 -48 -16t-42.5 -40t-35 -49.5t-25.5 -43.5 l-37 16q14 41 41 83t60.5 77t75.5 56.5t89 21.5t67.5 -24.5t20.5 -57.5q0 -23 -6 -48.5t-16 -62.5l-117 -377h8q20 51 53 114t72 126t80 120.5t80 98.5q53 55 101 83t98 28q47 0 66.5 -30t19.5 -69q0 -29 -7.5 -60.5t-29.5 -92.5l-121 -318h8q20 51 54 114t74 126t82 120.5 t81 98.5q53 55 101 83t102 28q51 0 72.5 -31t21.5 -72q0 -23 -7 -55.5t-28 -85.5l-168 -442q-16 -45 -16 -70q0 -27 22 -27q16 0 39 17.5t45.5 42t43 50.5t32.5 42z" />
<glyph unicode="n" horiz-adv-x="950" d="M848 217q-16 -27 -45 -67.5t-66 -79.5t-82 -67t-94 -28q-47 0 -64.5 21.5t-17.5 50.5t10.5 61.5t28.5 84.5l168 460q14 39 14 66q0 37 -32 37q-47 0 -107.5 -65.5t-118 -156t-105.5 -182.5t-73 -147q-12 -25 -32.5 -69t-30.5 -68l-31 -82q-25 -6 -45 -6q-53 0 -76 40 l191 623q10 35 17 58.5t7 41.5q0 12 -5 24.5t-28 12.5q-25 0 -48 -16t-42.5 -40t-35 -49.5t-25.5 -43.5l-37 16q14 41 41 83t60.5 77t75.5 56.5t89 21.5t67.5 -24.5t20.5 -57.5q0 -23 -6 -48.5t-16 -62.5l-117 -377h8q20 51 54 114t74 126t82 120.5t81 98.5q55 57 102.5 84 t100.5 27q51 0 72.5 -31t21.5 -72q0 -23 -7 -55.5t-28 -85.5l-168 -444q-16 -45 -16 -70q0 -27 22 -27q16 0 39 17.5t45.5 42t43 50.5t32.5 42l39 -23z" />
<glyph unicode="o" horiz-adv-x="761" d="M690 598q0 -74 -18.5 -147.5t-48.5 -141.5q-25 -53 -63 -112.5t-87 -109.5t-107.5 -83t-123.5 -33q-59 0 -100.5 26t-68 67.5t-37.5 93t-11 100.5q0 76 18 148.5t47 140.5q25 53 64 112.5t88 109.5t107.5 83t123.5 33q57 0 99 -25.5t68 -66.5t38 -92.5t12 -102.5z M592 694q0 18 -3 40t-12.5 40.5t-23.5 29.5t-39 11q-43 0 -89 -36t-87 -86t-74 -103t-49 -86q-35 -72 -66.5 -162t-31.5 -170q0 -18 3 -39.5t11 -39t22.5 -30t39.5 -12.5q45 0 91 36t87 86t73.5 103.5t49.5 85.5q37 72 67.5 162t30.5 170z" />
<glyph unicode="p" horiz-adv-x="831" d="M774 653q0 -121 -49 -241.5t-131 -218t-189.5 -158t-222.5 -60.5q-14 0 -18 1t-12 1l-109 -350l186 -18l-16 -55q-25 2 -59.5 3t-71.5 2t-72 1h-59q-100 0 -201 -6l17 55l137 18l358 1135q-25 -8 -52.5 -20.5t-55 -28t-52 -31.5t-41.5 -29l-10 9l62 112l166 41l67 221 q10 4 27.5 9.5t38 7.5t40 -1t33.5 -14l-57 -182v-4q8 4 51 18.5t99 14.5q39 0 73.5 -14.5t62 -44t44 -73t16.5 -100.5zM623 610q0 61 -14.5 99.5t-36 61t-48 30.5t-49.5 8q-29 0 -41 -3t-22 -7l-244 -774q8 -2 22 -2q57 0 111.5 29.5t102 78.5t88 111.5t69.5 128t45.5 128 t16.5 111.5z" />
<glyph unicode="q" horiz-adv-x="796" d="M375 -373l184 -18l-16 -55q-25 2 -59.5 3t-71.5 2t-74 1h-59q-53 0 -100.5 -1t-98.5 -5l16 55l140 18l116 328l150 424h-4q-12 -23 -30.5 -58.5t-43.5 -76.5t-55.5 -85t-67.5 -81q-43 -45 -94 -74t-105 -29q-66 0 -90 40t-24 98q0 80 22.5 163.5t61.5 163.5t88 152 t104 127q76 78 152 122t125 44q51 0 73.5 -19.5t38.5 -42.5h2l41 95q27 10 58.5 9t48.5 -18zM608 715q-16 33 -42.5 55.5t-76.5 22.5q-70 0 -133 -62.5t-112 -153t-78 -189.5t-29 -171q0 -109 62 -108q45 0 91 42t91 106.5t85 141t71 144.5z" />
<glyph unicode="r" horiz-adv-x="708" d="M758 791q0 -49 -26.5 -77t-61.5 -28q-27 0 -41 10l-41 95q-29 0 -65 -43t-72.5 -111t-74.5 -151t-71 -163.5t-59.5 -149.5t-40.5 -105l-35 -82q-25 -6 -45 -6q-47 0 -74 38l180 644q6 25 11.5 44t5.5 35q0 35 -27 35q-23 0 -42 -15.5t-36.5 -37t-34 -48t-28.5 -46.5 l-37 20q12 29 35.5 69t56.5 76.5t75 63.5t91 27q43 0 60.5 -22.5t17.5 -55.5q0 -29 -8.5 -62.5t-20.5 -74.5l-164 -514l4 -2q27 63 58 142t64.5 161t72.5 158.5t81 136t90 96.5t103 37q37 0 68 -22.5t31 -71.5z" />
<glyph unicode="s" horiz-adv-x="548" d="M543 780q0 -47 -24.5 -64.5t-53.5 -17.5q-12 0 -24.5 3.5t-18.5 9.5l-76 127q-31 0 -67.5 -35t-36.5 -96q0 -53 19.5 -94.5t47.5 -90.5l8 -14q29 -49 52.5 -102.5t23.5 -120.5q0 -82 -28.5 -140.5t-70.5 -96.5t-91 -55.5t-90 -17.5q-70 0 -119 30t-49 87q0 41 25.5 60.5 t54.5 19.5q39 0 59 -31l51 -129q16 0 41 11.5t47.5 33t37.5 54t15 75.5q0 59 -23.5 107.5t-49.5 101.5l-6 13q-25 51 -46.5 98t-21.5 100q0 61 22.5 112.5t59.5 88.5t83 57.5t93 20.5q78 0 117 -31t39 -74z" />
<glyph unicode="t" horiz-adv-x="526" d="M571 772h-163l-224 -559q-20 -55 -20 -78q0 -27 29 -26q14 0 36.5 14t46 34.5t46 45t38.5 47.5l13 16l37 -26l-23 -35q-20 -31 -52 -71t-73 -74.5t-88 -59.5t-98 -25q-41 0 -59.5 17.5t-18.5 44.5t13.5 66.5t25.5 72.5l233 596h-155l24 57h154l82 205q10 8 32.5 13.5 t45.5 5.5q39 0 61 -17l-84 -207h164z" />
<glyph unicode="u" horiz-adv-x="919" d="M809 745l-186 -552q-6 -18 -10.5 -33t-4.5 -27q0 -29 25 -29q18 0 41.5 15.5t45 37t41 44t32.5 39.5l32 -29q-29 -45 -61.5 -88t-69.5 -76t-75.5 -52.5t-81.5 -19.5q-45 0 -63.5 20.5t-18.5 51.5q0 23 9 52.5t19 56.5l150 391l-4 2q-25 -47 -59.5 -109.5t-75.5 -127 t-86.5 -126t-88.5 -106.5q-47 -47 -91 -76t-91 -29q-53 0 -77.5 27t-24.5 61q0 31 11 68t24 70l180 456q6 16 11 32t5 28q0 16 -7 22t-17 6q-18 0 -41 -14t-44.5 -35.5t-42 -45t-32.5 -42.5l-35 31q2 4 4 9t6 9l9 13q20 31 54 67.5t75 69.5t84 55.5t83 22.5q41 0 55.5 -19.5 t14.5 -48.5q0 -23 -8 -51.5t-18 -52.5l-205 -512q-10 -27 -13.5 -39t-3.5 -23q0 -12 7.5 -24.5t29.5 -12.5q29 0 67 31t79 80t80.5 109.5t75.5 120t62.5 111.5t41.5 83q27 55 49 118.5t45 121.5q47 10 75.5 0.5t45.5 -35.5z" />
<glyph unicode="v" horiz-adv-x="1015" d="M958 752q0 -158 -40.5 -299.5t-109.5 -248t-159 -168t-188 -61.5q-106 0 -158.5 53.5t-52.5 141.5q0 72 36 151.5t85 155.5t101 137.5t85 96.5l-2 2q-16 -4 -43 -7.5t-55 -3.5q-66 0 -122 7.5t-100.5 16.5t-73 16.5t-38.5 7.5q-27 0 -40 -18.5t-13 -37.5v-12l102 -123 q-6 -29 -28.5 -49.5t-57.5 -20.5q-41 0 -70.5 26t-29.5 83q0 27 10 53.5t24.5 50t28.5 42t25 28.5l106 115q49 -14 135 -32.5t181 -18.5q63 0 118 12l33 39q2 4 12.5 2t19.5 -7t15 -12.5t2 -13.5q-10 -12 -40.5 -57t-69.5 -105q-33 -49 -66 -104t-59.5 -112.5t-44 -115 t-17.5 -110.5q0 -25 6.5 -49.5t20.5 -44t37.5 -31.5t58.5 -12q80 0 147.5 49t114.5 121.5t74 156.5t27 154l-94 166q-6 14 -7 31q0 35 22.5 63.5t67.5 28.5q31 0 47.5 -13.5t24.5 -34t10 -43t2 -42.5z" />
<glyph unicode="w" horiz-adv-x="1388" d="M1149 762q-6 14 -6 31q0 35 22.5 63.5t67.5 28.5q31 0 47 -13.5t24.5 -35t10.5 -46t2 -45.5q0 -63 -10.5 -145t-31 -168t-53 -168t-76.5 -146.5t-101.5 -103.5t-126.5 -39q-53 0 -90 21.5t-58.5 53.5t-32 67t-12.5 63h-4q-16 -31 -43 -66.5t-61.5 -66.5t-78.5 -51.5 t-94 -20.5q-88 0 -141 52.5t-53 146.5q0 70 37 151t87 155.5t101 137t82 93.5l-2 2q-16 -4 -43 -7.5t-55 -3.5q-66 0 -122 7.5t-100.5 16.5t-73 16.5t-38.5 7.5q-29 0 -41 -19.5t-12 -38.5v-10l102 -123q-6 -29 -28.5 -49.5t-57.5 -20.5q-41 0 -70.5 26t-29.5 83 q0 27 10 53.5t24.5 50t28.5 42t25 28.5l106 115q49 -14 135 -32.5t181 -18.5q63 0 118 12l33 39q2 4 12.5 2t19.5 -7t15 -12.5t2 -13.5q-10 -12 -40.5 -57t-69.5 -105q-33 -49 -66 -104t-59.5 -112.5t-44 -115t-17.5 -110.5q0 -25 6.5 -49.5t20.5 -44t37.5 -31.5t58.5 -12 q55 0 112.5 35.5t82.5 82.5q0 92 28.5 205t69.5 212.5t85 167t75 67.5q20 0 20 -39q0 -35 -15 -95.5t-42 -133t-60.5 -148.5t-70.5 -141v-6q-4 -35 5 -72t28.5 -66.5t51.5 -49t75 -19.5q68 0 120 53t87.5 128t55 157t23.5 139z" />
<glyph unicode="x" horiz-adv-x="827" d="M795 872q0 -6 1 -13t1 -11q0 -45 -9.5 -98.5t-23.5 -103.5t-29.5 -90t-27.5 -58h-33l4 221l-217 -275l35 -206q2 -16 7 -39t12 -43.5t19.5 -33.5t28.5 -13q18 0 31.5 14t23 35.5t14.5 46t9 43.5l41 -2q-2 -29 -12.5 -75t-31 -89t-53 -75t-77.5 -32q-41 0 -66 29 q-31 31 -45 82t-24 107l-31 165l-322 -383h-36v21q0 49 11 107.5t27.5 110.5t34 95t29.5 62h31l-15 -230l232 271l-31 168q-4 16 -8 43.5t-12.5 54.5t-20.5 46t-33 19q-18 0 -33.5 -19t-25.5 -47t-17.5 -60.5t-9.5 -59.5l-34 4q-2 10 -3 21v22q0 41 10.5 90t30 91t50 71 t73.5 29q47 0 80 -33q37 -41 51.5 -104.5t24.5 -118.5l25 -133l307 389h37v-13z" />
<glyph unicode="y" horiz-adv-x="813" d="M823 797q0 -53 -34.5 -128t-110.5 -177q-39 -53 -93.5 -120t-115.5 -136.5t-123.5 -136t-120.5 -119.5q-35 -72 -70.5 -146t-82.5 -139q-117 -162 -240 -162q-59 0 -90 27.5t-31 68.5q0 39 21.5 58.5t50.5 19.5q27 0 43 -14l59 -115q25 2 55.5 34t63.5 85t64.5 123.5 t58.5 150.5q31 90 57.5 200t48.5 237q10 70 15.5 117.5t5.5 103.5q0 66 -12.5 103.5t-34.5 37.5q-18 0 -39 -19.5t-39 -47t-34.5 -55t-24.5 -46.5l-37 14q14 41 40.5 88.5t60.5 87t74 66.5t81 27q57 0 78.5 -56.5t21.5 -154.5q0 -160 -41 -322t-100 -291l2 -2 q55 55 121.5 131t129 155t114 153.5t75.5 130.5l-45 147v10q0 37 22.5 68t73.5 31q35 0 58.5 -22.5t23.5 -65.5z" />
<glyph unicode="z" horiz-adv-x="841" d="M803 836q-18 -35 -60.5 -76t-85.5 -84l-464 -463v-2q10 4 20 6t29 2q53 0 104 -26.5t96 -57.5l86 -57q41 -27 72 -27q37 0 59.5 27.5t16.5 50.5l-84 98q-6 31 17.5 55.5t58.5 24.5t62.5 -23.5t27.5 -76.5q0 -43 -24.5 -86t-55.5 -74q-27 -27 -69 -49.5t-107 -22.5 q-61 0 -118.5 28t-107 59.5t-89.5 59.5t-66 28q-23 0 -29 -11.5t-10 -17.5l22 -82q-2 -23 -20 -43.5t-53 -20.5q-33 0 -49.5 17.5t-16.5 42.5q0 35 31 67.5t55 57.5l553 536v2q-16 -8 -37 -8q-35 0 -71.5 15.5t-72.5 34t-70 33.5t-62 15q-55 0 -75.5 -25.5t-25.5 -39.5 l46 -119q0 -27 -18.5 -44t-47.5 -17q-35 0 -57.5 22.5t-22.5 63.5q0 49 34 88t69 71q41 39 80.5 68t95.5 29q35 0 74.5 -16.5t76.5 -36t70 -36t51 -16.5q14 0 25.5 10.5t20.5 24.5t15.5 29.5t12.5 25.5l8 17q6 8 21.5 4t29.5 -13.5t23.5 -21.5t5.5 -20z" />
<glyph unicode="{" horiz-adv-x="583" d="M94 549q121 -41 167 -105.5t46 -138.5q0 -63 -19.5 -117.5t-43.5 -111.5l-23 -53q-29 -66 -59.5 -139.5t-30.5 -131.5q0 -55 38 -97t142 -42l-10 -45h-12q-76 0 -127 21.5t-83 56.5t-46.5 82t-14.5 100q0 84 31 158.5t60 144.5l20 47q23 49 40 93t17 91t-38.5 96.5 t-141.5 71.5l14 58q86 8 139.5 27.5t85 55.5t46 88t22.5 126l11 84q12 104 37.5 185t74.5 135t125 83t191 29q10 0 19 -1t20 -1l-15 -47h-35q-86 0 -134 -26t-73.5 -69t-36 -100t-18.5 -121l-8 -63q-14 -113 -35.5 -186.5t-63.5 -121t-107.5 -72t-168.5 -36.5z" />
<glyph unicode="|" horiz-adv-x="403" d="M-12 -444h-88l491 1837h88z" />
<glyph unicode="}" horiz-adv-x="581" d="M475 444q-121 41 -167 104.5t-46 137.5q0 63 19.5 117.5t44.5 111.5l22 54q29 66 55.5 128t26.5 120q0 55 -38 97t-142 42l10 45h12q76 0 127.5 -21.5t83 -56.5t46 -83t14.5 -99q0 -84 -27 -147.5t-55 -133.5l-21 -47q-23 -49 -40 -93t-17 -91t39 -96.5t141 -71.5 l-14 -58q-86 -8 -140.5 -27.5t-87 -55t-48 -88t-23.5 -126.5l-12 -106q-12 -104 -38 -185t-75 -135.5t-126 -83t-189 -28.5q-10 0 -19.5 1t-19.5 1l14 45h35q86 0 134 25.5t73.5 68.5t36 100.5t18.5 122.5l10 86q14 113 37 188t66 122t109.5 71.5t168.5 36.5z" />
<glyph unicode="~" horiz-adv-x="1216" d="M547 641q-59 25 -114.5 43t-96.5 18q-43 0 -75 -16t-55.5 -43t-36.5 -62.5t-19 -72.5l-31 2v14q0 53 15.5 103.5t45 90.5t75.5 63.5t107 23.5q53 0 119 -20.5t144 -53.5l129 -57q59 -27 114.5 -44.5t96.5 -17.5q43 0 73.5 16.5t52 43t34 62.5t18.5 73h31v-14 q0 -53 -14.5 -103.5t-42 -89.5t-72 -62.5t-101.5 -23.5q-78 0 -148.5 26.5t-119.5 47.5z" />
<glyph unicode="&#xa1;" horiz-adv-x="434" d="M-92 -317q12 45 45 138t75 207.5t87 235.5t84 221h30q-14 -100 -33.5 -221t-38 -233.5t-36 -204.5t-29.5 -137q-6 -27 -15 -52.5t-24.5 -45t-37 -32t-56.5 -12.5q-31 0 -45 11.5t-18.5 30t0 43t12.5 51.5zM174 786q0 45 32 77t77 32t76.5 -32t31.5 -77t-31.5 -76.5 t-76.5 -31.5t-77 31.5t-32 76.5z" />
<glyph unicode="&#xa2;" horiz-adv-x="706" d="M209 -25h-10q-49 0 -81 18.5t-51.5 49.5t-26.5 69t-7 78q0 96 32.5 204t89 203t132 169t162.5 102l88 332h49l-86 -319q10 2 19 3t20 1q70 0 106.5 -33t36.5 -78q0 -41 -22.5 -69.5t-63.5 -28.5q-18 0 -29.5 4t-19.5 8l-37 156q-12 -4 -23 -8l-196 -740q39 10 77 44 t72 79l37 -31q-16 -29 -39.5 -58.5t-51.5 -57t-59.5 -50t-66.5 -34.5l-90 -344h-49zM174 238q0 -39 13.5 -85.5t54.5 -58.5l186 703q-31 -27 -57.5 -62t-50 -70.5t-41 -68.5t-27.5 -57q-31 -68 -54.5 -147.5t-23.5 -153.5z" />
<glyph unicode="&#xa3;" horiz-adv-x="1234" d="M18 293h242q16 49 47 131t78 192q74 170 144.5 312.5t147.5 246t164 162t195 58.5q92 0 148.5 -35t56.5 -103q0 -47 -26.5 -73.5t-69.5 -26.5q-27 0 -43.5 11.5t-24.5 21.5l-33 145q-4 8 -18 12.5t-31 4.5q-45 0 -81.5 -30t-67.5 -77t-58.5 -105.5t-52.5 -117.5 q-53 -119 -99 -230.5t-91 -222.5l-113 -276h240l-27 -72h-244q-49 -104 -91 -187t-93 -155q35 8 71 15.5t79 7.5q47 0 80.5 -10.5t60.5 -30t50.5 -47t51.5 -60.5l21 -24q35 -41 59.5 -65.5t71.5 -24.5q29 0 54.5 12t45 33.5t30.5 47t11 54.5q0 6 -1 11t-1 9q-2 4 -2 9 l-104 90q-14 20 -15 51q0 39 28 62.5t73 23.5q51 0 84.5 -38t33.5 -103q0 -66 -29.5 -126.5t-78.5 -106.5t-112.5 -73.5t-131.5 -27.5q-59 0 -102 17.5t-74 44t-51.5 57t-36.5 57.5l-6 10q-25 41 -50.5 66.5t-72.5 25.5q-18 0 -31.5 -3t-23.5 -7l-56 -82q-31 -47 -66.5 -89 t-75.5 -70.5t-81 -28.5q-33 0 -49 19.5t-16 47.5q0 33 24.5 66t64.5 63.5t87 55t94 39.5q2 14 14.5 58t28.5 99.5t35.5 111.5t34.5 95h-246z" />
<glyph unicode="&#xa4;" horiz-adv-x="1298" d="M1077 1135l86 -88l-125 -123q27 -35 59.5 -99.5t32.5 -169.5q0 -102 -31.5 -164.5t-58.5 -99.5l123 -125l-86 -86l-125 123q-35 -27 -98 -58.5t-168 -31.5q-104 0 -166.5 31.5t-99.5 58.5l-123 -123l-88 86l125 125q-27 35 -59.5 98.5t-32.5 165.5q0 104 32.5 168 t59.5 101l-125 123l86 88l125 -125q39 27 101.5 58.5t164.5 31.5t165.5 -32t100.5 -58zM686 985q-68 0 -126 -24.5t-103 -68.5t-71 -104.5t-26 -130.5t26 -130t70 -104t103 -69.5t127 -25.5t127 25.5t103.5 69.5t70 104.5t25.5 129.5q0 70 -25.5 130.5t-71 104.5 t-103.5 68.5t-126 24.5z" />
<glyph unicode="&#xa5;" horiz-adv-x="1253" d="M680 451l-98 -369l188 -27l-16 -57q-25 2 -60 3t-71.5 2t-73.5 1h-125q-41 0 -84 -1t-83 -2t-64 -3l16 57l197 27l100 369h-383l16 63h383l25 88l-31 127h-317l16 64h287l-101 419l-143 27l14 57q25 -2 54.5 -3t61.5 -2t63 -1h116q39 0 80 1t79 2t65 3l-17 -57l-196 -27 l133 -557l458 557l-194 27l16 57q25 -2 56.5 -3t65.5 -2t65 -1h98q18 0 34.5 1t34 2t44.5 3l-17 -57l-135 -27l-350 -419h280l-16 -64h-317l-117 -141l-21 -74h396l-17 -63h-395z" />
<glyph unicode="&#xa6;" horiz-adv-x="407" d="M217 719l180 674h82l-180 -674h-82zM-94 -444l178 673h82l-178 -673h-82z" />
<glyph unicode="&#xa7;" horiz-adv-x="946" d="M592 -123q39 39 62.5 101.5t23.5 121.5q0 53 -14.5 106.5t-37 104.5t-51 100.5t-57.5 94.5l-65 102q-35 55 -64 101.5t-48 89.5t-29.5 84t-8.5 86h-8q-35 -53 -55.5 -110.5t-20.5 -123.5q0 -111 46 -205t102 -178l84 -129q59 -92 98 -180t35 -164zM199 -369 q59 0 107 16.5t82 44t51.5 63.5t17.5 75q0 49 -29 107.5t-88 144.5l-41 59q-33 47 -66.5 99.5t-60.5 109t-43 117.5t-16 127q0 141 66.5 282.5t174.5 256.5q100 106 217 170.5t232 64.5q76 0 115.5 -30.5t39.5 -80.5q0 -41 -26.5 -68.5t-73.5 -27.5q-8 0 -16 1t-19 3 l-116 113q-49 2 -96.5 -12.5t-84.5 -43t-58.5 -70.5t-21.5 -97q0 -78 34 -148.5t93 -163.5l50 -73q31 -45 60.5 -91.5t53 -95.5t37.5 -102t14 -113q0 -133 -56 -262t-154 -231q-92 -98 -214 -155.5t-260 -57.5q-78 0 -119.5 31.5t-41.5 84.5q0 45 27.5 74t78.5 29 q8 0 16.5 -1t18.5 -3z" />
<glyph unicode="&#xa8;" horiz-adv-x="677" d="M575 1157q0 -35 -24.5 -59.5t-58.5 -24.5q-35 0 -59.5 24.5t-24.5 59.5t24.5 59.5t59.5 24.5t59 -24.5t24 -59.5zM270 1157q0 -35 -24.5 -59.5t-59.5 -24.5t-59.5 24.5t-24.5 59.5t25 59.5t59 24.5q35 0 59.5 -24.5t24.5 -59.5z" />
<glyph unicode="&#xa9;" horiz-adv-x="1675" d="M1161 301h-31l-8 39q-6 -2 -25.5 -11.5t-48 -18.5t-68.5 -17t-87 -8q-78 0 -150.5 26.5t-128 76.5t-89 126t-33.5 174q0 111 35.5 193t94 135t134 78.5t153.5 25.5q59 0 112.5 -14t96.5 -37l8 39h33l19 -211h-29q-33 100 -98.5 142t-143.5 42q-35 0 -84 -12t-95 -52 t-78 -114t-32 -196q0 -109 28 -182.5t71 -118t93 -63.5t97 -19q98 0 156.5 51t89.5 137h27zM1614 702q0 -152 -57.5 -283.5t-155.5 -230t-230.5 -156t-283.5 -57.5q-152 0 -284 57.5t-230.5 156t-155.5 230.5t-57 283q0 150 57 282t155.5 231.5t230.5 157t284 57.5 t284 -57.5t230 -157t155.5 -231.5t57.5 -282zM1559 702q0 137 -53.5 262.5t-144.5 218.5t-213 148t-261 55t-261 -55t-213 -148t-144.5 -218t-53.5 -263q0 -139 53.5 -263t144.5 -218t213 -148.5t261 -54.5t261 54.5t213 148.5t144.5 218t53.5 263z" />
<glyph unicode="&#xaa;" horiz-adv-x="743" d="M635 940q-4 -12 -11.5 -32.5t-13.5 -42t-11 -40t-5 -30.5q0 -23 14 -23t34 14.5t39 36t38.5 45t32.5 39.5l34 -24q-4 -4 -6 -9q-4 -4 -5 -7t-3 -5q-16 -23 -39.5 -55.5t-53.5 -63t-63.5 -52t-70.5 -21.5q-31 0 -43.5 20.5t-12.5 54.5q0 23 6.5 49.5t15.5 54.5t19.5 53.5 t16.5 43.5q0 2 1 4t1 6q-16 -39 -52 -98t-85 -110q-33 -35 -71 -56.5t-79 -21.5q-51 0 -69.5 30.5t-18.5 75.5q0 59 16.5 123t45 123t66.5 113.5t79 95.5q57 57 112.5 89t94.5 32t55 -12.5t31 -28.5l28 65q23 10 47.5 9t36.5 -15zM637 1225q-12 23 -31.5 40t-56.5 17 q-49 0 -96 -47t-84 -114.5t-58.5 -141.5t-21.5 -127q0 -78 45 -78q31 0 65.5 31t68.5 79t63.5 104t52.5 108z" />
<glyph unicode="&#xab;" horiz-adv-x="929" d="M907 922q-23 -39 -53.5 -81t-65 -85t-71.5 -88t-70 -88q8 -43 19.5 -93.5t21.5 -99.5t17.5 -96t9.5 -86l-51 -17q-10 43 -25.5 93.5t-39.5 101.5t-54.5 99t-71.5 87l8 29q125 78 216 166t159 174zM604 961q-25 -41 -63.5 -87.5t-84.5 -94.5t-95.5 -96t-94.5 -93 q20 -45 43 -99.5t40.5 -108.5t29.5 -106.5t16 -93.5l-53 -16q-12 41 -36.5 97t-58.5 114.5t-76 112t-87 88.5l8 28q63 35 131 81t129.5 96.5t112.5 100.5t86 93z" />
<glyph unicode="&#xac;" horiz-adv-x="1345" d="M989 0v508h-850v63h936v-571h-86z" />
<glyph unicode="&#xad;" horiz-adv-x="722" d="M588 463h-484l25 100h483z" />
<glyph unicode="&#xae;" horiz-adv-x="1675" d="M1614 702q0 -152 -57.5 -283.5t-155.5 -230t-230.5 -156t-283.5 -57.5q-152 0 -284 57.5t-230.5 156t-155.5 230.5t-57 283q0 150 57 282t155.5 231.5t230.5 157t284 57.5t284 -57.5t230 -157t155.5 -231.5t57.5 -282zM1559 702q0 137 -53.5 262.5t-144.5 218.5t-213 148 t-261 55t-261 -55t-213 -148t-144.5 -218t-53.5 -263q0 -139 53.5 -263t144.5 -218t213 -148.5t261 -54.5t261 54.5t213 148.5t144.5 218t53.5 263zM1143 303q-8 6 -17.5 16.5t-24 30t-36 51t-53.5 84.5q-23 37 -45.5 73t-48 63.5t-57.5 45t-75 19.5v-330l117 -16v-39 q-14 2 -39.5 3t-54.5 1h-178q-23 0 -46.5 -1t-37.5 -3v39l119 16v697l-119 16v39h344q76 0 135 -13.5t98 -54.5q23 -23 37.5 -55.5t14.5 -77.5q0 -53 -18.5 -89t-48.5 -58.5t-66.5 -34.5t-73.5 -18v-2q23 -14 40 -28.5t36.5 -37.5t42 -55.5t53.5 -81.5q20 -33 36.5 -61.5 t36 -50t45 -36t64.5 -16.5v-35h-180zM1051 905q0 94 -46.5 132t-109.5 38h-35l-74 -12v-348h60q66 0 102.5 12t59.5 37q43 45 43 141z" />
<glyph unicode="&#xaf;" horiz-adv-x="737" d="M635 1192l-23 -90h-510l23 90h510z" />
<glyph unicode="&#xb0;" horiz-adv-x="765" d="M528 1397q63 0 118.5 -22.5t95.5 -62.5t63.5 -94.5t23.5 -115.5t-22.5 -115.5t-62 -94.5t-95 -62.5t-121.5 -22.5t-120 22.5t-95 62.5t-63.5 94t-22.5 116q0 63 23.5 116.5t63.5 93.5t95.5 62.5t118.5 22.5zM528 1321q-96 0 -156.5 -62.5t-60.5 -156.5q0 -92 58.5 -155.5 t158.5 -63.5q98 0 157.5 63.5t59.5 155.5q0 94 -59.5 156.5t-157.5 62.5z" />
<glyph unicode="&#xb1;" horiz-adv-x="1349" d="M676 670v-494h-68v494h-477v63h477v496h68v-496h477v-63h-477zM1153 63v-63h-1022v63h1022z" />
<glyph unicode="&#xb2;" horiz-adv-x="632" d="M109 600l6 33q29 23 69.5 57.5t85.5 74.5t90.5 83t81.5 86q23 25 45.5 55.5t41 61t30.5 62.5t12 61q0 35 -20.5 57t-61.5 22q-59 0 -101 -37.5t-71 -85.5l-30 23q14 29 36.5 59.5t54.5 55t75 41t96 16.5q72 0 108.5 -38t36.5 -91q0 -51 -23.5 -96t-57 -86t-72.5 -76 t-72 -66q-53 -47 -116.5 -95t-108.5 -81v-2h200q41 0 58.5 13.5t42.5 40.5l22 24h35l-84 -176h-16q-8 4 -27 4h-366z" />
<glyph unicode="&#xb3;" horiz-adv-x="585" d="M649 1214q0 -39 -16.5 -69.5t-42 -55t-58 -43t-63.5 -32.5q59 -18 84 -64.5t25 -85.5q0 -66 -29 -117t-76 -86.5t-106.5 -55t-118.5 -19.5q-53 0 -93 18.5t-40 50.5q0 23 16 38.5t39 15.5q12 0 21.5 -2t19.5 -11l51 -80q2 2 8 2q47 0 86 22t67 54.5t42 71.5t14 74 q0 41 -14 64.5t-33.5 36.5t-42 17.5t-39.5 6.5l-2 12l35 20l57 33q29 16 49 37q29 27 47.5 60.5t18.5 66.5q0 35 -20.5 50.5t-51.5 15.5q-47 0 -89 -31t-70 -78l-27 20q31 72 89 113t132 41q59 0 95 -30t36 -81z" />
<glyph unicode="&#xb4;" horiz-adv-x="540" d="M438 1331q0 -29 -18.5 -48t-28.5 -30l-250 -206h-39l179 256l24 32q16 20 32.5 33.5t45.5 13.5q23 0 39 -14t16 -37z" />
<glyph unicode="&#xb5;" horiz-adv-x="1073" d="M936 868q-14 -39 -29 -75q-12 -35 -25.5 -74t-23.5 -76l-115 -375q-10 -29 -17 -61.5t-7 -54.5q0 -35 17.5 -47.5t47.5 -12.5q35 0 62.5 16.5t44.5 34.5l16 -30q-10 -16 -34.5 -38t-57.5 -40.5t-68.5 -31.5t-70.5 -13q-33 0 -52.5 10t-30.5 27.5t-14.5 39t-3.5 46.5 q-23 -23 -49 -46.5t-61 -44t-79 -34t-99 -13.5q-68 0 -102.5 27t-47.5 61l-2 -2l-63 -428q-16 -33 -48 -49t-67 -16q-25 0 -40 13t-15 46q0 23 11 55.5t26.5 71.5t35 80t35.5 80q18 43 35.5 80t34 74.5t32 79.5t31.5 94l183 606l149 20q-16 -47 -31 -88q-12 -35 -24 -73.5 t-21 -63.5l-86 -285q-12 -41 -26.5 -89t-14.5 -91q0 -45 26 -74.5t97 -29.5q57 0 104.5 24.5t80.5 63.5l206 686z" />
<glyph unicode="&#xb6;" horiz-adv-x="923" d="M63 -465q-92 0 -145 39t-53 107q0 53 31.5 75.5t62.5 22.5q29 0 43 -10l107 -177q154 18 245 136q27 33 50.5 72.5t45 92t43 119t46.5 156.5l77 295q-66 -4 -137 10t-132.5 56t-101.5 113t-40 179q0 141 62.5 238.5t168.5 152.5q45 25 94.5 41.5t108.5 26.5t133 14t166 4 h53q29 0 74 -2l-10 -49l-172 -24l-297 -1117q-39 -145 -81 -236t-89 -155q-78 -100 -169.5 -140t-183.5 -40z" />
<glyph unicode="&#xb7;" horiz-adv-x="475" d="M344 537q0 -45 -30.5 -76t-75.5 -31q-43 0 -75 31t-32 76t32 75.5t75 30.5q45 0 75.5 -30.5t30.5 -75.5z" />
<glyph unicode="&#xb8;" horiz-adv-x="477" d="M338 18l-94 -120q23 -4 46 -11.5t41.5 -22t31 -36t12.5 -49.5q0 -55 -30 -92t-76 -60.5t-99 -33t-100 -9.5h-9l5 35h30q25 0 54.5 4t55 16.5t42 33t16.5 53.5q0 20 -11 33.5t-26.5 21.5t-35 13t-33.5 7l-17 29l160 188h37z" />
<glyph unicode="&#xb9;" horiz-adv-x="497" d="M391 1208l-119 6l9 27q35 10 73.5 21.5t69.5 21.5q37 12 72 27h30l-182 -674l113 -14l-8 -39q-12 0 -36 1t-49.5 2t-50.5 1h-71q-23 0 -47.5 -1t-47 -2t-36.5 -1l8 39l119 14z" />
<glyph unicode="&#xba;" horiz-adv-x="630" d="M692 1135q0 -55 -13 -110.5t-36 -106.5q-18 -39 -47 -83t-65.5 -82t-80.5 -62.5t-94 -24.5q-45 0 -76.5 19.5t-51 51t-27.5 69.5t-8 75q0 55 13 109t36 106q20 39 50 84t67.5 82.5t80.5 62.5t88 25t76 -19.5t50.5 -50.5t28.5 -68.5t9 -76.5zM614 1206q0 29 -10 59.5 t-45 30.5q-31 0 -64.5 -26.5t-63.5 -63.5t-54.5 -75.5t-38.5 -65.5q-27 -53 -50.5 -122t-23.5 -126q0 -29 10.5 -58.5t44.5 -29.5q33 0 68 26.5t64.5 63.5t53 76t36.5 63q29 53 51 121t22 127z" />
<glyph unicode="&#xbb;" horiz-adv-x="925" d="M350 182q25 41 64 88t85 95.5t95 97.5t96 94q-23 45 -45 98.5t-39.5 106.5t-30 105.5t-14.5 93.5l51 16q12 -41 37 -97.5t59.5 -114.5t76.5 -111.5t87 -88.5l-8 -28q-63 -35 -130.5 -82t-129 -97.5t-114 -99.5t-84.5 -92zM47 221q23 39 54.5 81t67.5 87t74 90t70 88 q-10 43 -22 92l-23 99q-10 49 -17 95t-9 85l49 16q10 -43 26.5 -92t39 -99t54 -97.5t72.5 -85.5l-8 -29q-125 -78 -216 -169t-159 -177z" />
<glyph unicode="&#xbc;" horiz-adv-x="1378" d="M1214 223h-116q-16 -59 -32.5 -120.5t-33.5 -120.5h-92l68 241h-275l8 37l447 469h45l-117 -430h141zM1339 1331l-1198 -1376h-75l1198 1376h75zM387 1208l-119 6l8 27q35 10 74 21.5t70 21.5q37 12 72 27h30l-182 -674l113 -14l-9 -39q-12 0 -35.5 1t-49 2t-50.5 1h-71 q-23 0 -47.5 -1t-47 -2t-37.5 -1l9 39l118 14zM1047 526l-216 -227h195l49 186q4 18 10.5 37t10.5 35q6 18 8 33z" />
<glyph unicode="&#xbd;" horiz-adv-x="1374" d="M717 0l6 33q29 23 70 57.5t86 74.5t90 83t82 86q23 25 45 55.5t40.5 61t31 62.5t12.5 60q0 35 -20.5 57.5t-61.5 22.5q-59 0 -101.5 -37.5t-70.5 -85.5l-31 23q14 29 36.5 59.5t54.5 55t75 41t96 16.5q72 0 109 -38t37 -91q0 -51 -24 -96t-57.5 -86t-72.5 -76t-72 -66 q-53 -47 -116.5 -95t-108.5 -81v-2h201q41 0 58 13.5t42 39.5l23 25h34l-84 -176h-16q-8 4 -27 4h-366zM1339 1331l-1198 -1376h-75l1198 1376h75zM389 1208l-119 6l9 27q35 10 73.5 21.5t69.5 21.5q37 12 72 27h30l-182 -674l113 -14l-9 -39q-12 0 -35.5 1t-49 2t-50.5 1 h-71q-23 0 -47.5 -1t-47 -2t-36.5 -1l8 39l119 14z" />
<glyph unicode="&#xbe;" horiz-adv-x="1439" d="M1276 223h-117q-16 -59 -32.5 -120.5t-32.5 -120.5h-93l68 241h-274l8 37l446 469h45l-116 -430h141zM1401 1331l-1198 -1376h-76l1198 1376h76zM647 1214q0 -39 -16.5 -69.5t-42 -55t-58 -43t-63.5 -32.5q59 -18 83.5 -64.5t24.5 -85.5q0 -66 -28.5 -117t-75.5 -86.5 t-106.5 -55t-118.5 -19.5q-53 0 -93 18.5t-40 50.5q0 23 16 38.5t39 15.5q12 0 21.5 -2t19.5 -11l49 -78h10q47 0 86 22t67 54.5t42 71.5t14 74q0 41 -14 64.5t-33.5 36.5t-42 17.5t-39.5 6.5l-2 12l35 20l57 33q29 16 49 37q29 27 47.5 60.5t18.5 66.5q0 35 -20.5 50.5 t-51.5 15.5q-47 0 -89 -31t-70 -78l-27 20q31 72 89 113t132 41q59 0 95 -30t36 -81zM1108 526l-215 -227h194l50 186q4 18 10 37t10 35q6 18 8 33z" />
<glyph unicode="&#xbf;" horiz-adv-x="739" d="M-135 -291q0 70 28.5 125t74.5 100.5t103.5 82t112.5 67.5q45 25 85 46.5t71 43t49.5 43t18.5 45.5q0 43 -28 62.5t-69 19.5q-23 0 -43 -4t-41 -10l-8 32q31 12 62.5 19.5t64.5 7.5q72 0 127 -35t55 -112q0 -45 -24.5 -80t-63.5 -64.5t-89 -55.5t-101 -54 q-49 -27 -96.5 -56.5t-83 -66.5t-58 -81t-22.5 -99q0 -90 50 -130t124 -38h26l115 178q8 8 18.5 11t20.5 3q29 0 48.5 -16.5t19.5 -50.5q0 -37 -23.5 -68t-61.5 -53.5t-85 -35.5t-97 -13q-57 0 -107 15t-89 46t-61.5 75t-22.5 101zM385 780q0 45 32 77t77 32t76.5 -32 t31.5 -77t-31.5 -76.5t-76.5 -31.5t-77 31.5t-32 76.5z" />
<glyph unicode="&#xc0;" horiz-adv-x="1146" d="M1040 -2q-47 4 -111.5 5t-113.5 1h-63q-35 0 -74 -1t-75 -2t-62 -3l12 57l190 27l-28 340h-424l-201 -340l184 -27l-14 -57q-47 4 -114.5 5t-116.5 1q-51 0 -87 -1t-87 -5l14 57l158 27l626 1046l-6 91q29 10 70 38.5t63 61.5h27l100 -1237l150 -27zM686 788 q-4 41 -6 88.5t-6 86.5q-4 45 -6 88l-109 -181l-235 -397h389zM852 1421l-250 207q-10 10 -28.5 29.5t-18.5 48.5q0 23 16.5 37t38.5 14q29 0 45.5 -13t32.5 -34l23 -33l180 -256h-39z" />
<glyph unicode="&#xc1;" horiz-adv-x="1146" d="M1040 -2q-47 4 -111.5 5t-113.5 1h-63q-35 0 -74 -1t-75 -2t-62 -3l12 57l190 27l-28 340h-424l-201 -340l184 -27l-14 -57q-47 4 -114.5 5t-116.5 1q-51 0 -87 -1t-87 -5l14 57l158 27l626 1046l-6 91q29 10 70 38.5t63 61.5h27l100 -1237l150 -27zM686 788 q-4 41 -6 88.5t-6 86.5q-4 45 -6 88l-109 -181l-235 -397h389zM1010 1706q0 -29 -18.5 -48.5t-28.5 -29.5l-250 -207h-39l178 256l25 33q16 20 32.5 33.5t44.5 13.5q23 0 39.5 -14t16.5 -37z" />
<glyph unicode="&#xc2;" horiz-adv-x="1146" d="M1040 -2q-47 4 -111.5 5t-113.5 1h-63q-35 0 -74 -1t-75 -2t-62 -3l12 57l190 27l-28 340h-424l-201 -340l184 -27l-14 -57q-47 4 -114.5 5t-116.5 1q-51 0 -87 -1t-87 -5l14 57l158 27l626 1046l-6 91q29 10 70 38.5t63 61.5h27l100 -1237l150 -27zM686 788 q-4 41 -6 88.5t-6 86.5q-4 45 -6 88l-109 -181l-235 -397h389zM975 1423h-109l-10 209l-194 -209h-62l-2 4l313 322h41l29 -319z" />
<glyph unicode="&#xc3;" horiz-adv-x="1146" d="M1040 -2q-47 4 -111.5 5t-113.5 1h-63q-35 0 -74 -1t-75 -2t-62 -3l12 57l190 27l-28 340h-424l-201 -340l184 -27l-14 -57q-47 4 -114.5 5t-116.5 1q-51 0 -87 -1t-87 -5l14 57l158 27l626 1046l-6 91q29 10 70 38.5t63 61.5h27l100 -1237l150 -27zM686 788 q-4 41 -6 88.5t-6 86.5q-4 45 -6 88l-109 -181l-235 -397h389zM1133 1659q-12 -70 -35 -115t-51.5 -72.5t-59.5 -39t-59 -11.5q-49 0 -76 21.5t-49 44.5l-33 33q-23 23 -40 38t-42 15q-49 0 -79.5 -46t-43.5 -106h-39q12 72 35 119t51.5 74.5t59 39t59.5 11.5 q45 0 69.5 -17.5t45.5 -37.5l41 -43q20 -20 37.5 -35.5t46.5 -15.5q49 0 80.5 46t42.5 97h39z" />
<glyph unicode="&#xc4;" horiz-adv-x="1146" d="M1040 -2q-47 4 -111.5 5t-113.5 1h-63q-35 0 -74 -1t-75 -2t-62 -3l12 57l190 27l-28 340h-424l-201 -340l184 -27l-14 -57q-47 4 -114.5 5t-116.5 1q-51 0 -87 -1t-87 -5l14 57l158 27l626 1046l-6 91q29 10 70 38.5t63 61.5h27l100 -1237l150 -27zM686 788 q-4 41 -6 88.5t-6 86.5q-4 45 -6 88l-109 -181l-235 -397h389zM1051 1513q0 -35 -25 -59t-59 -24q-35 0 -59.5 24.5t-24.5 58.5q0 35 24.5 59.5t59.5 24.5t59.5 -24.5t24.5 -59.5zM745 1513q0 -35 -24.5 -59t-58.5 -24q-35 0 -59.5 24.5t-24.5 58.5q0 35 24.5 59.5 t59.5 24.5t59 -24.5t24 -59.5z" />
<glyph unicode="&#xc5;" horiz-adv-x="1146" d="M1040 -2q-47 4 -111.5 5t-113.5 1h-63q-35 0 -74 -1t-75 -2t-62 -3l12 57l190 27l-28 340h-424l-201 -340l184 -27l-14 -57q-47 4 -114.5 5t-116.5 1q-51 0 -87 -1t-87 -5l14 57l158 27l626 1046l-6 91q29 10 70 38.5t63 61.5h27l100 -1237l150 -27zM686 788 q-4 41 -6 88.5t-6 86.5q-4 45 -6 88l-109 -181l-235 -397h389zM827 1772q72 0 125.5 -49.5t53.5 -127.5t-53.5 -129t-127.5 -51t-127 51.5t-53 126.5q0 78 53 128.5t129 50.5zM825 1716q-43 0 -79.5 -31.5t-36.5 -91.5q0 -57 34.5 -88.5t81.5 -31.5t82 31.5t35 88.5 q0 59 -35 91t-82 32z" />
<glyph unicode="&#xc6;" horiz-adv-x="1800" d="M1784 1018h-41l-60 139q-12 31 -23 50.5t-20 27.5q-8 6 -16 7t-18 1h-408l-149 -555h307q16 0 26.5 3t20.5 20l100 149h41l-110 -407h-41l-19 161q-2 16 -9 19.5t-24 3.5h-307l-147 -555l190 -31h201q35 0 59.5 4t50 19.5t60.5 46.5t88 84l29 28q18 18 34 37q20 23 43 45 h50l-140 -315h-1052l14 55l199 27l149 555h-346l-481 -555l227 -27l-18 -57q-25 2 -57.5 3t-67.5 2t-68 1h-57q-51 0 -87 -1t-89 -5l16 57l125 27l995 1145l-186 14l14 53h1030zM1022 1245q-45 -57 -84 -108q-35 -45 -72 -89t-59 -73l-248 -287h315l152 557h-4z" />
<glyph unicode="&#xc7;" horiz-adv-x="1216" d="M1210 967h-43q-4 80 -30.5 136t-68.5 93t-95 53.5t-109 16.5q-137 0 -241.5 -78t-175 -197t-106.5 -257t-36 -261q0 -98 19.5 -180t59.5 -140.5t98.5 -90t135.5 -31.5q78 0 145.5 27.5t124 71.5t100.5 98.5t75 109.5l41 -6l-117 -320h-45l2 54q-12 -6 -37.5 -20.5 t-65.5 -29t-93.5 -25.5t-118.5 -14l-62 -79q23 -4 46.5 -11.5t42 -22t30.5 -36t12 -49.5q0 -55 -29.5 -92t-75.5 -60.5t-99.5 -33t-100.5 -9.5h-8l4 35h31q25 0 54.5 4t55 16.5t42 33t16.5 53.5q0 20 -11.5 33.5t-26.5 21.5t-34.5 13t-34.5 7l-16 29l123 145 q-100 2 -186.5 37t-150 102.5t-100 167t-36.5 230.5q0 141 52 284.5t148.5 259t234.5 189.5t308 74q127 0 207 -26.5t129 -53.5l29 53h45z" />
<glyph unicode="&#xc8;" horiz-adv-x="1218" d="M1202 1018h-41l-59 139q-29 63 -43 78q-8 6 -16.5 7t-18.5 1h-408l-149 -555h307q16 0 25.5 3t19.5 20l103 149h41l-111 -407h-41l-18 161q-2 16 -9.5 19.5t-23.5 3.5h-307l-148 -555l191 -31h200q35 0 58.5 4t50 19.5t60.5 46.5t89 84l29 28q18 18 35 37l41 45h51 l-139 -315h-1053l14 55l199 27l303 1130l-184 29l14 53h965zM885 1421l-250 207q-10 10 -28.5 29.5t-18.5 48.5q0 23 16.5 37t38.5 14q29 0 45.5 -13t32.5 -34l22 -33l181 -256h-39z" />
<glyph unicode="&#xc9;" horiz-adv-x="1218" d="M1202 1018h-41l-59 139q-29 63 -43 78q-8 6 -16.5 7t-18.5 1h-408l-149 -555h307q16 0 25.5 3t19.5 20l103 149h41l-111 -407h-41l-18 161q-2 16 -9.5 19.5t-23.5 3.5h-307l-148 -555l191 -31h200q35 0 58.5 4t50 19.5t60.5 46.5t89 84l29 28q18 18 35 37l41 45h51 l-139 -315h-1053l14 55l199 27l303 1130l-184 29l14 53h965zM1077 1706q0 -29 -18.5 -48.5t-28.5 -29.5l-250 -207h-39l179 256l24 33q16 20 32.5 33.5t45.5 13.5q23 0 39 -14t16 -37z" />
<glyph unicode="&#xca;" horiz-adv-x="1218" d="M1202 1018h-41l-59 139q-29 63 -43 78q-8 6 -16.5 7t-18.5 1h-408l-149 -555h307q16 0 25.5 3t19.5 20l103 149h41l-111 -407h-41l-18 161q-2 16 -9.5 19.5t-23.5 3.5h-307l-148 -555l191 -31h200q35 0 58.5 4t50 19.5t60.5 46.5t89 84l29 28q18 18 35 37l41 45h51 l-139 -315h-1053l14 55l199 27l303 1130l-184 29l14 53h965zM1006 1423h-109l-10 209l-195 -209h-61l-2 4l313 322h41l29 -319z" />
<glyph unicode="&#xcb;" horiz-adv-x="1218" d="M1202 1018h-41l-59 139q-29 63 -43 78q-8 6 -16.5 7t-18.5 1h-408l-149 -555h307q16 0 25.5 3t19.5 20l103 149h41l-111 -407h-41l-18 161q-2 16 -9.5 19.5t-23.5 3.5h-307l-148 -555l191 -31h200q35 0 58.5 4t50 19.5t60.5 46.5t89 84l29 28q18 18 35 37l41 45h51 l-139 -315h-1053l14 55l199 27l303 1130l-184 29l14 53h965zM1104 1513q0 -35 -24.5 -59t-59.5 -24t-59.5 24.5t-24.5 58.5q0 35 24.5 59.5t59.5 24.5t59.5 -24.5t24.5 -59.5zM799 1513q0 -35 -24.5 -59t-59.5 -24t-59.5 24.5t-24.5 58.5q0 35 24.5 59.5t59.5 24.5 t59.5 -24.5t24.5 -59.5z" />
<glyph unicode="&#xcc;" horiz-adv-x="671" d="M807 1241l-197 -29l-303 -1130l182 -27l-16 -57q-25 2 -61.5 3t-76.5 2t-77 1h-125q-37 0 -76 -1t-76.5 -2t-62.5 -3l14 57l199 27l303 1130l-184 29l14 55q25 -2 61.5 -3t76.5 -2t77 -1h125q37 0 77 1t77 2t61 3zM629 1421l-250 207q-10 10 -28.5 29.5t-18.5 48.5 q0 23 16.5 37t38.5 14q29 0 45.5 -13t32.5 -34l22 -33l181 -256h-39z" />
<glyph unicode="&#xcd;" horiz-adv-x="671" d="M807 1241l-197 -29l-303 -1130l182 -27l-16 -57q-25 2 -61.5 3t-76.5 2t-77 1h-125q-37 0 -76 -1t-76.5 -2t-62.5 -3l14 57l199 27l303 1130l-184 29l14 55q25 -2 61.5 -3t76.5 -2t77 -1h125q37 0 77 1t77 2t61 3zM834 1706q0 -29 -18.5 -48.5t-29.5 -29.5l-249 -207h-39 l178 256l24 33q16 20 33 33.5t45 13.5q23 0 39.5 -14t16.5 -37z" />
<glyph unicode="&#xce;" horiz-adv-x="671" d="M807 1241l-197 -29l-303 -1130l182 -27l-16 -57q-25 2 -61.5 3t-76.5 2t-77 1h-125q-37 0 -76 -1t-76.5 -2t-62.5 -3l14 57l199 27l303 1130l-184 29l14 55q25 -2 61.5 -3t76.5 -2t77 -1h125q37 0 77 1t77 2t61 3zM766 1423h-109l-10 209l-194 -209h-62l-2 4l313 322h41 l29 -319z" />
<glyph unicode="&#xcf;" horiz-adv-x="671" d="M807 1241l-197 -29l-303 -1130l182 -27l-16 -57q-25 2 -61.5 3t-76.5 2t-77 1h-125q-37 0 -76 -1t-76.5 -2t-62.5 -3l14 57l199 27l303 1130l-184 29l14 55q25 -2 61.5 -3t76.5 -2t77 -1h125q37 0 77 1t77 2t61 3zM838 1513q0 -35 -25 -59t-59 -24q-35 0 -59.5 24.5 t-24.5 58.5q0 35 24.5 59.5t59.5 24.5t59.5 -24.5t24.5 -59.5zM532 1513q0 -35 -24.5 -59t-58.5 -24q-35 0 -59.5 24.5t-24.5 58.5q0 35 24.5 59.5t59.5 24.5t59 -24.5t24 -59.5z" />
<glyph unicode="&#xd0;" horiz-adv-x="1452" d="M1415 825q0 -53 -8 -107t-23 -108q-47 -176 -139 -292.5t-216 -187.5t-276.5 -100.5t-318.5 -29.5h-512l15 53l198 29l148 555h-164l16 61h164l139 514l-182 31l12 51h557q115 0 221.5 -23.5t188.5 -78.5t131 -145.5t49 -221.5zM623 637h-166l-148 -555q14 -2 39 -7 t50.5 -11.5t49 -10.5t35.5 -4q289 0 461 136.5t246 414.5q16 61 26.5 123.5t10.5 126.5q0 199 -105.5 297t-302.5 98q-10 0 -11 1t-9 -1l-187 -33l-139 -514h166z" />
<glyph unicode="&#xd1;" horiz-adv-x="1419" d="M1561 1241l-172 -29l-334 -1247h-37l-494 887q-10 16 -18 31.5t-14 27.5q-8 12 -15 25l-4 -2l-10 -41q-4 -18 -10.5 -42t-12.5 -46l-190 -723l266 -27l-16 -57q-25 2 -63 3t-80 2t-81 1h-63q-51 0 -112.5 -1t-112.5 -5l16 57l186 27l246 928l-129 211l-123 20l15 53h278 l522 -944q12 -23 23.5 -44t21.5 -38q10 -20 23 -39h2l37 142l225 841l-248 29l15 55q25 -2 60.5 -3t75.5 -2t77 -1h61q100 0 203 6zM1272 1659q-12 -70 -35 -115t-51.5 -72.5t-59 -39t-59.5 -11.5q-49 0 -75.5 21.5t-49.5 44.5l-33 33q-23 23 -40 38t-42 15q-49 0 -79.5 -46 t-42.5 -106h-39q12 72 34.5 119t51 74.5t59.5 39t59 11.5q45 0 70 -17.5t45 -37.5l41 -43q20 -20 37.5 -35.5t46.5 -15.5q49 0 81 46t42 97h39z" />
<glyph unicode="&#xd2;" horiz-adv-x="1386" d="M1341 791q0 -145 -54 -291t-150.5 -262.5t-229.5 -189.5t-293 -73q-125 0 -219 40t-156.5 111t-94 168t-31.5 210q0 141 52 285.5t147.5 262t229.5 192.5t298 75q129 0 223 -41t156.5 -111.5t92 -166.5t29.5 -209zM1151 829q0 74 -15.5 152t-52 140.5t-96 102.5 t-147.5 40q-125 0 -224.5 -78t-169 -196t-106.5 -257t-37 -264q0 -80 16.5 -159t53.5 -141.5t96 -100t145 -37.5q125 0 224.5 79.5t169 199.5t106.5 259t37 260zM997 1421l-249 207q-10 10 -29 29.5t-19 48.5q0 23 16.5 37t39.5 14q29 0 45 -13t33 -34l22 -33l180 -256h-39z " />
<glyph unicode="&#xd3;" horiz-adv-x="1386" d="M1341 791q0 -145 -54 -291t-150.5 -262.5t-229.5 -189.5t-293 -73q-125 0 -219 40t-156.5 111t-94 168t-31.5 210q0 141 52 285.5t147.5 262t229.5 192.5t298 75q129 0 223 -41t156.5 -111.5t92 -166.5t29.5 -209zM1151 829q0 74 -15.5 152t-52 140.5t-96 102.5 t-147.5 40q-125 0 -224.5 -78t-169 -196t-106.5 -257t-37 -264q0 -80 16.5 -159t53.5 -141.5t96 -100t145 -37.5q125 0 224.5 79.5t169 199.5t106.5 259t37 260zM1171 1706q0 -29 -18 -48.5t-29 -29.5l-250 -207h-38l178 256l24 33q16 20 32.5 33.5t45.5 13.5q23 0 39 -14 t16 -37z" />
<glyph unicode="&#xd4;" horiz-adv-x="1386" d="M1341 791q0 -145 -54 -291t-150.5 -262.5t-229.5 -189.5t-293 -73q-125 0 -219 40t-156.5 111t-94 168t-31.5 210q0 141 52 285.5t147.5 262t229.5 192.5t298 75q129 0 223 -41t156.5 -111.5t92 -166.5t29.5 -209zM1151 829q0 74 -15.5 152t-52 140.5t-96 102.5 t-147.5 40q-125 0 -224.5 -78t-169 -196t-106.5 -257t-37 -264q0 -80 16.5 -159t53.5 -141.5t96 -100t145 -37.5q125 0 224.5 79.5t169 199.5t106.5 259t37 260zM1094 1423h-109l-10 209l-195 -209h-61l-2 4l313 322h41l29 -319z" />
<glyph unicode="&#xd5;" horiz-adv-x="1386" d="M1341 791q0 -145 -54 -291t-150.5 -262.5t-229.5 -189.5t-293 -73q-125 0 -219 40t-156.5 111t-94 168t-31.5 210q0 141 52 285.5t147.5 262t229.5 192.5t298 75q129 0 223 -41t156.5 -111.5t92 -166.5t29.5 -209zM1151 829q0 74 -15.5 152t-52 140.5t-96 102.5 t-147.5 40q-125 0 -224.5 -78t-169 -196t-106.5 -257t-37 -264q0 -80 16.5 -159t53.5 -141.5t96 -100t145 -37.5q125 0 224.5 79.5t169 199.5t106.5 259t37 260zM1229 1659q-12 -70 -35 -115t-51.5 -72.5t-59 -39t-59.5 -11.5q-49 0 -75.5 21.5t-49.5 44.5l-33 33 q-23 23 -40 38t-42 15q-49 0 -79.5 -46t-42.5 -106h-39q12 72 34.5 119t51 74.5t59.5 39t59 11.5q45 0 70 -17.5t45 -37.5l41 -43q20 -20 37.5 -35.5t46.5 -15.5q49 0 81 46t42 97h39z" />
<glyph unicode="&#xd6;" horiz-adv-x="1386" d="M1341 791q0 -145 -54 -291t-150.5 -262.5t-229.5 -189.5t-293 -73q-125 0 -219 40t-156.5 111t-94 168t-31.5 210q0 141 52 285.5t147.5 262t229.5 192.5t298 75q129 0 223 -41t156.5 -111.5t92 -166.5t29.5 -209zM1151 829q0 74 -15.5 152t-52 140.5t-96 102.5 t-147.5 40q-125 0 -224.5 -78t-169 -196t-106.5 -257t-37 -264q0 -80 16.5 -159t53.5 -141.5t96 -100t145 -37.5q125 0 224.5 79.5t169 199.5t106.5 259t37 260zM1165 1513q0 -35 -24.5 -59t-59.5 -24t-59.5 24.5t-24.5 58.5q0 35 25 59.5t59 24.5q35 0 59.5 -24.5 t24.5 -59.5zM860 1513q0 -35 -24.5 -59t-59.5 -24t-59.5 24.5t-24.5 58.5q0 35 24.5 59.5t59.5 24.5t59.5 -24.5t24.5 -59.5z" />
<glyph unicode="&#xd7;" horiz-adv-x="1198" d="M985 53l-397 400l-406 -408l-45 45l406 408l-398 397l45 45l398 -399l405 407l45 -45l-405 -405l397 -400z" />
<glyph unicode="&#xd8;" horiz-adv-x="1386" d="M1104 1260q123 -66 180 -190t57 -279q0 -145 -54 -291t-150.5 -262.5t-229.5 -189.5t-293 -73q-147 0 -256 58l-110 -183h-78l133 218q-96 72 -143 184.5t-47 251.5q0 141 52 285.5t147.5 262t229.5 192.5t298 75q113 0 204 -35l91 150h75zM1151 829q0 90 -23.5 182.5 t-78.5 157.5l-639 -1052q35 -41 86 -63.5t118 -22.5q125 0 224.5 79.5t169 199.5t106.5 259t37 260zM303 469q0 -78 15.5 -154.5t50.5 -138.5l632 1038q-33 23 -72.5 36.5t-88.5 13.5q-125 0 -224.5 -78t-169 -196t-106.5 -257t-37 -264z" />
<glyph unicode="&#xd9;" horiz-adv-x="1353" d="M1520 1239l-183 -27l-184 -684q-35 -135 -87 -230t-126 -167q-78 -74 -177 -115t-241 -41q-182 0 -271 91.5t-89 234.5q0 53 9 106.5t30 127.5l182 677l-182 27l14 57q25 -2 61.5 -3t76.5 -2t77 -1h125q39 0 78 1t77 2t62 3l-14 -57l-199 -27l-186 -688 q-12 -47 -21.5 -100t-9.5 -105q0 -41 11.5 -85t41 -78.5t80.5 -57t129 -22.5q109 0 191 37t143 102q53 59 93 137t75 209l174 651l-193 27l15 57q47 -4 113.5 -5t115.5 -1q100 0 203 6zM985 1421l-250 207q-10 10 -28.5 29.5t-18.5 48.5q0 23 16.5 37t38.5 14q29 0 45.5 -13 t32.5 -34l23 -33l180 -256h-39z" />
<glyph unicode="&#xda;" horiz-adv-x="1353" d="M1520 1239l-183 -27l-184 -684q-35 -135 -87 -230t-126 -167q-78 -74 -177 -115t-241 -41q-182 0 -271 91.5t-89 234.5q0 53 9 106.5t30 127.5l182 677l-182 27l14 57q25 -2 61.5 -3t76.5 -2t77 -1h125q39 0 78 1t77 2t62 3l-14 -57l-199 -27l-186 -688 q-12 -47 -21.5 -100t-9.5 -105q0 -41 11.5 -85t41 -78.5t80.5 -57t129 -22.5q109 0 191 37t143 102q53 59 93 137t75 209l174 651l-193 27l15 57q47 -4 113.5 -5t115.5 -1q100 0 203 6zM1171 1706q0 -29 -18 -48.5t-29 -29.5l-250 -207h-38l178 256l24 33q16 20 32.5 33.5 t45.5 13.5q23 0 39 -14t16 -37z" />
<glyph unicode="&#xdb;" horiz-adv-x="1353" d="M1520 1239l-183 -27l-184 -684q-35 -135 -87 -230t-126 -167q-78 -74 -177 -115t-241 -41q-182 0 -271 91.5t-89 234.5q0 53 9 106.5t30 127.5l182 677l-182 27l14 57q25 -2 61.5 -3t76.5 -2t77 -1h125q39 0 78 1t77 2t62 3l-14 -57l-199 -27l-186 -688 q-12 -47 -21.5 -100t-9.5 -105q0 -41 11.5 -85t41 -78.5t80.5 -57t129 -22.5q109 0 191 37t143 102q53 59 93 137t75 209l174 651l-193 27l15 57q47 -4 113.5 -5t115.5 -1q100 0 203 6zM1122 1423h-108l-10 209l-195 -209h-61l-3 4l314 322h41l28 -319z" />
<glyph unicode="&#xdc;" horiz-adv-x="1353" d="M1520 1239l-183 -27l-184 -684q-35 -135 -87 -230t-126 -167q-78 -74 -177 -115t-241 -41q-182 0 -271 91.5t-89 234.5q0 53 9 106.5t30 127.5l182 677l-182 27l14 57q25 -2 61.5 -3t76.5 -2t77 -1h125q39 0 78 1t77 2t62 3l-14 -57l-199 -27l-186 -688 q-12 -47 -21.5 -100t-9.5 -105q0 -41 11.5 -85t41 -78.5t80.5 -57t129 -22.5q109 0 191 37t143 102q53 59 93 137t75 209l174 651l-193 27l15 57q47 -4 113.5 -5t115.5 -1q100 0 203 6zM1182 1513q0 -35 -24.5 -59t-59.5 -24t-59.5 24.5t-24.5 58.5q0 35 24.5 59.5 t59.5 24.5t59.5 -24.5t24.5 -59.5zM877 1513q0 -35 -25 -59t-59 -24q-35 0 -59.5 24.5t-24.5 58.5q0 35 24.5 59.5t59.5 24.5t59.5 -24.5t24.5 -59.5z" />
<glyph unicode="&#xdd;" horiz-adv-x="1097" d="M1300 1239l-135 -27l-520 -624l-135 -506l188 -27l-16 -57q-25 2 -59.5 3t-71.5 2t-74 1h-125q-41 0 -84 -1t-83 -2t-64 -3l16 57l197 27l141 520l-145 610l-144 27l15 57q25 -2 54.5 -3t61 -2t62.5 -1h117q39 0 79.5 1t78.5 2t65 3l-17 -57l-196 -27l133 -557l459 557 l-195 27l17 57q25 -2 56.5 -3t65 -2t64.5 -1h98q18 0 34.5 1t34 2t44.5 3zM1063 1706q0 -29 -18.5 -48.5t-28.5 -29.5l-250 -207h-39l178 256l25 33q16 20 32.5 33.5t45.5 13.5q23 0 39 -14t16 -37z" />
<glyph unicode="&#xde;" horiz-adv-x="1099" d="M131 82l303 1130l-184 29l14 55q25 -2 61.5 -3t76.5 -2t77 -1h125q37 0 77 1t77 2t61 3l-12 -55l-199 -29l-43 -153h88q104 0 203.5 -22.5t165.5 -90.5q31 -33 49.5 -78t18.5 -106q0 -90 -36 -173t-99.5 -146.5t-149.5 -101.5t-187 -38q-45 0 -102 11.5t-88 39.5l29 33 q23 -12 53.5 -18.5t54.5 -6.5q82 0 146.5 41t110.5 103.5t71 135.5t25 138q0 106 -58 168q-29 29 -66.5 45.5t-91.5 16.5h-16l-137 -23l-244 -905l230 -27l-15 -55h-604l14 55z" />
<glyph unicode="&#xdf;" horiz-adv-x="966" d="M690 696q0 -47 20.5 -88t47.5 -86l8 -14q29 -49 52.5 -102.5t23.5 -120.5q0 -82 -29 -140.5t-71 -96.5t-91 -55.5t-90 -17.5q-70 0 -119 30t-49 87q0 41 25.5 60.5t54.5 19.5q39 0 59 -31l52 -129q16 0 40.5 11.5t47 33t38 54t15.5 75.5q0 59 -23.5 107.5t-50.5 101.5 l-6 13q-25 51 -48.5 103t-23.5 112q0 66 30 114.5t85 98.5q90 78 138 154.5t48 183.5q0 100 -41.5 138t-97.5 38q-90 0 -151 -88q-25 -37 -47.5 -88.5t-42 -113t-38 -128t-34.5 -131.5l-203 -821q-25 -102 -64.5 -197.5t-109.5 -163.5q-41 -39 -94 -62.5t-123 -23.5 q-78 0 -123 35t-45 94q0 47 26.5 68.5t51.5 21.5q12 0 20.5 -4t18.5 -10l86 -162h12q33 0 60.5 25.5t50 64.5t41 87t32 95.5t22.5 85t13 58.5q61 272 97 429t53 234q20 92 26 117h-192l18 57h189q41 154 93 273t126 192q47 47 109.5 73t142.5 26q109 0 179.5 -46.5 t70.5 -148.5q0 -70 -26 -121t-66 -94t-86 -83t-89 -87q-23 -25 -36 -53.5t-13 -63.5z" />
<glyph unicode="&#xe0;" horiz-adv-x="858" d="M600 334q-6 -16 -15.5 -43t-18.5 -55.5t-15 -55t-6 -41.5q0 -35 22 -35q18 0 45 19.5t53.5 48.5t51 60.5t41.5 54.5l41 -29q-18 -27 -50 -74t-73 -93t-91 -81t-102 -35q-41 0 -57 28t-16 69q0 39 12 85t28.5 90t32 79.5t21.5 52.5h-6q-12 -23 -30.5 -58.5t-43.5 -76.5 t-55.5 -85t-67.5 -81q-43 -45 -94 -74t-105 -29q-66 0 -90 40t-24 98q0 80 22.5 163.5t60.5 163.5t88 152t105 127q76 78 152 122t125 44q51 0 73.5 -19.5t38.5 -42.5h2l41 95q27 10 58.5 9t48.5 -18zM608 715q-16 33 -42.5 55.5t-76.5 22.5q-70 0 -133 -62.5t-112 -153 t-78 -189.5t-29 -171q-4 -109 62 -108q45 0 91 42t91 106.5t85 141t71 144.5zM762 1047l-250 206q-10 10 -28.5 30t-18.5 48q0 23 16.5 37t38.5 14q29 0 45.5 -13t32.5 -34l23 -32l180 -256h-39z" />
<glyph unicode="&#xe1;" horiz-adv-x="858" d="M600 334q-6 -16 -15.5 -43t-18.5 -55.5t-15 -55t-6 -41.5q0 -35 22 -35q18 0 45 19.5t53.5 48.5t51 60.5t41.5 54.5l41 -29q-18 -27 -50 -74t-73 -93t-91 -81t-102 -35q-41 0 -57 28t-16 69q0 39 12 85t28.5 90t32 79.5t21.5 52.5h-6q-12 -23 -30.5 -58.5t-43.5 -76.5 t-55.5 -85t-67.5 -81q-43 -45 -94 -74t-105 -29q-66 0 -90 40t-24 98q0 80 22.5 163.5t60.5 163.5t88 152t105 127q76 78 152 122t125 44q51 0 73.5 -19.5t38.5 -42.5h2l41 95q27 10 58.5 9t48.5 -18zM608 715q-16 33 -42.5 55.5t-76.5 22.5q-70 0 -133 -62.5t-112 -153 t-78 -189.5t-29 -171q-4 -109 62 -108q45 0 91 42t91 106.5t85 141t71 144.5zM895 1331q0 -29 -18.5 -48t-28.5 -30l-250 -206h-39l178 256l25 32q16 20 32.5 33.5t45.5 13.5q23 0 39 -14t16 -37z" />
<glyph unicode="&#xe2;" horiz-adv-x="858" d="M600 334q-6 -16 -15.5 -43t-18.5 -55.5t-15 -55t-6 -41.5q0 -35 22 -35q18 0 45 19.5t53.5 48.5t51 60.5t41.5 54.5l41 -29q-18 -27 -50 -74t-73 -93t-91 -81t-102 -35q-41 0 -57 28t-16 69q0 39 12 85t28.5 90t32 79.5t21.5 52.5h-6q-12 -23 -30.5 -58.5t-43.5 -76.5 t-55.5 -85t-67.5 -81q-43 -45 -94 -74t-105 -29q-66 0 -90 40t-24 98q0 80 22.5 163.5t60.5 163.5t88 152t105 127q76 78 152 122t125 44q51 0 73.5 -19.5t38.5 -42.5h2l41 95q27 10 58.5 9t48.5 -18zM608 715q-16 33 -42.5 55.5t-76.5 22.5q-70 0 -133 -62.5t-112 -153 t-78 -189.5t-29 -171q-4 -109 62 -108q45 0 91 42t91 106.5t85 141t71 144.5zM834 1047h-111l-8 229l-195 -229h-61l-2 4l313 342h41l29 -340z" />
<glyph unicode="&#xe3;" horiz-adv-x="858" d="M600 334q-6 -16 -15.5 -43t-18.5 -55.5t-15 -55t-6 -41.5q0 -35 22 -35q18 0 45 19.5t53.5 48.5t51 60.5t41.5 54.5l41 -29q-18 -27 -50 -74t-73 -93t-91 -81t-102 -35q-41 0 -57 28t-16 69q0 39 12 85t28.5 90t32 79.5t21.5 52.5h-6q-12 -23 -30.5 -58.5t-43.5 -76.5 t-55.5 -85t-67.5 -81q-43 -45 -94 -74t-105 -29q-66 0 -90 40t-24 98q0 80 22.5 163.5t60.5 163.5t88 152t105 127q76 78 152 122t125 44q51 0 73.5 -19.5t38.5 -42.5h2l41 95q27 10 58.5 9t48.5 -18zM608 715q-16 33 -42.5 55.5t-76.5 22.5q-70 0 -133 -62.5t-112 -153 t-78 -189.5t-29 -171q-4 -109 62 -108q45 0 91 42t91 106.5t85 141t71 144.5zM969 1303q-12 -70 -35 -115t-51.5 -73t-59 -39t-59.5 -11q-49 0 -75.5 21.5t-49.5 43.5l-33 33q-23 23 -40 38.5t-42 15.5q-49 0 -79.5 -46.5t-43.5 -105.5h-39q12 72 35 119t51.5 74.5t59.5 39 t59 11.5q45 0 70 -17.5t45 -38.5l41 -43q20 -20 37.5 -35.5t46.5 -15.5q49 0 81 46t42 98h39z" />
<glyph unicode="&#xe4;" horiz-adv-x="858" d="M600 334q-6 -16 -15.5 -43t-18.5 -55.5t-15 -55t-6 -41.5q0 -35 22 -35q18 0 45 19.5t53.5 48.5t51 60.5t41.5 54.5l41 -29q-18 -27 -50 -74t-73 -93t-91 -81t-102 -35q-41 0 -57 28t-16 69q0 39 12 85t28.5 90t32 79.5t21.5 52.5h-6q-12 -23 -30.5 -58.5t-43.5 -76.5 t-55.5 -85t-67.5 -81q-43 -45 -94 -74t-105 -29q-66 0 -90 40t-24 98q0 80 22.5 163.5t60.5 163.5t88 152t105 127q76 78 152 122t125 44q51 0 73.5 -19.5t38.5 -42.5h2l41 95q27 10 58.5 9t48.5 -18zM608 715q-16 33 -42.5 55.5t-76.5 22.5q-70 0 -133 -62.5t-112 -153 t-78 -189.5t-29 -171q-4 -109 62 -108q45 0 91 42t91 106.5t85 141t71 144.5zM913 1157q0 -35 -24.5 -59.5t-59.5 -24.5t-59.5 24.5t-24.5 59.5t25 59.5t59 24.5q35 0 59.5 -24.5t24.5 -59.5zM608 1157q0 -35 -24.5 -59.5t-59.5 -24.5t-59.5 24.5t-24.5 59.5t24.5 59.5 t59.5 24.5t59.5 -24.5t24.5 -59.5z" />
<glyph unicode="&#xe5;" horiz-adv-x="858" d="M600 334q-6 -16 -15.5 -43t-18.5 -55.5t-15 -55t-6 -41.5q0 -35 22 -35q18 0 45 19.5t53.5 48.5t51 60.5t41.5 54.5l41 -29q-18 -27 -50 -74t-73 -93t-91 -81t-102 -35q-41 0 -57 28t-16 69q0 39 12 85t28.5 90t32 79.5t21.5 52.5h-6q-12 -23 -30.5 -58.5t-43.5 -76.5 t-55.5 -85t-67.5 -81q-43 -45 -94 -74t-105 -29q-66 0 -90 40t-24 98q0 80 22.5 163.5t60.5 163.5t88 152t105 127q76 78 152 122t125 44q51 0 73.5 -19.5t38.5 -42.5h2l41 95q27 10 58.5 9t48.5 -18zM608 715q-16 33 -42.5 55.5t-76.5 22.5q-70 0 -133 -62.5t-112 -153 t-78 -189.5t-29 -171q-4 -109 62 -108q45 0 91 42t91 106.5t85 141t71 144.5zM649 1391q72 0 125 -49.5t53 -127.5t-53 -129t-127 -51t-127 51.5t-53 126.5q0 78 53 128.5t129 50.5zM647 1335q-43 0 -80 -31.5t-37 -91.5q0 -57 35 -88.5t82 -31.5t82 31.5t35 88.5 q0 59 -35 91t-82 32z" />
<glyph unicode="&#xe6;" horiz-adv-x="1089" d="M1071 731q0 -47 -16.5 -93t-43 -83t-61.5 -60.5t-73 -25.5l-252 -8q-25 -61 -37.5 -117.5t-12.5 -103.5q0 -23 3.5 -48.5t12.5 -49t27.5 -39t49.5 -15.5q51 0 111.5 40t115.5 114l35 -27q-70 -113 -162 -176.5t-178 -63.5q-45 0 -74 20.5t-45 52.5t-22.5 72t-6.5 79v32 q0 16 2 33h-4q-27 -43 -61.5 -93t-76.5 -93t-92 -73t-108 -30q-66 0 -90 40t-24 98q0 80 22.5 163.5t60.5 163.5t88 152t105 127q76 78 152 122t125 44q51 0 73.5 -19.5t38.5 -42.5h2l41 95q27 10 58.5 9t48.5 -18l-43 -96q37 31 78 51.5t86 20.5q72 0 109.5 -42t37.5 -112z M608 715q-16 33 -42.5 55.5t-76.5 22.5q-70 0 -133 -62.5t-112 -153t-78 -189.5t-29 -171q-4 -109 62 -108q45 0 91 42t91 106.5t85 141t71 144.5zM987 762q0 31 -12 50t-37 19q-29 0 -66.5 -24.5t-75.5 -66.5t-76 -97t-67 -115l-18 -43l180 50q43 12 75 38.5t53.5 58.5 t32.5 66.5t11 63.5z" />
<glyph unicode="&#xe7;" horiz-adv-x="636" d="M659 774q0 -41 -22.5 -69.5t-63.5 -28.5q-18 0 -29.5 4t-19.5 8l-37 156q-41 -10 -80.5 -48t-74.5 -84t-61.5 -94.5t-41.5 -78.5q-31 -68 -54 -148t-23 -153q0 -23 4 -47.5t13 -47t26.5 -37t46.5 -14.5q45 0 90 37t86 90l37 -31q-20 -35 -50 -71.5t-66 -68.5t-78 -52.5 t-85 -20.5h-4l-59 -77q23 -4 46 -11.5t41.5 -22t31 -36t12.5 -49.5q0 -55 -30 -92t-76 -60.5t-99 -33t-100 -9.5h-9l4 35h31q25 0 54.5 4t55 16.5t42 33t16.5 53.5q0 20 -11 33.5t-26.5 21.5t-35 13t-33.5 7l-17 29l125 150q-37 8 -61.5 28.5t-37.5 49t-19.5 62.5t-6.5 70 q0 109 41 231t110.5 225.5t161 171t193.5 67.5q70 0 106.5 -33t36.5 -78z" />
<glyph unicode="&#xe8;" horiz-adv-x="663" d="M645 731q0 -47 -16.5 -93t-43 -83t-61.5 -60.5t-73 -25.5l-252 -8q-25 -61 -37 -117.5t-12 -103.5q0 -23 3 -48.5t12 -49t27.5 -39t49.5 -15.5q51 0 111.5 40t115.5 114l35 -27q-70 -113 -162 -176.5t-178 -63.5q-45 0 -75 20.5t-48 52.5t-25.5 72t-7.5 79q0 78 25.5 172 t79.5 190q27 49 66.5 105.5t89.5 104.5t108.5 81t120.5 33q72 0 109.5 -42t37.5 -112zM561 762q0 31 -12 50t-37 19q-29 0 -66.5 -24.5t-75.5 -66.5t-76 -97t-67 -115l-18 -43l180 50q43 12 75 38.5t53.5 58.5t32.5 66.5t11 63.5zM688 1047l-250 206q-10 10 -28.5 30 t-18.5 48q0 23 16.5 37t38.5 14q29 0 45.5 -13t32.5 -34l23 -32l180 -256h-39z" />
<glyph unicode="&#xe9;" horiz-adv-x="663" d="M645 731q0 -47 -16.5 -93t-43 -83t-61.5 -60.5t-73 -25.5l-252 -8q-25 -61 -37 -117.5t-12 -103.5q0 -23 3 -48.5t12 -49t27.5 -39t49.5 -15.5q51 0 111.5 40t115.5 114l35 -27q-70 -113 -162 -176.5t-178 -63.5q-45 0 -75 20.5t-48 52.5t-25.5 72t-7.5 79q0 78 25.5 172 t79.5 190q27 49 66.5 105.5t89.5 104.5t108.5 81t120.5 33q72 0 109.5 -42t37.5 -112zM561 762q0 31 -12 50t-37 19q-29 0 -66.5 -24.5t-75.5 -66.5t-76 -97t-67 -115l-18 -43l180 50q43 12 75 38.5t53.5 58.5t32.5 66.5t11 63.5zM823 1331q0 -29 -18.5 -48t-28.5 -30 l-250 -206h-39l179 256l24 32q16 20 32.5 33.5t45.5 13.5q23 0 39 -14t16 -37z" />
<glyph unicode="&#xea;" horiz-adv-x="663" d="M645 731q0 -47 -16.5 -93t-43 -83t-61.5 -60.5t-73 -25.5l-252 -8q-25 -61 -37 -117.5t-12 -103.5q0 -23 3 -48.5t12 -49t27.5 -39t49.5 -15.5q51 0 111.5 40t115.5 114l35 -27q-70 -113 -162 -176.5t-178 -63.5q-45 0 -75 20.5t-48 52.5t-25.5 72t-7.5 79q0 78 25.5 172 t79.5 190q27 49 66.5 105.5t89.5 104.5t108.5 81t120.5 33q72 0 109.5 -42t37.5 -112zM561 762q0 31 -12 50t-37 19q-29 0 -66.5 -24.5t-75.5 -66.5t-76 -97t-67 -115l-18 -43l180 50q43 12 75 38.5t53.5 58.5t32.5 66.5t11 63.5zM764 1047h-111l-8 229l-194 -229h-62l-2 4 l313 342h41l29 -340z" />
<glyph unicode="&#xeb;" horiz-adv-x="663" d="M645 731q0 -47 -16.5 -93t-43 -83t-61.5 -60.5t-73 -25.5l-252 -8q-25 -61 -37 -117.5t-12 -103.5q0 -23 3 -48.5t12 -49t27.5 -39t49.5 -15.5q51 0 111.5 40t115.5 114l35 -27q-70 -113 -162 -176.5t-178 -63.5q-45 0 -75 20.5t-48 52.5t-25.5 72t-7.5 79q0 78 25.5 172 t79.5 190q27 49 66.5 105.5t89.5 104.5t108.5 81t120.5 33q72 0 109.5 -42t37.5 -112zM561 762q0 31 -12 50t-37 19q-29 0 -66.5 -24.5t-75.5 -66.5t-76 -97t-67 -115l-18 -43l180 50q43 12 75 38.5t53.5 58.5t32.5 66.5t11 63.5zM842 1157q0 -35 -24.5 -59.5t-59.5 -24.5 t-59.5 24.5t-24.5 59.5t24.5 59.5t59.5 24.5t59.5 -24.5t24.5 -59.5zM537 1157q0 -35 -25 -59.5t-59 -24.5q-35 0 -59.5 24.5t-24.5 59.5t24.5 59.5t59.5 24.5t59.5 -24.5t24.5 -59.5z" />
<glyph unicode="&#xec;" horiz-adv-x="518" d="M438 244l-6 -11q-2 -6 -6 -12q-6 -8 -10 -14q-20 -31 -53 -71t-74 -75.5t-88 -60.5t-97 -25q-43 0 -60 19.5t-17 46.5q0 29 15 70t32 82l192 485q4 10 10.5 28.5t6.5 34.5q0 12 -5.5 22.5t-21.5 10.5q-41 0 -79 -42t-77 -107l-8 -15l-37 23l11 22q23 49 53.5 91t65 73 t73.5 48.5t78 17.5q59 0 78.5 -25.5t19.5 -54.5q0 -31 -12 -69t-29 -79l-186 -460q-6 -16 -10 -30.5t-4 -27.5q0 -12 6 -21t20 -9q16 0 39 14t46.5 35.5t45 46t37.5 45.5l14 18zM508 1047l-250 206q-10 10 -28.5 30t-18.5 48q0 23 16.5 37t38.5 14q29 0 45.5 -13t32.5 -34 l23 -32l180 -256h-39z" />
<glyph unicode="&#xed;" horiz-adv-x="518" d="M438 244l-6 -11q-2 -6 -6 -12q-6 -8 -10 -14q-20 -31 -53 -71t-74 -75.5t-88 -60.5t-97 -25q-43 0 -60 19.5t-17 46.5q0 29 15 70t32 82l192 485q4 10 10.5 28.5t6.5 34.5q0 12 -5.5 22.5t-21.5 10.5q-41 0 -79 -42t-77 -107l-8 -15l-37 23l11 22q23 49 53.5 91t65 73 t73.5 48.5t78 17.5q59 0 78.5 -25.5t19.5 -54.5q0 -31 -12 -69t-29 -79l-186 -460q-6 -16 -10 -30.5t-4 -27.5q0 -12 6 -21t20 -9q16 0 39 14t46.5 35.5t45 46t37.5 45.5l14 18zM684 1331q0 -29 -18.5 -48t-28.5 -30l-250 -206h-39l178 256l25 32q16 20 32.5 33.5t45.5 13.5 q23 0 39 -14t16 -37z" />
<glyph unicode="&#xee;" horiz-adv-x="518" d="M438 244l-6 -11q-2 -6 -6 -12q-6 -8 -10 -14q-20 -31 -53 -71t-74 -75.5t-88 -60.5t-97 -25q-43 0 -60 19.5t-17 46.5q0 29 15 70t32 82l192 485q4 10 10.5 28.5t6.5 34.5q0 12 -5.5 22.5t-21.5 10.5q-41 0 -79 -42t-77 -107l-8 -15l-37 23l11 22q23 49 53.5 91t65 73 t73.5 48.5t78 17.5q59 0 78.5 -25.5t19.5 -54.5q0 -31 -12 -69t-29 -79l-186 -460q-6 -16 -10 -30.5t-4 -27.5q0 -12 6 -21t20 -9q16 0 39 14t46.5 35.5t45 46t37.5 45.5l14 18zM610 1047h-110l-8 229l-195 -229h-61l-3 4l314 342h41l28 -340z" />
<glyph unicode="&#xef;" horiz-adv-x="518" d="M438 244l-6 -11q-2 -6 -6 -12q-6 -8 -10 -14q-20 -31 -53 -71t-74 -75.5t-88 -60.5t-97 -25q-43 0 -60 19.5t-17 46.5q0 29 15 70t32 82l192 485q4 10 10.5 28.5t6.5 34.5q0 12 -5.5 22.5t-21.5 10.5q-41 0 -79 -42t-77 -107l-8 -15l-37 23l11 22q23 49 53.5 91t65 73 t73.5 48.5t78 17.5q59 0 78.5 -25.5t19.5 -54.5q0 -31 -12 -69t-29 -79l-186 -460q-6 -16 -10 -30.5t-4 -27.5q0 -12 6 -21t20 -9q16 0 39 14t46.5 35.5t45 46t37.5 45.5l14 18zM696 1157q0 -35 -24.5 -59.5t-59.5 -24.5t-59.5 24.5t-24.5 59.5t25 59.5t59 24.5 q35 0 59.5 -24.5t24.5 -59.5zM391 1157q0 -35 -24.5 -59.5t-59.5 -24.5t-59.5 24.5t-24.5 59.5t24.5 59.5t59.5 24.5t59.5 -24.5t24.5 -59.5z" />
<glyph unicode="&#xf0;" horiz-adv-x="921" d="M354 1053l215 149q-76 84 -190 133l22 43q150 -43 246 -123l191 131l26 -40l-180 -123q102 -100 142 -228.5t40 -255.5q0 -121 -36.5 -255t-107.5 -247.5t-177.5 -187.5t-243.5 -74q-70 0 -121 24t-85 65.5t-51 97t-17 121.5q0 98 36.5 196.5t100 177t146.5 128t175 49.5 q55 0 93 -17.5t63 -42t38 -51.5t19 -47l7 4q6 55 6 115q0 104 -28 198t-83 170l-219 -151zM207 416q-16 -59 -24.5 -112.5t-8.5 -100.5q0 -84 33 -133.5t110 -49.5q61 0 112.5 31t92.5 82t71 118.5t50 143.5q12 45 17.5 84t5.5 74q0 111 -47.5 165t-110.5 54 q-53 0 -99.5 -28.5t-85 -78t-67.5 -113.5t-49 -136z" />
<glyph unicode="&#xf1;" horiz-adv-x="950" d="M848 217q-16 -27 -45 -67.5t-66 -79.5t-82 -67t-94 -28q-47 0 -64.5 21.5t-17.5 50.5t10.5 61.5t28.5 84.5l168 460q14 39 14 66q0 37 -32 37q-47 0 -107.5 -65.5t-118 -156t-105.5 -182.5t-73 -147q-12 -25 -32.5 -69t-30.5 -68l-31 -82q-25 -6 -45 -6q-53 0 -76 40 l191 623q10 35 17 58.5t7 41.5q0 12 -5 24.5t-28 12.5q-25 0 -48 -16t-42.5 -40t-35 -49.5t-25.5 -43.5l-37 16q14 41 41 83t60.5 77t75.5 56.5t89 21.5t67.5 -24.5t20.5 -57.5q0 -23 -6 -48.5t-16 -62.5l-117 -377h8q20 51 54 114t74 126t82 120.5t81 98.5q55 57 102.5 84 t100.5 27q51 0 72.5 -31t21.5 -72q0 -23 -7 -55.5t-28 -85.5l-168 -444q-16 -45 -16 -70q0 -27 22 -27q16 0 39 17.5t45.5 42t43 50.5t32.5 42l39 -23zM932 1303q-12 -70 -35 -115t-51.5 -73t-59 -39t-59.5 -11q-49 0 -75.5 21.5t-49.5 43.5l-33 33q-23 23 -40 38.5 t-42 15.5q-49 0 -79.5 -46.5t-42.5 -105.5h-39q12 72 34.5 119t51 74.5t59.5 39t59 11.5q45 0 70 -17.5t45 -38.5l41 -43q20 -20 37.5 -35.5t46.5 -15.5q49 0 81 46t42 98h39z" />
<glyph unicode="&#xf2;" horiz-adv-x="761" d="M690 598q0 -74 -18.5 -147.5t-48.5 -141.5q-25 -53 -63 -112.5t-87 -109.5t-107.5 -83t-123.5 -33q-59 0 -100.5 26t-68 67.5t-37.5 93t-11 100.5q0 76 18 148.5t47 140.5q25 53 64 112.5t88 109.5t107.5 83t123.5 33q57 0 99 -25.5t68 -66.5t38 -92.5t12 -102.5z M592 694q0 18 -3 40t-12.5 40.5t-23.5 29.5t-39 11q-43 0 -89 -36t-87 -86t-74 -103t-49 -86q-35 -72 -66.5 -162t-31.5 -170q0 -18 3 -39.5t11 -39t22.5 -30t39.5 -12.5q45 0 91 36t87 86t73.5 103.5t49.5 85.5q37 72 67.5 162t30.5 170zM676 1047l-250 206 q-10 10 -28.5 30t-18.5 48q0 23 16.5 37t38.5 14q29 0 45.5 -13t32.5 -34l23 -32l180 -256h-39z" />
<glyph unicode="&#xf3;" horiz-adv-x="761" d="M690 598q0 -74 -18.5 -147.5t-48.5 -141.5q-25 -53 -63 -112.5t-87 -109.5t-107.5 -83t-123.5 -33q-59 0 -100.5 26t-68 67.5t-37.5 93t-11 100.5q0 76 18 148.5t47 140.5q25 53 64 112.5t88 109.5t107.5 83t123.5 33q57 0 99 -25.5t68 -66.5t38 -92.5t12 -102.5z M592 694q0 18 -3 40t-12.5 40.5t-23.5 29.5t-39 11q-43 0 -89 -36t-87 -86t-74 -103t-49 -86q-35 -72 -66.5 -162t-31.5 -170q0 -18 3 -39.5t11 -39t22.5 -30t39.5 -12.5q45 0 91 36t87 86t73.5 103.5t49.5 85.5q37 72 67.5 162t30.5 170zM848 1331q0 -29 -18.5 -48 t-28.5 -30l-250 -206h-39l178 256l25 32q16 20 32.5 33.5t45.5 13.5q23 0 39 -14t16 -37z" />
<glyph unicode="&#xf4;" horiz-adv-x="761" d="M690 598q0 -74 -18.5 -147.5t-48.5 -141.5q-25 -53 -63 -112.5t-87 -109.5t-107.5 -83t-123.5 -33q-59 0 -100.5 26t-68 67.5t-37.5 93t-11 100.5q0 76 18 148.5t47 140.5q25 53 64 112.5t88 109.5t107.5 83t123.5 33q57 0 99 -25.5t68 -66.5t38 -92.5t12 -102.5z M592 694q0 18 -3 40t-12.5 40.5t-23.5 29.5t-39 11q-43 0 -89 -36t-87 -86t-74 -103t-49 -86q-35 -72 -66.5 -162t-31.5 -170q0 -18 3 -39.5t11 -39t22.5 -30t39.5 -12.5q45 0 91 36t87 86t73.5 103.5t49.5 85.5q37 72 67.5 162t30.5 170zM762 1047h-111l-8 229l-194 -229 h-62l-2 4l313 342h41l29 -340z" />
<glyph unicode="&#xf5;" horiz-adv-x="761" d="M690 598q0 -74 -18.5 -147.5t-48.5 -141.5q-25 -53 -63 -112.5t-87 -109.5t-107.5 -83t-123.5 -33q-59 0 -100.5 26t-68 67.5t-37.5 93t-11 100.5q0 76 18 148.5t47 140.5q25 53 64 112.5t88 109.5t107.5 83t123.5 33q57 0 99 -25.5t68 -66.5t38 -92.5t12 -102.5z M592 694q0 18 -3 40t-12.5 40.5t-23.5 29.5t-39 11q-43 0 -89 -36t-87 -86t-74 -103t-49 -86q-35 -72 -66.5 -162t-31.5 -170q0 -18 3 -39.5t11 -39t22.5 -30t39.5 -12.5q45 0 91 36t87 86t73.5 103.5t49.5 85.5q37 72 67.5 162t30.5 170zM905 1303q-12 -70 -34.5 -115 t-51 -73t-59.5 -39t-60 -11q-49 0 -75.5 21.5t-49.5 43.5l-32 33q-23 23 -40.5 38.5t-41.5 15.5q-49 0 -80 -46.5t-43 -105.5h-39q12 72 34.5 119t51.5 74.5t59.5 39t59.5 11.5q45 0 69.5 -17.5t44.5 -38.5l41 -43q20 -20 38 -35.5t46 -15.5q49 0 81 46t42 98h39z" />
<glyph unicode="&#xf6;" horiz-adv-x="761" d="M690 598q0 -74 -18.5 -147.5t-48.5 -141.5q-25 -53 -63 -112.5t-87 -109.5t-107.5 -83t-123.5 -33q-59 0 -100.5 26t-68 67.5t-37.5 93t-11 100.5q0 76 18 148.5t47 140.5q25 53 64 112.5t88 109.5t107.5 83t123.5 33q57 0 99 -25.5t68 -66.5t38 -92.5t12 -102.5z M592 694q0 18 -3 40t-12.5 40.5t-23.5 29.5t-39 11q-43 0 -89 -36t-87 -86t-74 -103t-49 -86q-35 -72 -66.5 -162t-31.5 -170q0 -18 3 -39.5t11 -39t22.5 -30t39.5 -12.5q45 0 91 36t87 86t73.5 103.5t49.5 85.5q37 72 67.5 162t30.5 170zM868 1157q0 -35 -24.5 -59.5 t-59.5 -24.5t-59.5 24.5t-24.5 59.5t25 59.5t59 24.5q35 0 59.5 -24.5t24.5 -59.5zM563 1157q0 -35 -24.5 -59.5t-59.5 -24.5t-59.5 24.5t-24.5 59.5t24.5 59.5t59.5 24.5t59.5 -24.5t24.5 -59.5z" />
<glyph unicode="&#xf7;" horiz-adv-x="1298" d="M119 449v63h1044v-63h-1044zM743 82q0 -45 -31.5 -77t-76.5 -32t-77 32t-32 77t32 76.5t77 31.5t76.5 -31.5t31.5 -76.5zM745 879q0 -45 -31.5 -77t-76.5 -32t-77 32t-32 77t32 76.5t77 31.5t76.5 -31.5t31.5 -76.5z" />
<glyph unicode="&#xf8;" horiz-adv-x="761" d="M614 823q41 -43 58.5 -103.5t17.5 -121.5q0 -74 -18.5 -147.5t-48.5 -141.5q-25 -53 -63 -112.5t-87 -109.5t-107.5 -83t-123.5 -33q-72 0 -121 39l-96 -160h-66l123 201q-31 43 -44 98.5t-13 108.5q0 76 18 148.5t47 140.5q25 53 64 112.5t88 109.5t107.5 83t123.5 33 q53 0 100 -27l115 189h64zM592 694q0 35 -12 70l-426 -701q14 -12 39 -12q45 0 91 36t87 86t73.5 103.5t49.5 85.5q37 72 67.5 162t30.5 170zM117 172v-27q0 -14 4 -26l422 690q-12 6 -29 6q-43 0 -89 -36t-87 -86t-74 -103t-49 -86q-35 -72 -66.5 -162t-31.5 -170z" />
<glyph unicode="&#xf9;" horiz-adv-x="919" d="M809 745l-186 -552q-6 -18 -10.5 -33t-4.5 -27q0 -29 25 -29q18 0 41.5 15.5t45 37t41 44t32.5 39.5l32 -29q-29 -45 -61.5 -88t-69.5 -76t-75.5 -52.5t-81.5 -19.5q-45 0 -63.5 20.5t-18.5 51.5q0 23 9 52.5t19 56.5l150 391l-4 2q-25 -47 -59.5 -109.5t-75.5 -127 t-86.5 -126t-88.5 -106.5q-47 -47 -91 -76t-91 -29q-53 0 -77.5 27t-24.5 61q0 31 11 68t24 70l180 456q6 16 11 32t5 28q0 16 -7 22t-17 6q-18 0 -41 -14t-44.5 -35.5t-42 -45t-32.5 -42.5l-35 31q2 4 4 9t6 9l9 13q20 31 54 67.5t75 69.5t84 55.5t83 22.5q41 0 55.5 -19.5 t14.5 -48.5q0 -23 -8 -51.5t-18 -52.5l-205 -512q-10 -27 -13.5 -39t-3.5 -23q0 -12 7.5 -24.5t29.5 -12.5q29 0 67 31t79 80t80.5 109.5t75.5 120t62.5 111.5t41.5 83q27 55 49 118.5t45 121.5q47 10 75.5 0.5t45.5 -35.5zM711 1047l-250 206q-10 10 -28.5 30t-18.5 48 q0 23 16 37t39 14q29 0 45 -13t33 -34l22 -32l181 -256h-39z" />
<glyph unicode="&#xfa;" horiz-adv-x="919" d="M809 745l-186 -552q-6 -18 -10.5 -33t-4.5 -27q0 -29 25 -29q18 0 41.5 15.5t45 37t41 44t32.5 39.5l32 -29q-29 -45 -61.5 -88t-69.5 -76t-75.5 -52.5t-81.5 -19.5q-45 0 -63.5 20.5t-18.5 51.5q0 23 9 52.5t19 56.5l150 391l-4 2q-25 -47 -59.5 -109.5t-75.5 -127 t-86.5 -126t-88.5 -106.5q-47 -47 -91 -76t-91 -29q-53 0 -77.5 27t-24.5 61q0 31 11 68t24 70l180 456q6 16 11 32t5 28q0 16 -7 22t-17 6q-18 0 -41 -14t-44.5 -35.5t-42 -45t-32.5 -42.5l-35 31q2 4 4 9t6 9l9 13q20 31 54 67.5t75 69.5t84 55.5t83 22.5q41 0 55.5 -19.5 t14.5 -48.5q0 -23 -8 -51.5t-18 -52.5l-205 -512q-10 -27 -13.5 -39t-3.5 -23q0 -12 7.5 -24.5t29.5 -12.5q29 0 67 31t79 80t80.5 109.5t75.5 120t62.5 111.5t41.5 83q27 55 49 118.5t45 121.5q47 10 75.5 0.5t45.5 -35.5zM836 1331q0 -29 -18.5 -48t-29.5 -30l-249 -206 h-39l178 256l24 32q16 20 33 33.5t45 13.5q23 0 39.5 -14t16.5 -37z" />
<glyph unicode="&#xfb;" horiz-adv-x="919" d="M809 745l-186 -552q-6 -18 -10.5 -33t-4.5 -27q0 -29 25 -29q18 0 41.5 15.5t45 37t41 44t32.5 39.5l32 -29q-29 -45 -61.5 -88t-69.5 -76t-75.5 -52.5t-81.5 -19.5q-45 0 -63.5 20.5t-18.5 51.5q0 23 9 52.5t19 56.5l150 391l-4 2q-25 -47 -59.5 -109.5t-75.5 -127 t-86.5 -126t-88.5 -106.5q-47 -47 -91 -76t-91 -29q-53 0 -77.5 27t-24.5 61q0 31 11 68t24 70l180 456q6 16 11 32t5 28q0 16 -7 22t-17 6q-18 0 -41 -14t-44.5 -35.5t-42 -45t-32.5 -42.5l-35 31q2 4 4 9t6 9l9 13q20 31 54 67.5t75 69.5t84 55.5t83 22.5q41 0 55.5 -19.5 t14.5 -48.5q0 -23 -8 -51.5t-18 -52.5l-205 -512q-10 -27 -13.5 -39t-3.5 -23q0 -12 7.5 -24.5t29.5 -12.5q29 0 67 31t79 80t80.5 109.5t75.5 120t62.5 111.5t41.5 83q27 55 49 118.5t45 121.5q47 10 75.5 0.5t45.5 -35.5zM813 1047h-111l-8 229l-194 -229h-62l-2 4 l314 342h41l28 -340z" />
<glyph unicode="&#xfc;" horiz-adv-x="919" d="M809 745l-186 -552q-6 -18 -10.5 -33t-4.5 -27q0 -29 25 -29q18 0 41.5 15.5t45 37t41 44t32.5 39.5l32 -29q-29 -45 -61.5 -88t-69.5 -76t-75.5 -52.5t-81.5 -19.5q-45 0 -63.5 20.5t-18.5 51.5q0 23 9 52.5t19 56.5l150 391l-4 2q-25 -47 -59.5 -109.5t-75.5 -127 t-86.5 -126t-88.5 -106.5q-47 -47 -91 -76t-91 -29q-53 0 -77.5 27t-24.5 61q0 31 11 68t24 70l180 456q6 16 11 32t5 28q0 16 -7 22t-17 6q-18 0 -41 -14t-44.5 -35.5t-42 -45t-32.5 -42.5l-35 31q2 4 4 9t6 9l9 13q20 31 54 67.5t75 69.5t84 55.5t83 22.5q41 0 55.5 -19.5 t14.5 -48.5q0 -23 -8 -51.5t-18 -52.5l-205 -512q-10 -27 -13.5 -39t-3.5 -23q0 -12 7.5 -24.5t29.5 -12.5q29 0 67 31t79 80t80.5 109.5t75.5 120t62.5 111.5t41.5 83q27 55 49 118.5t45 121.5q47 10 75.5 0.5t45.5 -35.5zM879 1157q0 -35 -25 -59.5t-59 -24.5 q-35 0 -59.5 24.5t-24.5 59.5t24.5 59.5t59.5 24.5t59.5 -24.5t24.5 -59.5zM573 1157q0 -35 -24.5 -59.5t-59.5 -24.5t-59 24.5t-24 59.5t24.5 59.5t58.5 24.5q35 0 59.5 -24.5t24.5 -59.5z" />
<glyph unicode="&#xfd;" horiz-adv-x="813" d="M823 797q0 -53 -34.5 -128t-110.5 -177q-39 -53 -93.5 -120t-115.5 -136.5t-123.5 -136t-120.5 -119.5q-35 -72 -70.5 -146t-82.5 -139q-117 -162 -240 -162q-59 0 -90 27.5t-31 68.5q0 39 21.5 58.5t50.5 19.5q27 0 43 -14l59 -115q25 2 55.5 34t63.5 85t64.5 123.5 t58.5 150.5q31 90 57.5 200t48.5 237q10 70 15.5 117.5t5.5 103.5q0 66 -12.5 103.5t-34.5 37.5q-18 0 -39 -19.5t-39 -47t-34.5 -55t-24.5 -46.5l-37 14q14 41 40.5 88.5t60.5 87t74 66.5t81 27q57 0 78.5 -56.5t21.5 -154.5q0 -160 -41 -322t-100 -291l2 -2 q55 55 121.5 131t129 155t114 153.5t75.5 130.5l-45 147v10q0 37 22.5 68t73.5 31q35 0 58.5 -22.5t23.5 -65.5zM805 1331q0 -29 -18.5 -48t-28.5 -30l-250 -206h-39l178 256l25 32q16 20 32.5 33.5t45.5 13.5q23 0 39 -14t16 -37z" />
<glyph unicode="&#xfe;" horiz-adv-x="831" d="M774 653q0 -121 -49 -241.5t-131 -218t-189.5 -158t-222.5 -60.5q-14 0 -18 1t-12 1l-109 -350l186 -18l-16 -55q-25 2 -59.5 3t-71.5 2t-72 1h-59q-100 0 -201 -6l17 55l137 18l358 1135q-25 -8 -52.5 -20.5t-55 -28t-52 -31.5t-41.5 -29l-10 9l62 112l166 41l147 457 l-147 41l16 53q29 2 65.5 5t74.5 7t73 8.5t61 8.5l23 -37l-168 -506h4q8 4 51 18.5t99 14.5q39 0 73.5 -14.5t62 -44t44 -73t16.5 -100.5zM623 610q0 61 -14.5 99.5t-36 61t-48 30.5t-49.5 8q-29 0 -41 -3t-22 -7l-244 -774q8 -2 22 -2q57 0 111.5 29.5t102 78.5t88 111.5 t69.5 128t45.5 128t16.5 111.5z" />
<glyph unicode="&#xff;" horiz-adv-x="813" d="M823 797q0 -53 -34.5 -128t-110.5 -177q-39 -53 -93.5 -120t-115.5 -136.5t-123.5 -136t-120.5 -119.5q-35 -72 -70.5 -146t-82.5 -139q-117 -162 -240 -162q-59 0 -90 27.5t-31 68.5q0 39 21.5 58.5t50.5 19.5q27 0 43 -14l59 -115q25 2 55.5 34t63.5 85t64.5 123.5 t58.5 150.5q31 90 57.5 200t48.5 237q10 70 15.5 117.5t5.5 103.5q0 66 -12.5 103.5t-34.5 37.5q-18 0 -39 -19.5t-39 -47t-34.5 -55t-24.5 -46.5l-37 14q14 41 40.5 88.5t60.5 87t74 66.5t81 27q57 0 78.5 -56.5t21.5 -154.5q0 -160 -41 -322t-100 -291l2 -2 q55 55 121.5 131t129 155t114 153.5t75.5 130.5l-45 147v10q0 37 22.5 68t73.5 31q35 0 58.5 -22.5t23.5 -65.5zM874 1157q0 -35 -24.5 -59.5t-58.5 -24.5q-35 0 -59.5 24.5t-24.5 59.5t24.5 59.5t59.5 24.5t59 -24.5t24 -59.5zM569 1157q0 -35 -24.5 -59.5t-59.5 -24.5 t-59.5 24.5t-24.5 59.5t25 59.5t59 24.5q35 0 59.5 -24.5t24.5 -59.5z" />
<glyph unicode="&#x132;" horiz-adv-x="1308" d="M807 1241l-197 -29l-303 -1130l182 -27l-16 -57q-25 2 -61.5 3t-76.5 2t-77 1h-125q-37 0 -76 -1t-76.5 -2t-62.5 -3l14 57l199 27l303 1130l-184 29l14 55q25 -2 61.5 -3t76.5 -2t77 -1h125q37 0 77 1t77 2t61 3zM1460 1241l-196 -29l-228 -845q-31 -115 -62.5 -212.5 t-68.5 -180.5t-84 -153.5t-108 -129.5q-68 -66 -148 -100.5t-176 -34.5q-88 0 -140 38.5t-52 108.5q0 53 30.5 75.5t59.5 22.5q12 0 22 -2t21 -10l108 -182h17q76 0 143 71q47 51 85 130t67.5 163t50 163t35.5 130l254 948l-224 29l15 55q25 -2 66.5 -3t88.5 -2t90 -1h129 q39 0 79 1t78 2t63 3z" />
<glyph unicode="&#x133;" horiz-adv-x="997" d="M438 244l-6 -11q-2 -6 -6 -12q-6 -8 -10 -14q-20 -31 -53 -71t-74 -75.5t-88 -60.5t-97 -25q-43 0 -60 19.5t-17 46.5q0 29 15 70t32 82l192 485q4 10 10.5 28.5t6.5 34.5q0 12 -5.5 22.5t-21.5 10.5q-41 0 -79 -42t-77 -107l-8 -15l-37 23l11 22q23 49 53.5 91t65 73 t73.5 48.5t78 17.5q59 0 78.5 -25.5t19.5 -54.5q0 -31 -12 -69t-29 -79l-186 -460q-6 -16 -10 -30.5t-4 -27.5q0 -12 6 -21t20 -9q16 0 39 14t46.5 35.5t45 46t37.5 45.5l14 18zM590 1286q0 -39 -27.5 -66.5t-66.5 -27.5t-66 27.5t-27 66.5t27 65.5t66 26.5t66.5 -26.5 t27.5 -65.5zM1073 1286q0 -39 -26.5 -66.5t-65.5 -27.5t-65.5 27.5t-26.5 66.5t26.5 65.5t65.5 26.5t65.5 -26.5t26.5 -65.5zM940 803q0 -33 -9 -71t-20 -66l-141 -461q-31 -100 -60.5 -172t-59 -125t-61.5 -93t-67 -75q-104 -104 -214.5 -151.5t-196.5 -47.5 q-66 0 -96.5 25.5t-30.5 68.5q0 39 21.5 59.5t49.5 20.5q27 0 41 -14l60 -115q61 8 118.5 40t104.5 81q92 94 148.5 218t109.5 292l143 461q4 10 9.5 28.5t5.5 34.5q0 33 -27 33q-45 0 -88 -53t-76 -115l-8 -18l-39 24q0 4 4 13l4 8q23 45 51.5 90t64.5 81t78 58.5t91 22.5 q53 0 71.5 -25.5t18.5 -56.5z" />
<glyph unicode="&#x152;" horiz-adv-x="1863" d="M1847 1018h-41l-61 139q-25 63 -43 78q-8 6 -16.5 7t-18.5 1h-563q-39 0 -74 2q125 -61 194.5 -185t69.5 -282q0 -45 -6 -90h236q16 0 25.5 3t19.5 20l100 149h41l-108 -407h-43l-17 161q-2 16 -10 19.5t-25 3.5h-227q-18 -92 -60 -182t-103.5 -169t-140.5 -140.5 t-167 -98.5q43 0 88 2q39 0 82 1t84 1h276q35 0 59.5 4t50.5 19.5t60.5 46.5t87.5 84q10 10 30 28.5t36 36.5l41 45h49l-139 -315h-1016q-123 0 -213 40t-150.5 110.5t-90 165t-29.5 200.5q0 135 52 273.5t146.5 251t222.5 183t279 70.5h1059zM1114 821q0 72 -14.5 145.5 t-49 134t-92 99.5t-143.5 39q-80 0 -149.5 -38t-127 -100.5t-102.5 -142t-74.5 -165.5t-46 -171t-16.5 -155t15.5 -143.5t51 -134t92 -99.5t140.5 -39q80 0 149.5 38t127 99.5t102.5 142.5t74.5 166t46 169.5t16.5 154.5z" />
<glyph unicode="&#x153;" horiz-adv-x="1099" d="M1081 723q0 -37 -15 -81t-41 -82t-61.5 -63.5t-76.5 -27.5l-254 -8q-20 -53 -33.5 -109.5t-13.5 -111.5q0 -23 3 -49.5t13 -49t27.5 -38t48.5 -15.5q33 0 65.5 14.5t62.5 37t55.5 50t43.5 52.5l35 -27q-25 -41 -61.5 -83t-81.5 -77t-95.5 -57.5t-101.5 -22.5 q-57 0 -96 37t-49 99q-37 -57 -96.5 -98.5t-125.5 -41.5q-57 0 -97 27t-64.5 69t-34.5 93t-10 98q0 74 17 147.5t46 141.5q20 51 56 110.5t83 109.5t103.5 84t120.5 34q80 0 128 -53.5t64 -124.5q25 31 56.5 61.5t68.5 57t77 43t81 16.5q78 0 115.5 -44t37.5 -118zM565 694 q0 18 -3 39t-11 39.5t-22.5 30.5t-36.5 12q-43 0 -86.5 -37t-82 -87t-69.5 -102t-47 -85q-35 -72 -63.5 -162t-28.5 -170q0 -18 2 -38.5t10 -39t22.5 -31t36.5 -12.5q43 0 87 37t83 87t69 102.5t46 84.5q35 72 64.5 162t29.5 170zM995 762q0 23 -9 46t-38 23 q-43 0 -91 -40.5t-90 -97t-76 -115t-48 -93.5l182 50q37 10 68 32.5t53.5 53t35.5 67.5t13 74z" />
<glyph unicode="&#x178;" horiz-adv-x="1097" d="M1300 1239l-135 -27l-520 -624l-135 -506l188 -27l-16 -57q-25 2 -59.5 3t-71.5 2t-74 1h-125q-41 0 -84 -1t-83 -2t-64 -3l16 57l197 27l141 520l-145 610l-144 27l15 57q25 -2 54.5 -3t61 -2t62.5 -1h117q39 0 79.5 1t78.5 2t65 3l-17 -57l-196 -27l133 -557l459 557 l-195 27l17 57q25 -2 56.5 -3t65 -2t64.5 -1h98q18 0 34.5 1t34 2t44.5 3zM1079 1513q0 -35 -24.5 -59t-59.5 -24t-59.5 24.5t-24.5 58.5q0 35 25 59.5t59 24.5q35 0 59.5 -24.5t24.5 -59.5zM774 1513q0 -35 -24.5 -59t-59.5 -24t-59.5 24.5t-24.5 58.5q0 35 24.5 59.5 t59.5 24.5t59.5 -24.5t24.5 -59.5z" />
<glyph unicode="&#x17f;" horiz-adv-x="526" d="M219 -35q-57 -233 -168 -340q-43 -43 -98 -67.5t-123 -24.5q-78 0 -123 35t-45 94q0 47 25.5 68.5t52.5 21.5q23 0 41 -12l84 -164h8q41 0 72 31q33 33 58.5 87t45 112.5t30.5 109.5t17 76l176 780h-194l18 57h189q37 160 92 271.5t125 181.5q111 111 248 111 q98 0 147 -40t49 -93q0 -43 -23.5 -63.5t-56.5 -20.5q-25 0 -43 12l-112 164q-59 -10 -99.5 -60.5t-74.5 -128.5q-39 -86 -67 -185t-46 -177z" />
<glyph unicode="&#x2c6;" horiz-adv-x="1705" d="M815 1047h-110l-9 229l-194 -229h-62l-2 4l314 342h41l28 -340z" />
<glyph unicode="&#x2dc;" horiz-adv-x="811" d="M709 1303q-12 -70 -35 -115t-51.5 -73t-59.5 -39t-59 -11q-49 0 -76 21.5t-49 43.5l-33 33q-23 23 -40 38.5t-42 15.5q-49 0 -79.5 -46.5t-43.5 -105.5h-39q12 72 35 119t51.5 74.5t59.5 39t59 11.5q45 0 69.5 -17.5t45.5 -38.5l41 -43q20 -20 37.5 -35.5t46.5 -15.5 q49 0 80.5 46t42.5 98h39z" />
<glyph unicode="&#x2000;" horiz-adv-x="886" />
<glyph unicode="&#x2001;" horiz-adv-x="1772" />
<glyph unicode="&#x2002;" horiz-adv-x="886" />
<glyph unicode="&#x2003;" horiz-adv-x="1772" />
<glyph unicode="&#x2004;" horiz-adv-x="590" />
<glyph unicode="&#x2005;" horiz-adv-x="443" />
<glyph unicode="&#x2006;" horiz-adv-x="295" />
<glyph unicode="&#x2007;" horiz-adv-x="295" />
<glyph unicode="&#x2008;" horiz-adv-x="221" />
<glyph unicode="&#x2009;" horiz-adv-x="354" />
<glyph unicode="&#x200a;" horiz-adv-x="98" />
<glyph unicode="&#x2010;" horiz-adv-x="722" d="M588 463h-484l25 100h483z" />
<glyph unicode="&#x2011;" horiz-adv-x="722" d="M588 463h-484l25 100h483z" />
<glyph unicode="&#x2012;" horiz-adv-x="722" d="M588 463h-484l25 100h483z" />
<glyph unicode="&#x2013;" horiz-adv-x="1271" d="M1128 410h-1044l22 73h1045z" />
<glyph unicode="&#x2014;" horiz-adv-x="2285" d="M2142 406h-2062l22 77h2063z" />
<glyph unicode="&#x2018;" horiz-adv-x="432" d="M227 1040q0 61 21.5 120t60.5 107t90.5 83.5t112.5 54.5l12 -33q-86 -47 -145.5 -124t-59.5 -167q0 -20 3 -30q25 14 53 14q47 0 74.5 -27.5t27.5 -72.5t-30.5 -75t-75.5 -30q-66 0 -105 49q-39 51 -39 131z" />
<glyph unicode="&#x2019;" horiz-adv-x="419" d="M510 1214q0 -61 -21.5 -119.5t-60.5 -106.5t-90 -84t-113 -54l-12 33q86 47 145.5 123.5t59.5 167.5q0 20 -2 30q-25 -14 -54 -14q-47 0 -74.5 27.5t-27.5 72.5t31 75t76 30q66 0 104 -49q39 -52 39 -132z" />
<glyph unicode="&#x201a;" horiz-adv-x="442" d="M242 0q0 -61 -21.5 -119.5t-60.5 -106.5t-90.5 -84t-112.5 -55l-12 33q86 47 145.5 124t59.5 167q0 20 -3 31q-25 -14 -53 -15q-47 0 -74.5 28t-27.5 73t30.5 74.5t75.5 29.5q66 0 105 -49q39 -51 39 -131z" />
<glyph unicode="&#x201c;" horiz-adv-x="784" d="M580 1038q0 61 21.5 120t60 107t90 83.5t112.5 54.5l13 -33q-86 -47 -145.5 -124t-59.5 -167q0 -20 2 -30q25 14 53 14q47 0 74.5 -27.5t27.5 -72.5t-30.5 -75t-75.5 -30q-66 0 -105 49q-38 51 -38 131zM227 1038q0 61 21.5 120t60.5 107t90.5 83.5t112.5 54.5l12 -33 q-86 -47 -145.5 -124t-59.5 -167q0 -20 3 -30q25 14 53 14q47 0 74.5 -27.5t27.5 -72.5t-30.5 -75t-75.5 -30q-66 0 -105 49q-39 51 -39 131z" />
<glyph unicode="&#x201d;" horiz-adv-x="772" d="M510 1214q0 -61 -21.5 -119.5t-60.5 -106.5t-90 -84t-113 -54l-12 33q86 47 145.5 123.5t59.5 167.5q0 20 -2 30q-25 -14 -54 -14q-47 0 -74.5 27.5t-27.5 72.5t31 75t76 30q66 0 104 -49q39 -52 39 -132zM862 1214q0 -61 -21.5 -119.5t-60.5 -106.5t-90 -84t-112 -54 l-13 33q86 47 145.5 123.5t59.5 167.5q0 20 -2 30q-25 -14 -53 -14q-47 0 -75 27.5t-28 72.5t31 75t76 30q66 0 104 -49q39 -52 39 -132z" />
<glyph unicode="&#x201e;" horiz-adv-x="794" d="M242 0q0 -61 -21.5 -119.5t-60.5 -106.5t-90.5 -84t-112.5 -55l-12 33q86 47 145.5 124t59.5 167q0 20 -3 31q-25 -14 -53 -15q-47 0 -74.5 28t-27.5 73t30.5 74.5t75.5 29.5q66 0 105 -49q39 -51 39 -131zM594 0q0 -61 -21.5 -119.5t-60.5 -106.5t-90 -84t-113 -55 l-12 33q86 47 145.5 124t59.5 167q0 20 -2 31q-25 -14 -54 -15q-47 0 -74.5 28t-27.5 73t31 74.5t76 29.5q66 0 104 -49q39 -51 39 -131z" />
<glyph unicode="&#x2022;" horiz-adv-x="612" d="M436 537q0 -53 -39 -92t-92 -39t-92 38.5t-39 92.5q0 53 39 92t92 39t92 -39t39 -92z" />
<glyph unicode="&#x2026;" horiz-adv-x="1658" d="M205 82q0 -45 -31 -76t-76 -31q-43 0 -74.5 31t-31.5 76t31.5 75.5t74.5 30.5q45 0 76 -30.5t31 -75.5zM840 82q0 -45 -31 -76t-76 -31q-43 0 -74.5 31t-31.5 76t31.5 75.5t74.5 30.5q45 0 76 -30.5t31 -75.5zM1454 82q0 -45 -30.5 -76t-75.5 -31q-43 0 -75 31t-32 76 t32 75.5t75 30.5q45 0 75.5 -30.5t30.5 -75.5z" />
<glyph unicode="&#x202f;" horiz-adv-x="354" />
<glyph unicode="&#x2030;" horiz-adv-x="2185" d="M1055 -23q-23 0 -52.5 7.5t-57 29t-47 61.5t-19.5 105q0 66 24 162q33 123 82 196.5t100.5 113.5t96.5 52.5t71 12.5q20 0 50 -7.5t58 -31t47 -64.5t19 -108q0 -35 -5 -75t-19 -89q-33 -121 -81 -193.5t-98 -110.5t-96 -49.5t-73 -11.5zM1245 684q-39 0 -69.5 -26.5 t-56 -73.5t-47 -109.5t-40.5 -136.5q-18 -72 -29.5 -129t-11.5 -98q0 -100 74 -101q72 0 120 86t89 242q18 72 30.5 133t12.5 109q0 49 -16.5 76.5t-55.5 27.5zM336 565q-23 0 -52.5 7.5t-57 29t-47 61t-19.5 105.5t24 162q33 123 82 196.5t100.5 113.5t96.5 52.5t72 12.5 q20 0 49.5 -7.5t57.5 -31t47.5 -64.5t19.5 -108q0 -35 -5.5 -75t-19.5 -89q-33 -121 -81 -193.5t-98 -110.5t-96 -49.5t-73 -11.5zM526 1272q-39 0 -69.5 -26.5t-56 -74t-47 -110t-42.5 -135.5q-18 -72 -29.5 -128.5t-11.5 -97.5q0 -102 76 -102q72 0 119 86t88 242 q20 72 32.5 133t12.5 108t-16.5 76t-55.5 29zM1430 1331l-1199 -1376h-75l1198 1376h76zM1718 -23q-23 0 -52.5 7.5t-57 29t-47 61.5t-19.5 105q0 66 25 162q33 123 82 196.5t100 113.5t96 52.5t72 12.5q20 0 50 -7.5t57.5 -31t47 -64.5t19.5 -108q0 -35 -5 -75t-20 -89 q-33 -121 -81 -193.5t-98 -110.5t-96 -49.5t-73 -11.5zM1909 684q-39 0 -70 -26.5t-56.5 -73.5t-47 -109.5t-39.5 -136.5q-18 -72 -29.5 -129t-11.5 -98q0 -100 74 -101q72 0 119.5 86t88.5 242q18 72 30.5 133t12.5 109q0 49 -16 76.5t-55 27.5z" />
<glyph unicode="&#x2039;" horiz-adv-x="602" d="M604 961q-25 -41 -63.5 -87.5t-84.5 -94.5t-95.5 -96t-94.5 -93q20 -45 43 -99.5t40.5 -108.5t29.5 -106.5t16 -93.5l-53 -16q-12 41 -36.5 97t-58.5 114.5t-76 112t-87 88.5l8 28q63 35 131 81t129.5 96.5t112.5 100.5t86 93z" />
<glyph unicode="&#x203a;" horiz-adv-x="602" d="M27 182q25 41 63.5 88t84.5 95.5t95 97.5t97 94q-23 45 -45.5 98.5t-40 106.5t-29.5 105.5t-14 93.5l51 16q12 -41 36.5 -97.5t59.5 -114.5t77 -111.5t87 -88.5l-8 -28q-63 -35 -131 -82t-129.5 -97.5t-113.5 -99.5t-85 -92z" />
<glyph unicode="&#x205f;" horiz-adv-x="443" />
<glyph unicode="&#x20ac;" horiz-adv-x="1316" d="M1268 967h-43q0 158 -74 228.5t-186 70.5q-86 0 -157 -39t-127 -103.5t-98 -148.5t-69 -176h442l-24 -60h-432q-10 -37 -16.5 -73.5t-10.5 -71.5h442l-24 -59h-422q-2 -16 -2 -33v-29q0 -211 70.5 -326.5t212.5 -115.5q70 0 127 24.5t103 66.5t82 98t62 118l47 -6 l-106 -324h-41l2 53q-12 -6 -34.5 -20t-58.5 -28.5t-86 -26t-116 -11.5q-102 0 -185 34t-142.5 101.5t-92 166t-32.5 227.5v31h-195l25 59h174q4 35 10 71.5t16 73.5h-184l25 60h178q35 104 93 198.5t139 166t182.5 113.5t224.5 42q111 0 176 -26.5t108 -53.5l27 53h41z" />
<glyph unicode="&#x2122;" horiz-adv-x="2150" d="M2064 489q-31 2 -73.5 3.5t-73.5 1.5h-43q-25 0 -54.5 -1t-56 -2.5t-41.5 -1.5v37l125 17l-49 432q-4 25 -6 51.5t-4 48.5l-4 53h-2l-41 -122l-193 -521h-24l-172 459q-10 29 -21.5 60.5t-21.5 58.5q-10 31 -21 59h-2q-2 -29 -6 -57q-4 -25 -6 -54.5t-6 -58.5l-64 -409 l131 -17v-37q-31 2 -73.5 3.5t-73.5 1.5q-33 0 -64.5 -1t-64.5 -4v37l106 17l97 633l-27 69l-88 21l4 37l252 -23v-35l-37 -14l156 -414q8 -23 17 -48.5t20 -47.5l20 -51h2q12 33 23 63q10 27 19 53.5t17 47.5l146 397l-43 14l2 35l229 23l4 -35l-92 -23l82 -702l96 -17v-37 zM1024 1090l-61 147q-6 14 -12.5 17t-20.5 3h-197v-714l146 -17v-37q-14 0 -43 1.5t-60 2.5t-59 1h-86q-27 0 -57.5 -1t-58.5 -2.5t-44 -1.5v37l143 17v714h-196q-14 0 -20.5 -3t-10.5 -17l-63 -147h-37l32 247h33l31 -34q8 -8 14 -9h553q6 0 15 9l30 34h37l33 -247h-41z " />
<glyph unicode="&#x2153;" horiz-adv-x="1374" d="M1339 1331l-1198 -1376h-75l1198 1376h75zM1288 614q0 -39 -16.5 -69.5t-42 -55t-58 -43t-63.5 -32.5q59 -18 84 -64.5t25 -85.5q0 -66 -29 -117t-76 -86.5t-106.5 -55t-118.5 -19.5q-53 0 -93 18.5t-40 50.5q0 23 16 38.5t39 15.5q12 0 21.5 -2.5t19.5 -10.5l51 -80 q2 2 8 2q47 0 86 21.5t67 54.5t42 72t14 74q0 41 -14 64.5t-33.5 36.5t-42 17t-39.5 7l-2 12l35 20l57 33q29 16 49 37q29 27 47.5 60.5t18.5 66.5q0 35 -20.5 50t-51.5 15q-47 0 -89 -30.5t-70 -77.5l-27 20q31 72 89 113t132 41q59 0 95 -30t36 -81zM389 1208l-119 6l9 27 q35 10 73.5 21.5t69.5 21.5q37 12 72 27h30l-182 -674l113 -14l-9 -39q-12 0 -35.5 1t-49 2t-50.5 1h-71q-23 0 -47.5 -1t-47 -2t-36.5 -1l8 39l119 14z" />
<glyph unicode="&#x2154;" horiz-adv-x="1476" d="M109 600l6 33q29 23 69.5 57.5t85.5 74.5t90.5 83t81.5 86q23 25 45.5 55.5t41 61t30.5 62.5t12 61q0 35 -20.5 57t-61.5 22q-59 0 -101 -37.5t-71 -85.5l-30 23q14 29 36.5 59.5t54.5 55t75 41t96 16.5q72 0 108.5 -38t36.5 -91q0 -51 -23.5 -96t-57 -86t-72.5 -76 t-72 -66q-53 -47 -116.5 -95t-108.5 -81v-2h200q41 0 58.5 13.5t42.5 40.5l22 24h35l-84 -176h-16q-8 4 -27 4h-366zM1442 1331l-1198 -1376h-76l1198 1376h76zM1391 614q0 -39 -16.5 -69.5t-42 -55t-58.5 -43t-64 -32.5q59 -18 84 -64.5t25 -85.5q0 -66 -28.5 -117 t-76 -86.5t-106.5 -55t-119 -19.5q-53 0 -93 18.5t-40 50.5q0 23 16.5 38.5t38.5 15.5q12 0 21.5 -2.5t19.5 -10.5l52 -80q2 2 8 2q47 0 86 21.5t66.5 54.5t42 72t14.5 74q0 41 -14.5 64.5t-34 36.5t-42 17t-38.5 7l-2 12l34 20l58 33q29 16 49 37q29 27 47 60.5t18 66.5 q0 35 -20.5 50t-50.5 15q-47 0 -89 -30.5t-71 -77.5l-27 20q31 72 89.5 113t132.5 41q59 0 95 -30t36 -81z" />
<glyph unicode="&#x215b;" horiz-adv-x="1392" d="M1341 602q0 -41 -18 -74.5t-46 -61.5t-61.5 -48.5t-64.5 -34.5q100 -86 100 -176q0 -45 -20.5 -85t-57 -71t-89 -48t-113.5 -17q-84 0 -134.5 33.5t-50.5 93.5q0 49 22.5 90t56.5 71.5t76 53t83 37.5q-31 27 -49.5 49t-28.5 41.5t-13 39t-3 42.5q0 39 19.5 73.5t52 60 t75.5 40t90 14.5q76 0 125 -32t49 -91zM1339 1331l-1198 -1376h-75l1198 1376h75zM389 1208l-119 6l9 27q35 10 73.5 21.5t69.5 21.5q37 12 72 27h30l-182 -674l113 -14l-9 -39q-12 0 -35.5 1t-49 2t-50.5 1h-71q-23 0 -47.5 -1t-47 -2t-36.5 -1l8 39l119 14zM1145 190 q0 39 -25.5 75t-66.5 71q-16 -8 -46 -25.5t-59.5 -43t-51.5 -62.5t-22 -82q0 -41 29 -68.5t76 -27.5q74 0 120 48.5t46 114.5zM1257 602q0 31 -24.5 55.5t-71.5 24.5q-59 0 -96 -36t-37 -79q0 -63 26.5 -93t67.5 -64q53 29 94 80t41 112z" />
<glyph unicode="&#x215c;" horiz-adv-x="1454" d="M1403 602q0 -41 -18.5 -74.5t-46 -61.5t-61.5 -48.5t-65 -34.5q100 -86 101 -176q0 -45 -20.5 -85t-57.5 -71t-89 -48t-114 -17q-84 0 -134 33.5t-50 93.5q0 49 22.5 90t56.5 71.5t75.5 53t82.5 37.5q-31 27 -49 49t-28.5 41.5t-13.5 39t-3 42.5q0 39 19.5 73.5t52.5 60 t76 40t90 14.5q76 0 125 -32t49 -91zM1401 1331l-1198 -1376h-76l1198 1376h76zM647 1214q0 -39 -16.5 -69.5t-42 -55t-58 -43t-63.5 -32.5q59 -18 83.5 -64.5t24.5 -85.5q0 -66 -28.5 -117t-75.5 -86.5t-106.5 -55t-118.5 -19.5q-53 0 -93 18.5t-40 50.5q0 23 16 38.5 t39 15.5q12 0 21.5 -2t19.5 -11l49 -78h10q47 0 86 22t67 54.5t42 71.5t14 74q0 41 -14 64.5t-33.5 36.5t-42 17.5t-39.5 6.5l-2 12l35 20l57 33q29 16 49 37q29 27 47.5 60.5t18.5 66.5q0 35 -20.5 50.5t-51.5 15.5q-47 0 -89 -31t-70 -78l-27 20q31 72 89 113t132 41 q59 0 95 -30t36 -81zM1206 190q0 39 -25.5 75t-66.5 71q-16 -8 -46 -25.5t-59.5 -43t-51 -62.5t-21.5 -82q0 -41 28.5 -68.5t75.5 -27.5q74 0 120 48.5t46 114.5zM1319 602q0 31 -24.5 55.5t-71.5 24.5q-59 0 -96 -36t-37 -79q0 -63 26.5 -93t67.5 -64q53 29 94 80t41 112z " />
<glyph unicode="&#x215d;" horiz-adv-x="1454" d="M1403 602q0 -41 -18.5 -74.5t-46 -61.5t-61.5 -48.5t-65 -34.5q100 -86 101 -176q0 -45 -20.5 -85t-57.5 -71t-89 -48t-114 -17q-84 0 -134 33.5t-50 93.5q0 49 22.5 90t56.5 71.5t75.5 53t82.5 37.5q-31 27 -49 49t-28.5 41.5t-13.5 39t-3 42.5q0 39 19.5 73.5t52.5 60 t76 40t90 14.5q76 0 125 -32t49 -91zM690 1214h-270l-70 -180q14 4 27 4h26q84 0 144.5 -41t60.5 -131q0 -59 -27.5 -110t-76.5 -89t-115.5 -59.5t-142.5 -21.5q-53 0 -96.5 17.5t-43.5 51.5q0 23 16.5 37.5t37.5 14.5q14 0 21 -3.5t18 -7.5l57 -78h16q49 0 91.5 20.5 t72 53.5t46 73t16.5 79q0 59 -34 94t-95 35q-35 0 -76 -10l-14 4l129 329h266l43 50h33zM1401 1331l-1198 -1376h-76l1198 1376h76zM1206 190q0 39 -25.5 75t-66.5 71q-16 -8 -46 -25.5t-59.5 -43t-51 -62.5t-21.5 -82q0 -41 28.5 -68.5t75.5 -27.5q74 0 120 48.5t46 114.5z M1319 602q0 31 -24.5 55.5t-71.5 24.5q-59 0 -96 -36t-37 -79q0 -63 26.5 -93t67.5 -64q53 29 94 80t41 112z" />
<glyph unicode="&#x215e;" horiz-adv-x="1470" d="M1417 1331l-1198 -1376h-76l1198 1376h76zM1419 602q0 -41 -18.5 -74.5t-46 -61.5t-61 -48.5t-64.5 -34.5q100 -86 100 -176q0 -45 -20.5 -85t-57.5 -71t-89 -48t-113 -17q-84 0 -134.5 33.5t-50.5 93.5q0 49 22.5 90t56.5 71.5t76 53t83 37.5q-31 27 -49.5 49 t-28.5 41.5t-13 39t-3 42.5q0 39 19.5 73.5t52 60t75.5 40t90 14.5q76 0 125 -32t49 -91zM1335 602q0 31 -24.5 55.5t-71.5 24.5q-59 0 -96 -36t-37 -79q0 -63 26.5 -93t67.5 -64q53 29 94 80t41 112zM1223 190q0 39 -26 75t-67 71q-16 -8 -45.5 -25.5t-59.5 -43 t-51.5 -62.5t-21.5 -82q0 -41 29 -68.5t76 -27.5q74 0 120 48.5t46 114.5zM930 1288q-35 -43 -83 -104.5t-101.5 -131t-108.5 -140t-104.5 -134t-89.5 -113t-62 -73.5q-16 -16 -30.5 -22.5t-35.5 -6.5q-10 0 -29.5 4t-19.5 21q0 6 2 10q2 6 6.5 11t16.5 18.5t34.5 37 t63.5 66.5q49 51 105.5 112.5t114 125t111.5 126t101 117.5h-231q-39 0 -62.5 -12t-48.5 -31q-12 -10 -25.5 -20t-23.5 -21h-24l122 215h29l-2 -47h371z" />
<glyph unicode="&#x25fc;" horiz-adv-x="880" d="M0 881h881v-881h-881v881z" />
<glyph unicode="&#xfb06;" horiz-adv-x="1050" d="M543 776q0 -43 -24.5 -60.5t-53.5 -17.5q-12 0 -24.5 3.5t-18.5 9.5l-76 127q-31 0 -67.5 -35t-36.5 -96q0 -53 19.5 -94.5t47.5 -90.5l8 -14q29 -49 52.5 -102.5t23.5 -120.5q0 -82 -28.5 -140.5t-70.5 -96.5t-91 -55.5t-90 -17.5q-70 0 -119 30t-49 87q0 41 25.5 60.5 t54.5 19.5q39 0 59 -31l51 -129q16 0 41 11.5t47.5 33t37.5 54t15 75.5q0 59 -23.5 107.5t-49.5 101.5l-6 13q-25 51 -46.5 98t-21.5 100q0 55 18.5 103.5t49 83t70.5 58t83 30.5q-37 53 -62.5 121.5t-25.5 134.5q0 76 39 120q45 51 145 52q35 0 80 -5.5t92.5 -11.5 t96.5 -11t94 -5q94 0 156.5 22.5t87.5 79.5q8 6 28.5 8.5t43 1t44 -7.5t33.5 -16q-6 -31 -26.5 -58.5t-47.5 -41.5l-176 -435h164l-22 -57h-164l-223 -559q-20 -55 -21 -78q0 -27 29 -26q14 0 36.5 14t46 34.5t46 45t39.5 47.5l12 16l37 -26l-23 -35q-20 -31 -52 -71 t-73 -74.5t-88 -59.5t-98 -25q-41 0 -59.5 17.5t-18.5 44.5t13.5 66.5t25.5 72.5l234 596h-154l23 57h153l94 232q29 72 48.5 117t29.5 69l-4 2q-41 -16 -107.5 -21t-125.5 -5q-31 0 -67 2t-72 3t-68.5 3t-57.5 2q-49 0 -76.5 -11.5t-43.5 -29.5q-31 -37 -31 -98 q0 -51 15.5 -106.5t37.5 -102.5q78 0 117 -31t39 -78z" />
<glyph horiz-adv-x="1292" d="M819 758q-10 -29 -39.5 -48.5t-64.5 -19.5q-49 0 -81 31t-32 80q0 51 35 82.5t88 31.5q66 0 106.5 -47t40.5 -125q0 -63 -23.5 -124.5t-68.5 -108.5t-107.5 -77t-140.5 -30q-68 0 -126 23t-101 66t-67.5 105t-24.5 144q0 109 45 210.5t125 180t188.5 127t235.5 48.5 q100 0 185 -31t146.5 -89.5t95.5 -144.5t34 -194q0 -125 -45 -245t-119 -225.5t-168 -191.5t-193 -143l2 -4q51 -25 114 -55.5t125.5 -63.5t118.5 -62.5t97 -50.5q74 -39 161 -85t180 -84.5t188.5 -64.5t187.5 -26q66 0 117 11.5t90 27t67.5 34t49.5 34.5l30 -35 q-33 -29 -72.5 -58.5t-96 -54t-132.5 -40t-178 -15.5q-92 0 -180 20.5t-176 53.5t-173 76t-171 88q-29 14 -82.5 43.5t-119 65.5t-141 77t-151.5 80q-25 -12 -65.5 -34.5t-96 -44t-121 -38t-137.5 -16.5q-125 0 -190.5 49t-65.5 131q0 49 23.5 88t65.5 65.5t97.5 41 t118.5 14.5q113 0 225.5 -42t235.5 -99q102 68 185 155.5t140.5 186t88.5 201t31 200.5q0 186 -97.5 293.5t-269.5 107.5q-90 0 -167 -34.5t-132 -94t-87 -137.5t-32 -164q0 -123 65.5 -196.5t176.5 -73.5q61 0 105 26.5t73 64.5t43 80t18 73h-10zM258 -106q78 0 145.5 21.5 t141.5 61.5v5q-45 20 -106.5 45.5t-124 48t-117 38t-86.5 15.5q-76 0 -76 -82q0 -68 57 -110.5t166 -42.5z" />
<glyph horiz-adv-x="1624" d="M1751 1147q0 -35 -11 -75t-35 -73.5t-60.5 -56t-90.5 -22.5q-66 0 -155.5 24.5t-171.5 42.5q-25 6 -49.5 11.5t-47.5 9.5v-4q31 -25 62 -59t54.5 -79t38.5 -102t15 -129q0 -141 -55 -263t-148 -212t-216 -141.5t-256 -51.5q-119 0 -217.5 38t-170 105.5t-111.5 162 t-40 208.5q0 96 34 177t91 140.5t132 93.5t159 34h14l119 325l-156 47l27 78q55 2 118.5 7.5t112.5 9.5l27 -25l-453 -1153q47 -41 125 -69.5t164 -28.5q135 0 249 49t196.5 130t130 183.5t47.5 210.5q0 119 -48.5 198t-107.5 126q-10 0 -24.5 1t-22.5 1q-66 0 -118 -22.5 t-91 -56.5t-62.5 -73t-31.5 -71l172 -31q23 -27 22 -57q0 -45 -28.5 -80t-75.5 -35q-59 0 -98 39t-39 112q0 76 33.5 150t91.5 131q66 66 134 88.5t128 24.5q59 -2 116.5 -12.5t120.5 -26.5q80 -20 162 -39t143 -19q47 0 78 18.5t31 59.5l-195 80q-14 16 -14 51t22.5 67 t75.5 32q29 0 56.5 -16.5t49 -43t35 -63.5t13.5 -76zM465 784q-10 2 -31 2q-53 0 -102 -17t-89 -51t-63.5 -84t-23.5 -116q0 -78 29.5 -144.5t80.5 -119.5z" />
<glyph horiz-adv-x="1374" d="M545 780q0 -47 -24.5 -64.5t-53.5 -17.5q-12 0 -24.5 3.5t-18.5 9.5l-76 127q-31 0 -67.5 -35t-36.5 -96q0 -53 19.5 -94.5t47.5 -90.5l8 -14q29 -49 52.5 -102.5t23.5 -120.5q0 -82 -28.5 -140.5t-70.5 -96.5t-91 -55.5t-90 -17.5q-70 0 -119 30t-49 87q0 41 25.5 60.5 t54.5 19.5q39 0 59 -31l51 -129q16 0 41 11.5t47.5 33t38 54t15.5 75.5q0 59 -24 107.5t-50 101.5l-6 13q-25 51 -46.5 98t-21.5 100q0 104 57.5 175t135.5 93q-37 53 -65 124t-28 139q0 76 39 120q45 51 146 52q72 0 170 -16.5t188 -16.5q94 0 159.5 22.5t90.5 79.5 q8 6 28.5 8.5t43 1t44 -7.5t34.5 -16q-6 -31 -27 -58.5t-47 -41.5l-129 -408v-4q8 4 51 18.5t98 14.5q39 0 74 -14.5t62.5 -44t44 -72.5t16.5 -101q0 -121 -49 -241.5t-131 -218t-189.5 -158t-222.5 -60.5h-18q-4 0 -13 2l-110 -350l188 -18l-16 -55q-25 2 -59.5 3t-72.5 2 t-73 1h-59q-98 0 -199 -6l16 55l137 18l359 1135q-25 -8 -52.5 -20.5t-55 -28t-52 -31.5t-41.5 -29l-10 9l61 112l164 41l72 232q23 74 39 124t26 74l-4 2q-41 -16 -109.5 -21t-127.5 -5q-31 0 -66 2t-70.5 3t-67.5 3t-56 2q-49 0 -77 -11.5t-44 -29.5q-31 -37 -31 -98 q0 -51 15.5 -106.5t37.5 -102.5q8 0 16.5 1t16.5 1q78 0 117 -31t39 -74zM1165 614q0 59 -14 97.5t-35.5 60t-48.5 29.5t-49 8q-29 0 -41 -3t-23 -7l-243 -774q8 -2 22 -2q86 0 164 63.5t137.5 155.5t95 194t35.5 178z" />
<glyph horiz-adv-x="643" d="M598 940q-4 -12 -11 -32.5t-13.5 -42t-11.5 -40t-5 -30.5q0 -23 14 -23t34 14.5t39.5 36t38.5 45t32 39.5l35 -24q-4 -4 -7 -9q-4 -4 -5 -7t-3 -5q-16 -23 -39.5 -55.5t-53.5 -63t-63.5 -52t-70.5 -21.5q-31 0 -43 20.5t-12 54.5q0 23 6 49.5t15 54.5t19.5 53.5 t16.5 43.5q0 2 1 4t1 6q-16 -39 -52 -98t-85 -110q-33 -35 -71 -56.5t-79 -21.5q-51 0 -69.5 30.5t-18.5 75.5q0 59 16.5 123t45 123t66.5 113.5t79 95.5q57 57 112.5 89t94.5 32t55.5 -12.5t30.5 -28.5l29 65q23 10 47 9t37 -15zM600 1225q-12 23 -31.5 40t-56.5 17 q-49 0 -96 -47t-84 -114.5t-58.5 -141.5t-21.5 -127q0 -78 45 -78q31 0 65.5 31t68.5 79t63.5 104t52.5 108z" />
<glyph horiz-adv-x="634" d="M768 1253q0 -51 -16.5 -109.5t-46 -115.5t-68.5 -110.5t-84 -96.5q-68 -68 -145.5 -109.5t-151.5 -41.5q-68 0 -91.5 23.5t-31.5 39.5l299 905l-110 29l14 45q25 2 50.5 4t53.5 6q23 4 49.5 6.5t51.5 4.5l18 -27l-147 -442q-33 -98 -57.5 -165t-22.5 -69q31 55 79 118.5 t103 117.5q39 35 86 60.5t88 25.5q45 0 62.5 -27t17.5 -72zM653 1198q0 16 -8 31.5t-29 15.5q-29 0 -64.5 -24.5t-69 -59.5t-62.5 -70.5t-43 -58.5q-18 -25 -40 -59.5t-40 -72.5t-30.5 -75t-12.5 -65q0 -18 8 -33.5t27 -15.5q29 0 64.5 25.5t70.5 59t63.5 69.5t42.5 59 q18 25 40 59.5t40.5 71.5t30.5 74.5t12 68.5z" />
<glyph horiz-adv-x="475" d="M643 1272q0 -33 -17.5 -54.5t-47.5 -21.5q-16 0 -24.5 2t-14.5 6l-29 117q-29 -10 -56.5 -39t-53 -62.5t-46 -67.5t-30.5 -56q-23 -51 -41.5 -111.5t-18.5 -116.5q0 -16 3 -33.5t10.5 -34t19.5 -26.5t33 -10q33 0 66.5 27.5t66.5 68.5l29 -26q-14 -25 -37 -53.5 t-50.5 -53.5t-59.5 -40t-64 -15q-37 0 -61.5 14t-39 38t-19.5 52.5t-5 59.5q0 80 30.5 171t83 167.5t121 128t144.5 51.5q53 0 80.5 -23.5t27.5 -58.5z" />
<glyph horiz-adv-x="653" d="M600 938q0 2 -4 -12.5t-8 -24.5q-10 -29 -19.5 -60.5t-9.5 -47.5q0 -23 14 -23t34 14.5t39.5 36t39 45t31.5 41.5l35 -26l-17 -23q-16 -25 -40.5 -56.5t-53.5 -61t-61.5 -50t-67.5 -20.5q-33 0 -45 20.5t-12 52.5q0 23 7 50.5t16 56.5t20.5 55.5t17.5 44.5q0 4 1 5t1 6 l-4 -5q-8 -18 -21.5 -44.5t-31 -55.5t-39 -57.5t-45.5 -53.5q-33 -35 -71 -55t-79 -20q-51 0 -69.5 29.5t-18.5 72.5q0 61 17.5 125t46 123t65.5 113.5t78 95.5q57 55 113.5 89t93.5 34q31 0 47 -9.5t27 -21.5l106 317l-112 29l14 45l168 17l39 4l18 -27zM602 1223 q-12 23 -31.5 40t-56.5 17q-49 0 -96 -47t-84 -113.5t-58.5 -140.5t-21.5 -129q0 -78 45 -78q31 0 65.5 31t68.5 79t63.5 104t52.5 108l29 69z" />
<glyph horiz-adv-x="497" d="M633 1239q0 -37 -12.5 -71.5t-33 -62.5t-47 -45.5t-55.5 -19.5l-184 -6q-37 -92 -37 -164q0 -16 2 -34.5t8.5 -35t19.5 -27.5t36 -11q37 0 83 29.5t87 85.5l28 -25q-49 -86 -119.5 -133t-136.5 -47q-35 0 -57 15t-36.5 40t-19.5 54.5t-5 58.5q0 59 19.5 129.5t57.5 142.5 q20 37 51 79t69 78t81 60.5t88 24.5q55 0 84 -31t29 -84zM565 1262q0 23 -9 37t-26 14q-18 0 -44.5 -19.5t-56.5 -50.5t-57.5 -72t-49.5 -84l-3 -6l-10 -22l131 35q55 23 90 75t35 93z" />
<glyph horiz-adv-x="409" d="M854 1628q0 -35 -18.5 -51t-44.5 -16q-18 0 -33 10l-86 125q-16 -2 -31.5 -11.5t-26.5 -19.5q-29 -29 -51 -77t-40.5 -98t-31 -94t-16.5 -65l-6 -20h135l-12 -47h-133l-150 -600q-43 -176 -125 -258q-33 -33 -73.5 -51.5t-94.5 -18.5q-59 0 -93 26.5t-34 73.5 q0 37 20.5 53.5t41.5 16.5q14 0 29 -10l69 -123q10 2 25.5 7t25.5 15q25 25 44.5 66t34 84t22.5 81t12 56l133 582h-145l12 47h141q29 117 71 201.5t91 136.5q82 82 189 82q76 0 112.5 -31t36.5 -72z" />
<glyph horiz-adv-x="540" d="M729 1300q0 -31 -19.5 -42t-39.5 -11l-78 25l-21 -8q27 -45 27 -105q0 -45 -16.5 -94t-45 -91t-70.5 -68.5t-91 -26.5q-16 0 -31.5 3t-28.5 7q-6 -6 -13 -19.5t-7 -29.5q0 -37 33.5 -55.5t79.5 -36.5q10 -4 27.5 -11.5t27.5 -11.5q33 -16 66.5 -32.5t60 -38t43 -50.5 t16.5 -67q0 -53 -23.5 -91t-62.5 -63t-90 -36t-106 -11q-61 0 -119 10t-103 32.5t-72.5 57.5t-27.5 84q0 43 25.5 74t60.5 51.5t74 31.5t67 15q-31 16 -49 43t-18 56q0 43 26.5 70.5t57.5 37.5q-35 27 -56.5 70t-21.5 96q0 45 15.5 95t45 92t70.5 70t92 28q41 0 69.5 -15.5 t51.5 -44.5q39 27 69.5 42.5t55.5 15.5q49 -1 49 -48zM510 1227q0 23 -8 49.5t-35 26.5q-18 0 -39.5 -17.5t-40 -42t-35 -51.5t-26.5 -45q-14 -35 -25.5 -75t-11.5 -75q0 -23 8 -48t35 -25q20 0 40.5 16t40 41t35 51.5t25.5 44.5q14 35 25.5 75t11.5 75zM551 504 q0 43 -26.5 63.5t-75.5 42.5l-15 6q-16 6 -35.5 15.5t-38.5 17.5q-23 8 -43 21q-23 -4 -53.5 -12.5t-58 -24t-46 -38t-18.5 -52.5q0 -31 18.5 -59.5t50.5 -52t78 -37t101 -13.5q90 0 126 38t36 85z" />
<glyph horiz-adv-x="634" d="M741 1229q0 -88 -28.5 -186.5t-75.5 -181.5t-107.5 -137t-126.5 -54q-37 0 -62.5 18.5t-25.5 56.5q0 35 18.5 52.5t41.5 17.5q35 0 43 -33l-6 -88q25 2 49 23.5t45.5 55.5t40 77t35.5 86q23 59 34 118.5t11 106.5q0 61 -13.5 76.5t-21.5 15.5q-37 0 -81 -48t-87 -114.5 t-79 -136t-56 -112.5q-4 -6 -9.5 -17.5t-7.5 -17.5q-10 -18 -17 -36.5t-11 -31.5l-25 -65q-10 -4 -20 -4h-17q-23 0 -34 7t-21 23l309 938l-110 29l14 45q33 2 65.5 5t73.5 7l68 9l18 -27l-137 -408q-20 -61 -39.5 -115.5t-34 -95t-22.5 -64.5t-6 -24q27 53 65.5 116 t82.5 115t93 87t97 35q35 0 56 -31t21 -92z" />
<glyph horiz-adv-x="391" d="M479 872q-2 -4 -4 -9t-4 -9q-4 -6 -6 -12q-16 -23 -41 -52.5t-55.5 -55t-66.5 -44t-73 -18.5q-35 0 -48 14t-13 37q0 18 11 47t24 57l2 7l143 364q4 8 8 22.5t4 24.5q0 8 -3 15.5t-15 7.5q-29 0 -58.5 -31t-58.5 -84l-4 -8l-31 18l9 19q35 74 90 123t114 49 q45 0 59.5 -20.5t14.5 -43.5q0 -16 -5 -39.5t-15 -48.5l-8 -20l-142 -344q-10 -27 -10 -43q0 -20 18 -21q12 0 28.5 11.5t33 26.5t33 33.5t28.5 33.5l15 16l26 -21v-2zM594 1653q0 -31 -21.5 -52.5t-52.5 -21.5t-50 21.5t-19 52.5q0 29 19 49t50 20t52.5 -20t21.5 -49z" />
<glyph horiz-adv-x="362" d="M575 1653q0 -31 -20 -51.5t-49 -20.5q-31 0 -51.5 20.5t-20.5 51.5t20.5 51t51.5 20q29 0 49 -20t20 -51zM477 1292q0 -25 -7 -52.5t-15 -49.5l-105 -346q-23 -74 -45 -128t-43.5 -94t-45 -70t-50.5 -56q-78 -78 -162 -114t-147 -36q-51 0 -75 19.5t-24 54.5 q0 29 16.5 45t41.5 16q23 0 30 -8l43 -88q43 4 86 28.5t78 61.5q66 68 111 166t84 213l106 344q4 10 7.5 23.5t3.5 25.5q0 8 -4.5 15.5t-12.5 7.5q-35 0 -66.5 -39t-54.5 -86l-8 -19l-33 21l7 18q16 33 38.5 67t49 60.5t58.5 44t69 17.5q41 0 55 -19.5t14 -42.5z" />
<glyph horiz-adv-x="641" d="M766 1296q0 -23 -17.5 -42t-48.5 -19l-67 35q-4 -2 -19.5 -21.5t-33.5 -46.5q-16 -23 -32 -43t-30 -35q-35 -37 -78 -49q29 -4 45.5 -13t26.5 -20q35 -35 43 -124l12 -80q4 -29 8.5 -52.5t18.5 -23.5q16 0 36.5 33.5t41.5 93.5l37 -8l-4 -15q-12 -49 -33 -91t-45 -66 q-37 -37 -76 -37q-41 0 -55.5 27.5t-24.5 99.5q-10 74 -17.5 130t-17.5 81q-16 49 -82 55l-125 -389q-10 -4 -20 -4h-16q-45 0 -64 30l309 938l-110 29l14 45q25 2 50.5 4t53.5 6q23 4 48.5 5.5t54.5 5.5l18 -27l-43 -129q-20 -59 -44.5 -132t-47.5 -147l-67 -202h18 q25 0 46.5 9t47.5 34q20 23 39 47t35 49q16 23 30.5 42t30.5 36q16 16 37 27.5t47 11.5q37 0 53.5 -17.5t16.5 -40.5z" />
<glyph horiz-adv-x="376" d="M295 844q-4 -12 -8 -25.5t-4 -23.5q0 -20 16 -21q14 0 34.5 15.5t43 38t42 46t30.5 39.5l10 11l28 -23q-2 -4 -3 -9t-5 -9l-8 -13q-18 -27 -46 -60.5t-62.5 -64t-73.5 -52t-80 -21.5q-23 0 -38 11t-15 38q0 25 10 56.5t20 56.5l271 806l-111 29l12 45q39 2 94.5 8.5 t96.5 10.5q4 0 7 1t7 1l19 -29z" />
<glyph horiz-adv-x="1024" d="M1106 860l-16 -20q-14 -20 -35 -49t-47.5 -55.5t-57 -45t-65.5 -18.5q-39 0 -51.5 17.5t-12.5 39.5q0 20 8.5 48t20.5 61l125 344q4 12 8 25.5t4 23.5q0 25 -22 24q-37 0 -81 -49t-87 -115.5t-79 -136t-54 -110.5q-10 -16 -25.5 -49t-22.5 -52l-24 -63q-16 -6 -31 -6 q-43 0 -61 35l155 473l2 6q10 27 11 43q0 25 -23 24q-35 0 -79 -49t-86 -115.5t-76.5 -136t-53.5 -110.5q-10 -16 -24.5 -48t-22.5 -53l-22 -63q-10 -2 -18.5 -3t-18.5 -1q-41 0 -60 31l144 467l6 18q12 37 12 57q0 10 -3 17.5t-19 7.5q-18 0 -36 -12.5t-33 -30t-26.5 -36.5 t-17.5 -34l-31 15q12 31 31.5 62.5t45.5 57t57.5 42t68.5 16.5t52.5 -17.5t15.5 -44.5q0 -16 -4.5 -34.5t-12.5 -47.5l-74 -252q18 37 42 81t50.5 87t54.5 81t54 67q74 80 150 80q35 0 50 -21.5t15 -52.5q0 -18 -7 -48t-19 -67l-70 -194q18 37 43 80t50.5 84t53 76.5 t52.5 62.5q78 80 153 80q39 0 55.5 -21.5t16.5 -54.5q0 -16 -7 -45t-18 -62q-31 -82 -63.5 -165.5t-61.5 -165.5q-12 -29 -12 -49q0 -18 14 -19q10 0 24.5 11.5t30 26.5t30 32.5t24.5 29.5l10 13l31 -21v-4z" />
<glyph horiz-adv-x="710" d="M784 848q-12 -20 -33.5 -51t-50 -59.5t-62.5 -49t-71 -20.5t-49 17t-12 40q0 31 20 88l9 21l124 344q10 27 11 49q0 25 -23 24q-35 0 -79 -49t-86 -115.5t-77.5 -136t-54.5 -110.5q-10 -16 -26.5 -48t-22.5 -53q-6 -12 -15.5 -31.5t-13.5 -31.5q-8 -2 -14 -3t-14 -1 q-45 0 -60 33l144 464l6 19q12 37 12 57q0 10 -4 17.5t-18 7.5q-18 0 -36 -12.5t-33 -30t-26.5 -37t-19.5 -33.5l-29 14q12 31 30.5 63t45.5 57.5t57.5 42t67.5 16.5t52.5 -17.5t15.5 -44.5q0 -16 -4.5 -34.5t-12.5 -47.5l-74 -252q18 39 42 82t51.5 86t56.5 81t55 67 q41 43 77 61.5t77 18.5t57.5 -21.5t16.5 -54.5q0 -16 -7.5 -45t-19.5 -62q-31 -82 -64.5 -167t-62.5 -164q-2 -2 -2 -7q0 -2 -2 -4q-4 -12 -6 -21t-2 -20q0 -18 16 -18q10 0 26.5 13.5t34 31.5t33 37.5t25.5 32.5l33 -23z" />
<glyph horiz-adv-x="567" d="M664 1135q0 -55 -13.5 -110.5t-36.5 -106.5q-18 -39 -46.5 -83t-65.5 -82t-81 -62.5t-93 -24.5q-45 0 -77 19.5t-51.5 51t-27.5 69.5t-8 75q0 55 13 109t36 106q20 39 50 84t68 82.5t81 62.5t88 25t75.5 -19.5t50 -50.5t29 -68.5t9.5 -76.5zM586 1206q0 29 -10.5 59.5 t-45.5 30.5q-31 0 -64.5 -26.5t-63 -63.5t-54 -75.5t-39.5 -65.5q-27 -53 -50 -122t-23 -126q0 -29 10 -58.5t45 -29.5q33 0 67.5 26.5t64.5 63.5t53.5 76t35.5 63q29 53 51.5 121t22.5 127z" />
<glyph horiz-adv-x="622" d="M731 1180q0 -90 -37 -181.5t-98 -164t-141 -117.5t-166 -45q-6 0 -9.5 1t-7.5 1h-6l-80 -260l140 -13l-13 -45q-18 0 -44.5 1t-54.5 2t-54 1h-45q-41 0 -78 -1t-76 -3l12 45l105 13q66 209 134.5 423t133.5 423q-33 -10 -77 -36t-72 -48l-9 8l45 88l125 31l52 163 q16 8 49 13.5t57 -11.5l-39 -133q12 4 41 12.5t64 8.5q59 0 104 -44t45 -132zM614 1147q0 45 -10 73.5t-26.5 45t-36 22.5t-35.5 6t-26.5 -2t-16.5 -6l-184 -575q4 -2 8 -1t8 1q63 0 120.5 47t101.5 115.5t70.5 143.5t26.5 130z" />
<glyph horiz-adv-x="600" d="M432 412l137 -15l-12 -43q-18 2 -44 3t-54 1h-176q-37 0 -76 -4l12 43l105 15l88 243l41 117l59 178q-18 -39 -53 -98t-82 -107q-33 -35 -71 -55t-79 -20q-51 0 -69.5 29.5t-18.5 74.5q0 59 17.5 123t46 123t65.5 113.5t78 95.5q57 57 112.5 91t94.5 34t55.5 -14.5 t30.5 -30.5l29 69q23 8 48 7t36 -13zM602 1223q-12 23 -31.5 40t-56.5 17q-49 0 -96 -47t-84 -113.5t-58.5 -140.5t-21.5 -127q0 -80 45 -80q31 0 65.5 31t68.5 79t63.5 104t52.5 108l29 69z" />
<glyph horiz-adv-x="522" d="M717 1282q0 -39 -19.5 -59.5t-48.5 -20.5q-16 0 -31 8l-32 70q-29 -4 -66 -59.5t-73.5 -133t-69.5 -160.5t-55 -141l-17 -45l-26 -63q-10 -2 -18.5 -3t-16.5 -1q-39 0 -58 28l136 484q0 2 2 7t2 7q4 14 6 24.5t2 20.5q0 25 -19 25q-29 0 -52 -33t-44 -66v3l-10 -15 l-29 17q8 20 26.5 50.5t43 59.5t56.5 48.5t69 19.5q35 0 48 -16.5t13 -43.5q0 -20 -6 -45.5t-16 -56.5l-113 -361l33 82q27 72 60.5 150t71.5 142.5t82 106.5t93 42q29 0 52.5 -16.5t23.5 -55.5z" />
<glyph horiz-adv-x="417" d="M559 1274q0 -35 -19.5 -48.5t-39.5 -13.5q-25 0 -35 11l-55 94q-23 -4 -48.5 -28.5t-25.5 -67.5q0 -39 14.5 -70t36.5 -68l6 -12l8 -14q16 -31 33 -70t17 -82q0 -61 -21.5 -106t-54.5 -73t-70 -41t-67 -13q-53 0 -91 22.5t-38 67.5q0 33 19 47t44 14q29 0 45 -24l39 -94 q14 2 31.5 11t33 25.5t26.5 39t11 53.5q0 37 -14 69.5t-31 65.5l-10 18l-4 10l-8 15q-16 35 -29.5 66.5t-13.5 66.5q0 47 17.5 86t45 66.5t62.5 42t69 14.5q59 0 88 -22.5t29 -57.5z" />
<glyph horiz-adv-x="405" d="M575 1264h-120l-166 -416q-16 -41 -17 -57q0 -18 21 -19q10 0 25.5 10.5t33 25.5t34.5 33.5t30 35.5v-3l12 17l29 -23l-21 -34q-14 -23 -37.5 -50.5t-54.5 -53t-65.5 -43t-73.5 -17.5q-61 0 -62 47q0 16 8.5 42.5t18.5 49.5q0 2 2 5t2 5l174 445h-117l19 47h115 q16 35 32.5 74.5t30.5 76.5q10 6 25.5 10.5t31.5 4.5q33 0 47 -13l-59 -153h121z" />
<glyph horiz-adv-x="688" d="M760 1249q-35 -102 -71 -207.5t-71 -205.5q-4 -14 -7 -23.5t-3 -19.5q0 -20 17 -21q14 0 30.5 11.5t34 27.5t31.5 33.5t24 29.5l29 -26q-23 -33 -47.5 -64.5t-52 -56.5t-58 -40t-63.5 -15q-35 0 -48 15t-13 40q0 16 6 38.5t12 43.5l100 266q-18 -35 -42.5 -78t-53.5 -88 t-59.5 -86t-61.5 -73q-33 -33 -67.5 -55.5t-69.5 -22.5q-43 0 -61.5 20.5t-18.5 46.5q0 23 8.5 50.5t18.5 50.5l135 344q4 10 8 21.5t4 21.5q0 20 -16 20q-12 0 -29.5 -11t-34 -27.5t-32 -34t-25.5 -31.5l-27 24q2 4 4.5 9.5t4.5 9.5l4 8q14 23 39.5 50.5t56.5 52t64.5 41 t64.5 16.5q33 0 44 -14.5t11 -36.5q0 -12 -5 -32t-11 -36q-2 -2 -2 -6q0 -2 -2 -4l-154 -385q-8 -16 -10 -26.5t-2 -16.5q0 -10 5 -18.5t19 -8.5q33 0 78 49t90 114.5t81 132.5t52 101q16 35 31 76t29 78l10 29q70 12 96 -27z" />
<glyph horiz-adv-x="747" d="M850 1253q0 -121 -31 -226t-83 -185t-119.5 -126t-141.5 -46q-80 0 -120 41t-40 108q0 51 26 110.5t60.5 115t71.5 101.5t62 75q-12 -2 -29 -4.5t-33 -2.5q-72 0 -128 10.5t-89 18.5q-25 6 -33 6q-18 0 -28.5 -12t-10.5 -27v-8q18 -23 39 -46t39 -46q-4 -23 -22.5 -39 t-44.5 -16q-31 0 -54.5 19.5t-23.5 62.5q0 20 8 41.5t18.5 39t22.5 31t18 21.5l80 84q37 -10 100.5 -23.5t135.5 -13.5q43 0 90 10h-2l24 27q2 4 9.5 2t15.5 -7.5t13 -10.5t3 -9q-6 -6 -21.5 -26.5t-33.5 -49.5v2l-29 -47q-25 -37 -48 -79t-43.5 -85t-33 -84.5t-12.5 -80.5 q0 -35 18.5 -68t69.5 -33q57 0 106.5 37t85.5 90t56 115.5t23 116.5q-16 29 -36 61.5t-36 61.5q-4 16 -4 24q0 29 17.5 48.5t51.5 19.5q23 0 36.5 -10.5t19.5 -24.5t8 -32t2 -32z" />
<glyph horiz-adv-x="1026" d="M989 1257q-2 6 -3 12.5t-1 16.5q0 29 16.5 48.5t51.5 19.5q45 0 55 -36t10 -69q0 -72 -17.5 -171t-53 -189t-93 -153.5t-137.5 -63.5q-39 0 -66.5 15t-45 36.5t-26.5 47.5t-11 48q-12 -23 -32 -49.5t-45.5 -48t-57 -35.5t-68.5 -14q-68 0 -108 40t-40 111q0 49 26 107.5 t61.5 114t72.5 102.5t62 76q-12 -2 -29.5 -4t-34.5 -2q-70 0 -126 10t-91 18q-25 6 -35 6q-18 0 -27.5 -13t-9.5 -28v-6l76 -92q-4 -23 -22.5 -39t-42.5 -16q-33 0 -55.5 19.5t-22.5 62.5t25.5 79.5t39.5 53.5l80 84q37 -10 102.5 -23.5t137.5 -13.5q41 0 86 10h-2l22 23 q0 -8 14.5 -18.5t24.5 -6.5l-37 -55q-10 -16 -20 -30.5t-21 -31.5q-25 -37 -48 -78.5t-43.5 -84.5t-33 -85t-12.5 -81q0 -35 18.5 -68t71.5 -33q41 0 83 27t59 59q2 70 24.5 155t53 158.5t62.5 124t54 50.5q18 0 19 -29q0 -27 -12.5 -72t-32 -99t-45 -112.5t-52.5 -109.5 q0 -25 7.5 -51.5t22.5 -49t36.5 -37t50.5 -14.5q49 0 87 39t64.5 94.5t41 116t18.5 103.5zM612 1356v-2l-2 -2z" />
<glyph horiz-adv-x="626" d="M750 1350v-25q0 -35 -7.5 -75t-17.5 -77.5t-22.5 -67.5t-20.5 -44h-29l4 160l-159 -201l26 -154q2 -12 5 -27.5t9.5 -29.5t14.5 -24.5t20 -10.5t22.5 10.5t16.5 25.5t10.5 33.5t6.5 33.5l35 -3q0 -23 -8.5 -56.5t-24 -67t-40 -57t-59.5 -23.5q-33 0 -51 22 q-20 23 -31.5 63t-19.5 81l-22 116l-238 -282h-31v18q0 39 8.5 82t20.5 82t24.5 70.5t22.5 46.5h27l-11 -166l170 196q-4 31 -11 63t-11 62q0 4 -1 6.5t-1 6.5q-2 14 -5 32.5t-9.5 36t-15.5 28.5t-21 11q-14 0 -24.5 -14t-19 -35.5t-13.5 -46.5t-7 -45l-31 4v35 q0 31 7.5 67.5t22.5 67.5t39 52.5t56 21.5q39 0 62 -23q23 -25 33 -62.5t18 -74.5l6 -31l14 -94l228 285h31z" />
<glyph horiz-adv-x="602" d="M760 1286q0 -41 -25.5 -97t-83.5 -134q-29 -41 -69.5 -90.5t-85.5 -100.5t-92.5 -101t-90.5 -89v2q-27 -55 -53.5 -112.5t-60.5 -102.5q-86 -121 -183 -121q-45 0 -67.5 20.5t-22.5 53.5q0 29 16.5 44t37.5 15q8 0 17 -2t15 -6l45 -86q18 2 41 25.5t46.5 63.5t47 92 t44.5 110q23 66 43 148.5t36 176.5q8 51 12.5 88t4.5 78q0 47 -9.5 75t-25.5 28q-12 0 -27.5 -14.5t-30 -35t-26.5 -42t-18 -33.5l-29 10q10 31 29.5 66.5t46 66.5t56.5 51.5t60 20.5q45 0 61.5 -43t16.5 -117q0 -115 -29.5 -232.5t-70.5 -216.5q39 41 86 96.5t92 113 t83 111.5t58 95l-32 117q0 29 16 52.5t57 23.5q29 0 46.5 -16.5t17.5 -51.5z" />
<glyph horiz-adv-x="622" d="M752 1315q-12 -23 -35 -47.5t-47 -46.5l-367 -369q8 2 27 2q47 0 91 -23.5t81 -50.5q29 -20 53.5 -34.5t40.5 -14.5q23 0 39 18.5t16 34.5l-63 72q-4 25 13 44.5t46 19.5t49.5 -17.5t20.5 -58.5q0 -33 -18.5 -66t-41.5 -55q-20 -20 -51 -36.5t-84 -16.5t-105 28.5 t-93 57.5q-27 16 -48.5 30.5t-35.5 14.5q-16 0 -21 -8l-6 -13q4 -16 8 -30.5t8 -30.5q-2 -16 -16 -32.5t-41 -16.5t-39 13t-12 34q0 25 17.5 46t35.5 38l10 10l406 395q-4 0 -9.5 -1t-9.5 -1q-27 0 -54.5 12.5t-55.5 26.5q-27 14 -50.5 24.5t-43.5 10.5q-37 0 -52.5 -17.5 t-21.5 -29.5l35 -90q0 -47 -52 -47q-29 0 -45 17t-16 48q0 35 23.5 64.5t46.5 52.5l6 6q31 29 61.5 49.5t73.5 20.5q29 0 62.5 -14.5t64.5 -30.5q23 -12 42 -21.5t32 -9.5q16 0 27.5 18.5t19.5 34.5l6 12l10 17q4 6 15.5 2t22.5 -11.5t18.5 -17.5t5.5 -16z" />
<glyph horiz-adv-x="1126" d="M657 778q0 -45 -22.5 -73.5t-63.5 -28.5q-18 0 -29.5 4t-19.5 8l-37 156q-41 -10 -80.5 -48t-74.5 -84t-61.5 -94.5t-41.5 -78.5q-31 -68 -54 -148t-23 -153q0 -23 4 -47.5t13 -47t26.5 -37t46.5 -14.5q45 0 90 37t86 90l37 -31q-20 -35 -50 -71.5t-66 -68.5t-78 -52.5 t-85 -20.5q-49 0 -81 18.5t-51 49.5t-26.5 69t-7.5 78q0 100 38 215t102.5 214.5t148.5 172t178 89.5q-35 53 -61.5 121.5t-26.5 134.5q0 76 39 120q45 51 145 52q72 0 165 -16.5t184 -16.5q94 0 139 22.5t69 79.5q8 6 29 8.5t43.5 1t44 -7.5t33.5 -16q-6 -31 -26.5 -58.5 t-47.5 -41.5l-176 -435h164l-23 -57h-163l-224 -559q-20 -55 -20 -78q0 -27 29 -26q14 0 36.5 14t46 34.5t46 45t38.5 47.5l13 16l37 -26l-23 -35q-20 -31 -52 -71t-73 -74.5t-88 -59.5t-98 -25q-41 0 -59.5 17.5t-18.5 44.5t13.5 66.5t25.5 72.5l233 596h-153l22 57h154 l94 232q29 72 48.5 116t29.5 68l-4 2q-41 -16 -90 -21t-109 -5q-59 0 -131 5t-119 5q-49 0 -76.5 -11.5t-44.5 -29.5q-31 -37 -30 -98q0 -51 15 -106.5t38 -102.5q4 0 6 1t6 1q70 0 101.5 -33t31.5 -74z" />
<glyph horiz-adv-x="1425" d="M1419 780q0 -47 -24.5 -64.5t-53.5 -17.5q-12 0 -24 3.5t-19 9.5l-75 127q-31 0 -68 -35t-37 -96q0 -53 19.5 -94.5t48.5 -90.5l8 -14q29 -49 52.5 -102.5t23.5 -120.5q0 -82 -29 -140.5t-71 -96.5t-90 -55.5t-87 -17.5q-66 0 -111.5 28t-45.5 81q0 41 23.5 58.5 t49.5 17.5q18 0 32.5 -8.5t25.5 -20.5l47 -119q16 0 39.5 11.5t46 33t38 54t15.5 75.5q0 59 -23.5 107.5t-50.5 101.5l-45 90q-27 -53 -59.5 -109.5t-70.5 -110.5t-78 -103t-83 -88q-109 -98 -211 -99q-39 0 -58 20.5t-19 51.5q0 23 9 52.5t19 56.5l150 391l-4 2 q-25 -47 -59.5 -109.5t-75.5 -127t-86.5 -126t-88.5 -106.5q-47 -47 -91 -76t-91 -29q-53 0 -77.5 27t-24.5 61q0 31 11 68t24 70l180 456q6 16 11 32t5 28q0 16 -7 22t-17 6q-18 0 -41 -14t-44.5 -35.5t-42 -45t-32.5 -42.5l-35 31q2 4 4 9t6 9l9 13q20 31 54 67.5t75 69.5 t84 55.5t83 22.5q41 0 55.5 -19.5t14.5 -48.5q0 -23 -8 -51.5t-18 -52.5l-205 -512q-10 -27 -13.5 -39t-3.5 -23q0 -12 7.5 -24.5t29.5 -12.5q29 0 67 31t79 80t80.5 109.5t75.5 120t62.5 111.5t41.5 83q27 55 49 118.5t45 121.5q47 10 75.5 0.5t45.5 -35.5l-33 -97 l-180 -534q-6 -18 -12.5 -41t-6.5 -39q0 -27 29 -27q43 0 93 40t100.5 103.5t97.5 139.5t86 150q-10 37 -10 69q0 61 22.5 112.5t59 88.5t83 57.5t93.5 20.5q78 0 116.5 -31t38.5 -74z" />
<glyph horiz-adv-x="1028" d="M1022 780q0 -47 -24.5 -64.5t-53.5 -17.5q-12 0 -24.5 3.5t-18.5 9.5l-76 127q-31 0 -67.5 -35t-36.5 -96q0 -53 19.5 -94.5t47.5 -90.5l9 -14q29 -49 52 -102.5t23 -120.5q0 -82 -28.5 -140.5t-70.5 -96.5t-90 -55.5t-87 -17.5q-66 0 -112 28t-46 81q0 41 23.5 58.5 t50.5 17.5q18 0 32.5 -8.5t24.5 -20.5l47 -119q16 0 40 11.5t46.5 33t38 54t15.5 75.5q0 59 -23.5 107.5t-50.5 101.5l-6 13q-12 23 -22.5 44t-20.5 44q-29 -53 -63.5 -110.5t-73.5 -114t-82 -107.5t-86 -90q-104 -94 -211 -99h-13q-43 0 -60 19.5t-17 46.5q0 29 15 70 t32 82l192 485q4 10 10.5 28.5t6.5 34.5q0 12 -5.5 22.5t-21.5 10.5q-41 0 -79 -42t-77 -107l-8 -15l-37 23l11 22q23 49 53.5 91t65 73t73.5 48.5t78 17.5q59 0 78.5 -25.5t19.5 -54.5q0 -31 -12 -69t-29 -79l-178 -442q-14 -35 -19.5 -54.5t-5.5 -29.5q0 -27 33 -27 q43 0 96.5 42t105.5 109t102.5 146.5t86.5 153.5q-6 25 -6 51q0 61 22.5 112.5t59.5 88.5t83 57.5t93 20.5q78 0 117 -31t39 -74zM590 1286q0 -39 -27.5 -66.5t-66.5 -27.5t-66 27.5t-27 66.5t27 65.5t66 26.5t66.5 -26.5t27.5 -65.5z" />
<glyph horiz-adv-x="1030" d="M1075 772h-164l-223 -559q-20 -55 -20 -78q0 -27 28 -26q14 0 37 14t46.5 34.5t46 45t38.5 47.5l13 16l36 -26l-22 -35q-20 -31 -52 -71t-73 -74.5t-88 -59.5t-98 -25q-41 0 -59.5 17.5t-18.5 44.5t13 66.5t26 72.5l233 596h-366l-224 -559q-20 -55 -20 -78q0 -27 29 -26 q14 0 36.5 14t46 34.5t46 45t38.5 47.5l13 16l37 -26l-23 -35q-20 -31 -52 -71t-73 -74.5t-88 -59.5t-98 -25q-41 0 -59.5 17.5t-18.5 44.5t13.5 66.5t25.5 72.5l233 596h-155l24 57h154l82 205q10 8 32.5 13.5t45.5 5.5q39 0 61 -17l-84 -207h367l82 205q10 8 32.5 13.5 t44.5 5.5q39 0 62 -17l-84 -207h164z" />
<glyph horiz-adv-x="1017" d="M352 -25q-37 0 -84 11.5t-88 45.5t-69.5 97.5t-28.5 169.5q0 59 11 133t38 166q59 211 141 337t166 193.5t158 89t119 21.5q41 0 87 -12.5t85 -48t64.5 -100t25.5 -169.5q0 -63 -11.5 -140t-39.5 -171q-59 -207 -138 -331t-160 -188.5t-155 -84t-121 -19.5zM702 1200 q-70 0 -125 -46t-101 -128t-86 -191.5t-77 -238.5q-35 -127 -56 -230.5t-21 -177.5q0 -84 29.5 -129t101.5 -45q63 0 116.5 39t98.5 113t85 181.5t78 244.5q37 127 60.5 236.5t23.5 191.5q0 86 -28.5 133t-98.5 47z" />
<glyph horiz-adv-x="700" d="M446 1077l-215 6l9 35q70 16 138 38t124 40l123 41h37l-332 -1161l188 -25l-16 -55q-25 2 -62 3t-77.5 2t-79.5 1h-125q-37 0 -77 -1t-78 -2t-62 -3l14 55l205 25z" />
<glyph horiz-adv-x="929" d="M-88 0l12 45q51 39 123 95.5t150.5 124t159.5 144t151 156.5q41 47 83 98.5t76.5 105.5t56 107.5t21.5 104.5q0 63 -38.5 103t-118.5 40q-53 0 -100.5 -17t-87.5 -46t-71.5 -66t-54.5 -75l-36 28q25 49 62.5 100.5t91.5 93.5t126 68.5t164 26.5q123 0 185.5 -61.5 t62.5 -151.5q0 -80 -38 -158t-96.5 -148.5t-127 -133t-129.5 -113.5q-55 -47 -112.5 -92t-113 -87t-105.5 -79t-89 -68h387q43 0 69.5 8.5t49 25t45 42t57.5 60.5h45l-145 -291h-17q-16 6 -48 8t-68 2h-582z" />
<glyph horiz-adv-x="903" d="M899 1053q0 -68 -32.5 -121t-83 -95t-112 -73t-118.5 -53v-2q57 -12 98 -40t67.5 -65t38 -78t11.5 -77q0 -109 -52 -196t-137 -148.5t-191.5 -94.5t-215.5 -33q-92 0 -160.5 29t-68.5 84q0 39 27.5 62.5t62.5 23.5q37 0 61 -16l99 -142l-3 -2h23q92 0 165 38t125 95.5 t79.5 127t27.5 131.5q0 74 -25.5 116.5t-62.5 66t-78 31t-71 9.5l-2 12q68 35 133 68.5t121 85.5q53 47 86.5 105.5t33.5 115.5q0 63 -39.5 92t-99.5 29q-92 0 -170 -52.5t-125 -132.5l-35 29q57 117 160 184.5t234 67.5q102 0 165.5 -48t63.5 -134z" />
<glyph horiz-adv-x="960" d="M858 389h-215l-119 -418h-145l119 418h-504l16 55l811 801h66l-211 -743h252zM684 1040l-133 -135l-404 -403h383l95 332q10 33 19 68.5t20 66.5q10 37 22 71h-2z" />
<glyph horiz-adv-x="927" d="M940 1067h-477l-125 -328q29 6 53.5 8.5t48.5 2.5q70 0 132.5 -18.5t109.5 -55.5t74.5 -93.5t27.5 -129.5q0 -115 -56 -204t-145 -152.5t-200 -96.5t-217 -33q-47 0 -88 7.5t-74 22.5t-51.5 35.5t-18.5 49.5q0 39 27 62.5t64 23.5q20 0 33.5 -4t29.5 -12l100 -140 q6 0 11.5 -1t11.5 -1q84 0 157.5 37t129 94.5t87 129t31.5 143.5q0 59 -18 102t-49 70.5t-73 40t-91 12.5q-31 0 -64.5 -5t-64.5 -16l-25 11l222 571h462l82 84h45z" />
<glyph horiz-adv-x="940" d="M977 1231q-102 -37 -194.5 -94.5t-174.5 -130t-148.5 -157.5t-115.5 -177l2 -2q14 12 39 30.5t57.5 34t74.5 26.5t91 11q111 0 172.5 -71.5t61.5 -182.5q0 -98 -40 -195.5t-109.5 -174t-165 -125t-205.5 -48.5q-150 0 -211.5 82t-61.5 219q0 92 32 192.5t90 201 t141 194.5t185.5 174t220.5 140.5t249 93.5q4 -10 6 -21zM336 20q74 0 137.5 47.5t109.5 121t72.5 163.5t26.5 176q0 78 -35 130.5t-112 52.5q-35 0 -67 -10.5t-61.5 -27t-53 -34.5t-40.5 -37q-16 -27 -38.5 -70t-43 -96t-35 -112.5t-14.5 -116.5q0 -37 7.5 -71t25.5 -59.5 t48 -41t73 -15.5z" />
<glyph horiz-adv-x="901" d="M1067 1186q-57 -74 -138 -177.5t-171 -220t-184.5 -236.5t-178.5 -225.5t-150.5 -187.5t-103.5 -123q-23 -27 -47 -37t-57 -10q-8 0 -20.5 1t-24.5 4t-21.5 10.5t-9.5 21.5q0 8 2 14q2 10 8 21.5t26.5 34t59.5 64.5t109 114q86 88 182 190.5t194.5 209t192.5 212 t172 197.5h-407q-63 0 -105.5 -20.5t-83.5 -49.5q-23 -16 -41 -33.5t-34 -35.5h-43l204 356h41l-2 -80h625z" />
<glyph horiz-adv-x="964" d="M963 1044q0 -74 -33 -132t-83 -105t-110.5 -82t-113.5 -59q92 -80 137 -153t45 -157q0 -78 -34 -146.5t-96.5 -120.5t-150.5 -83t-194 -31q-143 0 -226.5 57.5t-83.5 164.5q0 86 39 153.5t100.5 120.5t135.5 92t143 68q-92 72 -131 145.5t-39 155.5q0 68 32 126t86 102 t128 69.5t158 25.5q131 0 211 -54.5t80 -156.5zM842 1047q0 76 -48.5 119.5t-136.5 43.5q-53 0 -96 -17t-75.5 -48t-50 -73t-17.5 -89q0 -80 32.5 -137.5t102.5 -118.5q4 -4 11 -9t14 -9q8 -6 14 -13q49 25 94 62t80 83t55.5 98.5t20.5 107.5zM641 328q0 82 -49 148.5 t-123 125.5q-29 -14 -81 -46t-105.5 -81t-92 -115.5t-38.5 -150.5q0 -92 52 -140.5t138 -48.5q66 0 121 24t95 65t61.5 97t21.5 122z" />
<glyph horiz-adv-x="940" d="M10 -16q100 37 193.5 94t175.5 130t148.5 158t115.5 177l-2 2q-16 -12 -39.5 -30.5t-56.5 -34t-75 -27t-91 -11.5q-111 0 -172.5 72t-61.5 182q0 98 40 195.5t110 174.5t165 125t206 48q150 0 211 -82t61 -219q0 -92 -32 -192.5t-90 -201t-141 -194.5t-185.5 -174 t-221 -140.5t-248.5 -92.5q-4 10 -6 20zM651 1194q-74 0 -137 -47t-109.5 -121t-73 -164t-26.5 -176q0 -78 35 -130t113 -52q33 0 65.5 10t62 26.5t53 35t40.5 36.5q16 27 38.5 70t43 96t35 111.5t14.5 118.5q0 37 -7 70.5t-25.5 59t-48.5 41t-73 15.5z" />
<glyph d="M311 -25q-37 0 -84 11.5t-88 45.5t-69.5 97.5t-28.5 169.5q0 59 11 133t38 166q59 211 141 337t166 193.5t158 89t119 21.5q41 0 87 -12.5t85 -48t64.5 -100t25.5 -169.5q0 -63 -11.5 -140t-39.5 -171q-59 -207 -138 -331t-160 -188.5t-155 -84t-121 -19.5zM662 1200 q-70 0 -125.5 -46t-101.5 -128t-86 -191.5t-77 -238.5q-35 -127 -56 -230.5t-21 -177.5q0 -84 29.5 -129t101.5 -45q63 0 116.5 39t98.5 113t85 181.5t79 244.5q37 127 60 236.5t23 191.5q0 86 -28 133t-98 47z" />
<glyph d="M565 1077l-215 6l8 35q70 16 138.5 38t124.5 40l122 41h37l-331 -1161l188 -25l-16 -55q-25 2 -62 3t-78 2t-80 1h-125q-37 0 -76.5 -1t-77.5 -2t-63 -3l15 55l205 25z" />
<glyph d="M-84 0l12 45q51 39 123 95.5t151 124t159.5 144t150.5 156.5q41 47 83 98.5t77 105.5t56.5 107.5t21.5 104.5q0 63 -39 103t-119 40q-53 0 -100.5 -17t-87 -46t-71.5 -66t-54 -75l-37 28q25 49 62.5 100.5t92 93.5t126 68.5t163.5 26.5q123 0 185.5 -61.5t62.5 -151.5 q0 -80 -38 -158t-96.5 -148.5t-127 -133t-129.5 -113.5q-55 -47 -112.5 -92t-113 -87t-105.5 -79t-89 -68h387q43 0 69.5 8.5t49 25t45 42t57.5 60.5h45l-145 -291h-17q-16 6 -47.5 8t-68.5 2h-582z" />
<glyph d="M915 1053q0 -68 -32.5 -121t-82.5 -95t-111.5 -73t-119.5 -53v-2q57 -12 98.5 -40t68 -65t37.5 -78t11 -77q0 -109 -52 -196t-137 -148.5t-191.5 -94.5t-215.5 -33q-92 0 -160.5 29t-68.5 84q0 39 27.5 62.5t62.5 23.5q37 0 62 -16l98 -142l-2 -2h22q92 0 165 38 t125 95.5t80 127t28 131.5q0 74 -26 116.5t-62.5 66t-77.5 31t-72 9.5l-2 12q68 35 133.5 68.5t120.5 85.5q53 47 87 105.5t34 115.5q0 63 -40 92t-99 29q-92 0 -170 -52.5t-125 -132.5l-35 29q57 117 159.5 184.5t233.5 67.5q102 0 165.5 -48t63.5 -134z" />
<glyph d="M846 389h-215l-119 -418h-145l118 418h-503l16 55l811 801h65l-210 -743h251zM672 1040l-133 -135l-404 -403h383l94 332q10 33 19.5 68.5t19.5 66.5q10 37 23 71h-2z" />
<glyph d="M944 1067h-477l-125 -328q29 6 53.5 8.5t48.5 2.5q70 0 132.5 -18.5t109.5 -55.5t74.5 -93.5t27.5 -129.5q0 -115 -56 -204t-145 -152.5t-200 -96.5t-217 -33q-47 0 -88 7.5t-74 22.5t-51 35.5t-18 49.5q0 39 26.5 62.5t63.5 23.5q20 0 33.5 -4t29.5 -12l101 -140 q6 0 11 -1t11 -1q84 0 157.5 37t129 94.5t87.5 129t32 143.5q0 59 -18.5 102t-49.5 70.5t-73 40t-91 12.5q-31 0 -64.5 -5t-64.5 -16l-24 11l221 571h463l81 84h46z" />
<glyph d="M975 1231q-102 -37 -194.5 -94.5t-174.5 -130t-148.5 -157.5t-115.5 -177l2 -2q14 12 39 30.5t57.5 34t74.5 26.5t91 11q111 0 172.5 -71.5t61.5 -182.5q0 -98 -40 -195.5t-109.5 -174t-165 -125t-206.5 -48.5q-150 0 -211 82t-61 219q0 92 32 192.5t90 201t141 194.5 t185.5 174t220.5 140.5t249 93.5q4 -10 6 -21zM334 20q74 0 137.5 47.5t109.5 121t72.5 163.5t26.5 176q0 78 -35 130.5t-113 52.5q-35 0 -66.5 -10.5t-61 -27t-53 -34.5t-40.5 -37q-16 -27 -38.5 -70t-43 -96t-35 -112.5t-14.5 -116.5q0 -37 7.5 -71t25.5 -59.5t48 -41 t73 -15.5z" />
<glyph d="M1085 1186q-57 -74 -138 -177.5t-171 -220t-184 -236.5t-178 -225.5t-150.5 -187.5t-103.5 -123q-23 -27 -47.5 -37t-57.5 -10q-8 0 -20 1t-24.5 4t-21.5 10.5t-9 21.5q0 8 2 14q2 10 8 21.5t26.5 34t59.5 64.5t108 114q86 88 182.5 190.5t194.5 209t192.5 212 t172.5 197.5h-408q-63 0 -105 -20.5t-83 -49.5q-23 -16 -41.5 -33.5t-34.5 -35.5h-43l205 356h41l-2 -80h624z" />
<glyph d="M948 1044q0 -74 -32.5 -132t-83 -105t-110.5 -82t-114 -59q92 -80 137.5 -153t45.5 -157q0 -78 -34 -146.5t-96.5 -120.5t-150.5 -83t-195 -31q-143 0 -226 57.5t-83 164.5q0 86 39 153.5t100.5 120.5t135 92t143.5 68q-92 72 -131 145.5t-39 155.5q0 68 31.5 126t86 102 t128 69.5t157.5 25.5q131 0 211 -54.5t80 -156.5zM827 1047q0 76 -48 119.5t-136 43.5q-53 0 -96 -17t-76 -48t-50.5 -73t-17.5 -89q0 -80 33 -137.5t103 -118.5q4 -4 11 -9t13 -9q8 -6 15 -13q49 25 94 62t79.5 83t55 98.5t20.5 107.5zM627 328q0 82 -49.5 148.5 t-122.5 125.5q-29 -14 -81 -46t-105.5 -81t-92.5 -115.5t-39 -150.5q0 -92 52.5 -140.5t138.5 -48.5q66 0 121 24t95 65t61.5 97t21.5 122z" />
<glyph d="M8 -16q100 37 193.5 94t175.5 130t148.5 158t115.5 177l-2 2q-16 -12 -40 -30.5t-56.5 -34t-74.5 -27t-91 -11.5q-111 0 -172.5 72t-61.5 182q0 98 40 195.5t109.5 174.5t165 125t206.5 48q150 0 211 -82t61 -219q0 -92 -32 -192.5t-90 -201t-141 -194.5t-185.5 -174 t-221.5 -140.5t-248 -92.5q-4 10 -6 20zM649 1194q-74 0 -137 -47t-109.5 -121t-73 -164t-26.5 -176q0 -78 35 -130t113 -52q33 0 65.5 10t62 26.5t53 35t40.5 36.5q16 27 38.5 70t43 96t35 111.5t14.5 118.5q0 37 -7.5 70.5t-25.5 59t-48 41t-73 15.5z" />
<glyph d="M584 887q123 0 198.5 -77t75.5 -218q0 -100 -43 -209t-117.5 -200t-176 -149.5t-216.5 -58.5q-125 0 -199.5 77t-74.5 218q0 100 43 209t117.5 200t175 149.5t217.5 58.5zM700 647q0 29 -5 63.5t-19 64.5t-40 50.5t-65 20.5q-59 0 -113.5 -42t-97.5 -102.5t-75.5 -126 t-48.5 -112.5q-20 -59 -35 -120.5t-15 -123.5q0 -29 6.5 -63.5t20.5 -65.5t38.5 -51.5t63.5 -20.5q59 0 113.5 42t98.5 102.5t77 126t49 112.5q20 59 33.5 122t13.5 124z" />
<glyph d="M823 823l-205 -18l-196 -733l194 -19l-14 -55q-25 2 -60.5 3t-74.5 2t-76 1h-123q-37 0 -76.5 -1t-76.5 -2t-62 -3l15 55l206 19l197 733l-197 18l15 56q25 -2 61.5 -3.5t76.5 -2.5t77 -1h123q37 0 74.5 1t74.5 2.5t62 3.5z" />
<glyph d="M842 676q0 -90 -46 -162t-114 -129t-146.5 -100t-142.5 -74q-61 -29 -116.5 -54.5t-100.5 -41.5v-4h43q18 0 42 1t50 1h232q43 0 87 5t66 21l21 -4l-105 -229h-41l9 94h-627l27 76q43 12 97 34.5t113 51.5q84 41 172.5 93t159 112.5t115.5 129t45 142.5q0 68 -43 103.5 t-117 35.5q-57 0 -108.5 -21.5t-92 -54t-70.5 -71.5t-44 -74l-39 25q16 51 54 107t92.5 103.5t123 78t148.5 30.5q121 0 188.5 -58t67.5 -167z" />
<glyph d="M805 707q0 -72 -32 -129.5t-81 -101.5t-109.5 -76.5t-115.5 -57.5v-2q57 -12 97 -42t65.5 -69t37 -83t11.5 -83q0 -115 -51.5 -208t-134 -158.5t-188 -100t-212.5 -34.5q-45 0 -85 8t-70.5 23.5t-49 38t-18.5 51.5q0 41 26.5 66.5t61.5 25.5q31 0 59 -19l97 -149l-2 -2 h22q90 0 162 40t123 101t77.5 135t26.5 139q0 78 -24.5 124t-60.5 71t-77 33t-71 10l-2 12q68 37 132 74t118 90q51 49 84.5 112.5t33.5 123.5q0 66 -38.5 97.5t-98.5 31.5q-90 0 -162.5 -55.5t-119.5 -141.5l-35 31q57 125 154.5 196.5t226.5 71.5q98 0 160.5 -51 t62.5 -143z" />
<glyph d="M743 0h-215l-112 -424h-146l113 424h-504l17 59l811 852h65l-211 -790h252zM569 694l-133 -145l-403 -428h383l94 352q10 35 19.5 74t19.5 71q10 37 22 76h-2z" />
<glyph d="M840 731h-461l-133 -348q27 6 51.5 8t48.5 2q68 0 127 -19.5t103.5 -59.5t71 -98t26.5 -138q0 -121 -54.5 -217.5t-140.5 -163t-191.5 -101t-207.5 -34.5q-45 0 -85 8t-70.5 23.5t-49 38t-18.5 51.5q0 41 26.5 66.5t61.5 25.5q18 0 31.5 -4t29.5 -15l96 -147q6 0 11.5 -1 t11.5 -1q82 0 152.5 39t123 100t83 138t30.5 151q0 127 -64.5 183t-158.5 56q-31 0 -62.5 -5t-62.5 -15l-23 10l226 608h446l78 89h45z" />
<glyph d="M1008 1315q-90 -51 -179.5 -116.5t-172.5 -141.5t-154.5 -160t-126.5 -172h2q33 23 93 54.5t151 31.5q98 0 159.5 -67.5t61.5 -190.5q0 -111 -39 -214t-107.5 -184t-165 -130.5t-213.5 -49.5q-139 0 -206.5 76t-67.5 211q0 119 41 235.5t111.5 225t165 206t199 179.5 t215 145.5t212.5 104.5zM340 23q82 0 145.5 53t108.5 131t68.5 169t23.5 167q0 78 -37 137t-121 59q-47 0 -102 -22.5t-88 -54.5q-31 -43 -58.5 -100.5t-47 -118t-32 -120t-12.5 -106.5q0 -35 7.5 -69.5t25 -62.5t46 -45t73.5 -17z" />
<glyph d="M993 860q-57 -78 -138 -188.5t-171 -233.5t-184 -251t-178 -239.5t-151 -199.5t-103 -131q-23 -29 -47.5 -39t-57.5 -10q-8 0 -20.5 1t-24.5 4t-21.5 11t-9.5 23q0 8 2 14q2 12 8.5 23.5t27 36t59.5 67.5t108 121q86 94 182.5 203.5t194.5 223.5t192.5 225.5t172.5 209.5 h-408q-63 0 -105 -21.5t-83 -52.5q-23 -18 -41.5 -36.5t-34.5 -38.5h-43l205 379h41l-3 -84h625z" />
<glyph d="M958 1112q0 -78 -32.5 -140.5t-82.5 -111.5t-110.5 -86t-114.5 -63q92 -86 137.5 -164t45.5 -166q0 -82 -34 -155.5t-96.5 -129t-150.5 -88.5t-194 -33q-143 0 -226.5 61.5t-83.5 174.5q0 90 39 162.5t100.5 129t135.5 98.5t143 71q-92 78 -131 156.5t-39 164.5 q0 70 32 133.5t86 109.5t128 73.5t158 27.5q131 0 210.5 -57t79.5 -168zM838 1114q0 82 -48.5 129t-136.5 47q-53 0 -96 -19.5t-75.5 -52t-50 -76.5t-17.5 -95q0 -86 32.5 -145.5t102.5 -125.5q4 -4 11 -9t13 -11l15 -15q49 27 94 67t80 88t55.5 103.5t20.5 114.5zM637 350 q0 86 -49 157t-123 136q-29 -16 -81 -50t-105.5 -86t-92.5 -123t-39 -161q0 -98 52.5 -149t138.5 -51q66 0 121 25.5t95 69.5t61.5 103t21.5 129z" />
<glyph d="M-113 -438q88 51 178.5 116.5t173.5 141.5t154.5 159.5t126.5 172.5h-2q-33 -23 -93 -54.5t-151 -31.5q-98 0 -159.5 67.5t-61.5 190.5q0 111 39 214t107.5 184t165 130t213.5 49q139 0 206.5 -75.5t67.5 -211.5q0 -119 -41 -235.5t-111.5 -225t-165 -206t-199 -179 t-215 -145t-212.5 -104.5zM555 854q-82 0 -146.5 -53t-108.5 -131t-67.5 -169t-23.5 -167q0 -78 37 -137.5t121 -59.5q47 0 102 22.5t88 55.5q31 43 58.5 100.5t47 118t32 119.5t12.5 106q0 35 -7.5 70t-25 62.5t-46 45t-73.5 17.5z" />
<glyph d="M324 -25q-29 0 -64 9.5t-66.5 37t-53 79t-21.5 135.5q0 43 9 105t28 132q45 162 106.5 262.5t124 155.5t117.5 74.5t88 19.5q31 0 65.5 -10t64.5 -39t49.5 -81t19.5 -134q0 -49 -8.5 -110.5t-28.5 -137.5q-45 -166 -104.5 -264t-120 -150.5t-115.5 -68t-90 -15.5z M584 948q-49 0 -91 -38t-77 -103.5t-64.5 -151.5t-56.5 -184q-25 -98 -41 -181t-16 -143q0 -66 21.5 -100.5t74.5 -34.5q94 0 157.5 119t122.5 336q29 102 45.5 189t16.5 151q0 66 -20.5 103.5t-71.5 37.5z" />
<glyph d="M516 856l-160 6l6 33q53 14 105.5 30.5t93.5 30.5q47 16 90 31h31l-248 -921l139 -21l-12 -47q-18 2 -46 3t-57.5 2t-58.5 1h-94q-29 0 -59.5 -1t-59 -2t-47.5 -3l11 47l153 21z" />
<glyph d="M25 0l10 39q37 29 90 74t112.5 100t120 115.5t111.5 122.5q31 37 61.5 77.5t57 83.5t43 85t16.5 81q0 49 -27.5 82t-87.5 33q-39 0 -73.5 -14.5t-64 -38t-54.5 -53t-41 -60.5l-31 25q18 39 47 80.5t70 75.5t94 55.5t123 21.5q92 0 140.5 -49t48.5 -121q0 -66 -29 -127 t-73 -118.5t-95 -106.5t-96 -90q-76 -68 -156 -132.5t-139 -111.5l-13 -12h281q51 0 76.5 18.5t60.5 59.5q6 6 12.5 14t14.5 16h37l-109 -233h-14q-12 4 -36 6t-50 2h-438z" />
<glyph d="M774 836q0 -53 -23.5 -96.5t-60.5 -76t-83 -57t-89 -43.5q43 -10 74 -32.5t49 -52t26.5 -61.5t8.5 -63q0 -86 -39 -155.5t-102.5 -118.5t-144.5 -74.5t-163 -25.5q-72 0 -123 22.5t-51 69.5q0 31 20.5 50t49.5 19q25 0 51 -16l74 -113h4l6 2q68 0 123 30t93 75t58.5 100 t20.5 105q0 57 -18.5 91t-46 52t-57.5 24.5t-54 8.5l-2 12l28 14q41 20 83 47t77 60q41 37 65.5 84t24.5 90q0 49 -28.5 72.5t-73.5 23.5q-66 0 -123 -42t-96 -107l-27 24q41 96 119 150.5t176 54.5q78 0 126 -38.5t48 -108.5z" />
<glyph d="M721 301h-158q-20 -78 -44.5 -165t-45.5 -165h-111l87 330h-375l12 49l606 637h53l-157 -590h190zM494 711l-297 -314h276q16 63 35.5 131t36.5 129l43 158z" />
<glyph d="M797 842h-357l-92 -254q20 4 37.5 5t36.5 1q51 0 98 -14.5t83 -44t56.5 -74.5t20.5 -107q0 -92 -42 -163.5t-109.5 -121t-150.5 -76t-163 -26.5q-72 0 -123 23.5t-51 70.5q0 31 20.5 49.5t49.5 18.5q23 0 49 -14l76 -107l6 -2h8q61 0 116.5 28.5t95.5 74t63.5 102.5 t23.5 113q0 94 -49 135t-119 41q-23 0 -49.5 -4t-48.5 -11l-21 9l166 456h346l62 68h36z" />
<glyph d="M817 973q-152 -59 -270.5 -174t-192.5 -258q27 23 74 47t113 24q86 0 132 -57t46 -145q0 -80 -30 -158t-83 -139.5t-124.5 -99.5t-153.5 -38q-113 0 -159 64.5t-46 175.5t53 234.5t145.5 235.5t218.5 199t273 126q0 -4 1 -6.5t1 -6.5q4 -16 4 -22zM340 14q53 0 100 37 t81 95.5t53.5 130t19.5 139.5q0 59 -24.5 102t-84.5 43q-45 0 -90 -29.5t-71 -58.5l-30 -57.5t-33 -76.5t-25.5 -88t-10.5 -91q0 -57 24.5 -101.5t90.5 -44.5z" />
<glyph d="M901 934q-29 -37 -62.5 -84t-72.5 -100q-74 -100 -158 -214t-161.5 -219.5t-141 -188.5t-96.5 -122q-31 -37 -80 -37h-16q-8 0 -18.5 3t-17.5 9.5t-7 18.5q0 6 2 10q2 8 7 17.5t18.5 26t38 45t67.5 75.5l20 23q63 70 136 151.5t146 166.5t142.5 168t126.5 155h-299 q-43 0 -75.5 -16.5t-61.5 -39.5q-33 -27 -57 -57h-39l157 289h33l-2 -64h467l4 -14v-2z" />
<glyph d="M799 825q0 -57 -24.5 -103t-61.5 -83t-82 -64.5t-84 -48.5q66 -63 100.5 -121.5t34.5 -123.5q0 -61 -26.5 -118t-76 -97.5t-117 -65.5t-147.5 -25q-111 0 -168 46.5t-57 130.5q0 68 30 123t75 97t100 72.5t106 53.5q-59 55 -92 115.5t-33 123.5q0 53 24 100.5t65 83 t97 56t122 20.5q96 0 155.5 -43t59.5 -129zM705 827q0 59 -36 94t-100 35q-78 0 -127 -52t-49 -128q0 -57 29 -107.5t70 -90.5q4 -4 9 -7.5t9 -7.5q6 -6 12 -10q35 18 68 48t58.5 65.5t41 76.5t15.5 84zM555 256q0 61 -37 115.5t-90 103.5q-23 -12 -61.5 -37.5t-77.5 -64.5 t-67.5 -91.5t-28.5 -119.5q0 -70 34.5 -108t98.5 -38q49 0 91 18.5t72.5 50.5t48 76t17.5 95z" />
<glyph d="M98 -14q152 59 270.5 172.5t192.5 259.5q-27 -23 -74 -48.5t-112 -25.5q-86 0 -132 58.5t-46 146.5q0 80 29.5 157.5t82.5 139t124 99.5t155 38q113 0 159 -65.5t46 -176.5t-53.5 -233.5t-145.5 -234t-218 -198.5t-274 -126q0 4 -1 6t-1 6q-4 16 -4 23zM575 944 q-53 0 -100 -38t-81 -96t-53 -129t-19 -138q0 -59 24.5 -102.5t83.5 -43.5q45 0 90 30t72 58q12 20 28.5 55t32 77t26.5 88.5t11 91.5q0 57 -24.5 102t-90.5 45z" />
<glyph d="M510 670q-29 0 -63.5 9t-66.5 36.5t-53.5 79t-21.5 135.5q0 43 9.5 105.5t27.5 131.5q45 162 106.5 262.5t124 155.5t117.5 74.5t88 19.5q31 0 66 -10t64.5 -38.5t49 -81t19.5 -134.5q0 -49 -8 -110.5t-29 -137.5q-45 -166 -104.5 -264t-120 -150.5t-115.5 -67.5t-90 -15 zM770 1642q-49 0 -91 -37.5t-77 -103t-64.5 -151.5t-56.5 -185q-25 -98 -41 -181t-16 -142q0 -66 21.5 -100.5t74.5 -34.5q94 0 157.5 118.5t123.5 335.5q29 102 45 189.5t16 150.5q0 66 -20.5 103.5t-71.5 37.5z" />
<glyph d="M705 1550l-160 6l6 33q53 14 105.5 30.5t93.5 31.5q47 16 90 30h30l-247 -921l139 -21l-12 -47q-18 2 -46 3t-58 2t-58 1h-94q-29 0 -60 -1t-59.5 -2t-46.5 -3l10 47l154 21z" />
<glyph d="M209 694l10 39q37 29 90 74t112.5 100.5t120 115.5t111.5 122q31 37 61.5 78t57.5 84t43 85t16 81q0 49 -27.5 81.5t-86.5 32.5q-39 0 -74 -14t-64.5 -38t-54 -53.5t-41.5 -60.5l-30 25q18 39 46.5 81t69.5 75.5t94.5 55t122.5 21.5q92 0 140.5 -49t48.5 -121 q0 -66 -28.5 -127t-73 -118.5t-95.5 -106.5t-96 -90q-76 -68 -156 -132.5t-139 -111.5l-12 -12h280q51 0 77 18.5t61 59.5q6 6 12 14t14 17h37l-108 -234h-15q-12 4 -35.5 6t-50.5 2h-438z" />
<glyph d="M961 1530q0 -53 -24 -96t-60.5 -76t-82.5 -57.5t-89 -43.5q43 -10 73.5 -32.5t49 -52t26.5 -61.5t8 -62q0 -86 -39 -156t-102.5 -119t-144 -74.5t-162.5 -25.5q-72 0 -123 22.5t-51 69.5q0 31 20.5 50.5t48.5 19.5q25 0 51 -17l74 -112h4l6 2q68 0 123.5 29.5t93 74.5 t58 100.5t20.5 104.5q0 57 -18.5 91t-46 52.5t-57 24.5t-54.5 8l-2 12l29 15q41 20 83 46.5t77 59.5q41 37 65.5 84t24.5 90q0 49 -29 72.5t-74 23.5q-66 0 -123 -42t-96 -107l-26 25q41 96 118.5 150t175.5 54q78 0 126.5 -38.5t48.5 -108.5z" />
<glyph d="M907 995h-157q-20 -78 -45 -165t-46 -164h-110l86 329h-375l12 49l607 637h53l-158 -589h191zM680 1405l-297 -313h276q16 63 36 130.5t36 129.5l43 157z" />
<glyph d="M983 1536h-356l-92 -254q20 4 37.5 5t35.5 1q51 0 98.5 -14t83 -44t56 -75t20.5 -106q0 -92 -42 -164t-109.5 -121t-150.5 -75.5t-163 -26.5q-72 0 -123 23.5t-51 70.5q0 31 20.5 49t49.5 18q23 0 49 -14l76 -107l6 -2h8q61 0 116.5 29t95.5 74t63.5 102.5t23.5 112.5 q0 94 -49 135t-119 41q-23 0 -49 -4t-49 -10l-20 8l165 457h347l61 67h37z" />
<glyph d="M1004 1667q-152 -59 -271 -174t-192 -258q27 23 74 47.5t112 24.5q86 0 132 -57.5t46 -145.5q0 -80 -29.5 -158t-83 -139.5t-125 -99t-153.5 -37.5q-113 0 -159 64.5t-46 174.5q0 111 53.5 235t145.5 235.5t218 198.5t273 126q0 -4 1 -6t1 -6q4 -16 5 -23zM526 709 q53 0 100.5 36.5t81 95t53 130t19.5 139.5q0 59 -24.5 102t-83.5 43q-45 0 -90 -29.5t-72 -58.5q-12 -23 -29.5 -57.5t-33 -76.5t-25.5 -88t-10 -91q0 -57 24 -101t90 -44z" />
<glyph d="M1087 1628q-29 -37 -62.5 -84t-72.5 -100q-74 -100 -157.5 -214t-161.5 -219.5t-141.5 -188.5t-96.5 -122q-31 -37 -80 -36h-16q-8 0 -18.5 3t-17.5 9t-7 18q0 6 2 11q2 8 7 17t18.5 25.5t38 45t67.5 75.5l21 23q63 70 135.5 151.5t145.5 166.5t142.5 168t127.5 155h-299 q-43 0 -76 -16.5t-62 -38.5q-33 -27 -57 -58h-39l158 289h32l-2 -63h467l4 -15v-2z" />
<glyph d="M985 1520q0 -57 -24.5 -103.5t-61.5 -83.5t-82 -64.5t-84 -47.5q66 -63 100.5 -122t34.5 -124q0 -61 -26.5 -117.5t-75.5 -97.5t-116.5 -65.5t-147.5 -24.5q-111 0 -168.5 46t-57.5 130q0 68 30 123t75 97t100.5 72.5t106.5 53.5q-59 55 -92 115.5t-33 124.5 q0 53 23.5 100t64.5 83t97.5 56.5t121.5 20.5q96 0 155.5 -43t59.5 -129zM891 1522q0 59 -36 94t-99 35q-78 0 -127 -52.5t-49 -128.5q0 -57 28.5 -107t69.5 -91q4 -4 9 -7t9 -8q6 -6 13 -10q35 18 67.5 48t58 66t41 77t15.5 84zM741 950q0 61 -36.5 115.5t-90.5 103.5 q-23 -12 -61.5 -37.5t-77.5 -64.5t-67.5 -91t-28.5 -120q0 -70 35 -107.5t98 -37.5q49 0 91 18.5t73 50t48 75.5t17 95z" />
<glyph d="M281 680q152 59 270.5 173t191.5 259q-27 -23 -73.5 -48.5t-112.5 -25.5q-86 0 -132 58.5t-46 146.5q0 80 29.5 158t83 139.5t124 99t154.5 37.5q113 0 159 -65.5t46 -175.5q0 -111 -53.5 -234t-145.5 -234.5t-218 -198.5t-273 -126q0 4 -1 6t-1 6q-4 16 -4 23zM758 1638 q-53 0 -100.5 -37.5t-81 -96t-53 -129t-19.5 -138.5q0 -59 24.5 -102t83.5 -43q45 0 90.5 29.5t71.5 58.5q12 20 28.5 55t32 77t26.5 88t11 91q0 57 -24 102t-90 45z" />
<glyph horiz-adv-x="1126" d="M1145 856l-137 -20l-207 -766l127 -19l-13 -53q-16 0 -44.5 1t-59.5 2t-59 1h-90q-25 0 -52.5 -1t-53.5 -2t-44 -1l12 53l140 19l98 360h-443l-98 -360l127 -19l-12 -53q-16 0 -44 1t-58.5 2t-59.5 1h-88q-27 0 -54.5 -1t-54 -2t-45.5 -1l13 53l139 19l205 766l-129 20 l14 51q16 -2 43 -3t55 -1h203q29 0 56.5 1t46.5 3l-13 -51l-139 -20l-96 -355h442l96 355l-129 20l15 51q16 -2 42.5 -3t55.5 -1h205q29 0 55.5 1t44.5 3z" />
<glyph horiz-adv-x="1036" d="M940 561q0 -109 -38 -213t-107.5 -186t-167 -133.5t-213.5 -51.5q-90 0 -157 28t-111 78t-65.5 119.5t-21.5 151.5q0 96 37 197.5t104.5 184.5t165 136.5t218.5 53.5q90 0 156.5 -28t111.5 -77t66.5 -115.5t21.5 -144.5zM791 588q0 51 -10.5 104t-36 95t-66.5 69t-103 27 q-86 0 -153.5 -54.5t-114.5 -137.5t-72.5 -179t-25.5 -182q0 -55 11 -110.5t36 -99.5t65.5 -72t100.5 -28q86 0 154.5 55.5t115.5 139.5t73 183.5t26 189.5z" />
<glyph horiz-adv-x="929" d="M786 -4q-33 2 -88 3t-94 1h-47q-27 0 -55.5 -1t-55 -2t-45.5 -1l11 51l137 19l-17 215h-329l-140 -215l140 -19l-15 -51q-20 0 -45.5 1t-52.5 2t-51 1h-43q-41 0 -65.5 -1t-59.5 -3l14 51l117 19l483 741l-4 55q31 4 60.5 24.5t46.5 43.5h22l74 -864l117 -19zM510 549 q-4 29 -5 60.5t-5 60.5q-4 31 -6 61h-5q-10 -18 -22 -39q-10 -16 -23.5 -38.5t-29.5 -47.5l-183 -278h297z" />
<glyph horiz-adv-x="546" d="M289 836l-127 18l12 53q16 0 44 -1t58.5 -2t57.5 -1h90q27 0 54.5 1t54 2t45.5 1l-13 -53l-139 -18l-205 -766l129 -21l-14 -51q-16 2 -43 3t-55 1h-203q-29 0 -56.5 -1t-46.5 -3l13 51l139 21z" />
<glyph horiz-adv-x="952" d="M381 0h-401q-31 0 -48 -2l13 51l139 21l205 766l-127 18l12 53q16 0 47 -1t62 -1h325q47 0 95.5 -8t86 -27.5t61 -54.5t23.5 -88t-21.5 -96t-56 -74t-80.5 -48t-95 -24v-2q72 -14 122 -62t50 -134q0 -49 -20.5 -98.5t-55.5 -84.5q-59 -63 -149.5 -83.5t-186.5 -20.5z M647 287q0 72 -45 110q-35 33 -86 42.5t-110 9.5h-82l-107 -390q8 0 22.5 -3t30 -6t29.5 -5t20 -2h56q76 0 122 16.5t76 44.5q74 70 74 183zM733 739q0 61 -37 92q-35 33 -118 33h-39l-107 -16l-100 -359h90q92 0 147.5 19.5t92.5 54.5q71 76 71 176z" />
<glyph horiz-adv-x="935" d="M860 657h-39q-2 111 -61.5 166.5t-151.5 55.5q-98 0 -172 -53.5t-123 -135.5t-73.5 -179t-24.5 -185q0 -141 54.5 -222t164.5 -81q111 0 189.5 65.5t124.5 151.5l38 -4l-84 -242h-43l5 45q-8 -4 -29 -15.5t-51.5 -21.5t-71.5 -18.5t-92 -8.5q-164 0 -261.5 95.5 t-97.5 285.5q0 98 37 199.5t105.5 183.5t170 134.5t230.5 52.5q90 0 145.5 -17.5t90.5 -36.5l22 37h43z" />
<glyph horiz-adv-x="520" d="M283 328q-47 -180 -103.5 -308.5t-152.5 -222.5q-53 -53 -116 -80.5t-140 -27.5q-70 0 -111 31.5t-41 84.5q0 41 24.5 59.5t47.5 18.5q14 0 22 -3t13 -7l81 -139q59 -2 102.5 35.5t78.5 99.5q45 80 75.5 183.5t57.5 199.5l160 584l-156 18l12 53q16 0 47 -1t63 -2t62 -1 h94q29 0 60 1t59.5 2t46.5 1l-12 -53l-139 -18z" />
<glyph horiz-adv-x="1007" d="M289 836l-127 18l12 53q16 0 44 -1t58.5 -2t57.5 -1h90q27 0 54.5 1t54 2t45.5 1l-13 -53l-139 -18l-94 -349h84l422 351l-123 18l10 51q35 -4 92 -4h162q35 0 70 4l-13 -51l-114 -18l-404 -328l258 -440l98 -19l-12 -53q-35 2 -78 3t-77 1h-50q-31 0 -62.5 -1t-61 -2 t-48.5 -1l13 53l123 19l-213 370h-89l-98 -370l129 -21l-14 -51q-16 2 -43 3t-55 1h-203q-29 0 -56.5 -1t-46.5 -3l13 51l139 21z" />
<glyph horiz-adv-x="921" d="M289 836l-127 18l12 53q16 0 44 -1t58.5 -2t57.5 -1h90q27 0 54.5 1t54 2t45.5 1l-13 -53l-139 -18l-205 -766l162 -27h88q27 0 46.5 3t41 15.5t49 38t70.5 68.5l27 27q18 18 34 36l41 45h41l-114 -276h-727q-29 0 -48 -2l13 51l139 21z" />
<glyph horiz-adv-x="1251" d="M1206 872l-112 -26l-109 -778l111 -19l-13 -51q-16 0 -39.5 1t-49 2t-50.5 1h-41q-37 0 -87 -1t-85 -3l12 51l109 19l57 430q10 84 23.5 154.5t19.5 101.5h-2q-18 -33 -35 -66q-14 -29 -30.5 -60.5t-28.5 -54.5l-332 -579h-41l-65 450l-29 211h-2l-33 -61 q-14 -27 -29.5 -56.5t-27.5 -52.5l-225 -415l204 -21l-14 -51q-16 0 -46 1t-62.5 2t-63.5 1h-47q-37 0 -77 -1t-75 -3l15 51l106 19l363 657l-19 117l-141 32l18 50l345 -35l-13 -45l-69 -10l67 -463q4 -29 8 -59.5t9 -59.5q4 -33 8 -64h2q16 31 35 64q16 29 31.5 59.5 t29.5 55.5l262 462l-78 9l13 45l331 37z" />
<glyph horiz-adv-x="1058" d="M1085 854l-120 -20l-232 -859h-33l-309 557q-6 10 -17.5 31t-21.5 41q-12 23 -26 49h-4q-4 -14 -9 -30q-4 -14 -8 -31l-8 -33l-129 -491l184 -19l-14 -51q-16 0 -43 1t-56.5 2t-56.5 1h-45q-35 0 -79 -1t-78 -3l14 51l123 19l172 647l-78 127l-98 14l14 49h211l364 -661 q8 -16 15.5 -27.5t11.5 -21.5q6 -10 8 -19h2l15 57q6 25 13 50.5t13 48.5l133 502l-161 20l14 53q16 0 39.5 -1t50.5 -2t51 -1h41q37 0 77 1t75 3z" />
<glyph horiz-adv-x="880" d="M289 836l-127 18l12 53q16 0 44 -1t58.5 -2t57.5 -1h174q55 0 103 -5t91 -19q66 -20 106 -66.5t40 -128.5q0 -70 -27.5 -131t-77 -107.5t-115 -74t-139.5 -27.5q-37 0 -76.5 8t-64.5 31l27 27q14 -10 35.5 -14.5t44.5 -4.5q57 0 104 29t81 74t51.5 99t17.5 105 q0 80 -45.5 120t-108.5 40h-25l-104 -20l-205 -768l162 -21l-14 -51q-16 2 -48 3t-67 1h-219q-29 0 -56.5 -1t-46.5 -3l13 51l139 21z" />
<glyph horiz-adv-x="1038" d="M940 561q0 -98 -31.5 -194.5t-91.5 -173.5q-33 -47 -78 -86t-98 -74q-63 -43 -138 -84t-159 -84l4 -6q23 8 69 22.5t103 14.5q90 0 195.5 -34t224.5 -73q98 -31 203.5 -54.5t218.5 -23.5q104 0 162.5 30t87.5 52l22 -29q-16 -16 -42.5 -39.5t-67.5 -45t-100.5 -36 t-143.5 -14.5q-123 0 -241.5 24.5t-221.5 57.5q-123 39 -227.5 74t-204.5 35q-74 0 -124 -16.5t-60 -24.5l-13 -111q-6 -4 -16 -9t-29 -5q-23 0 -39 19.5t-16 41.5q0 29 20.5 49.5t63.5 47.5l178 94q23 10 51.5 25.5t57.5 29.5q33 16 65 31l-4 4q-27 -8 -47 -12t-59 -4 q-90 0 -157 27.5t-111 77.5t-65.5 118.5t-21.5 150.5q0 96 37 197.5t104.5 184.5t165 136.5t218.5 53.5q90 0 156.5 -28t111.5 -77t66.5 -115.5t21.5 -144.5zM791 588q0 51 -10.5 104t-36 95t-66.5 69t-103 27q-86 0 -153.5 -54.5t-114.5 -137.5t-72.5 -179t-25.5 -182 q0 -55 11 -111.5t36 -100.5t65.5 -72t100.5 -28q86 0 154.5 55.5t115.5 139.5t73 184.5t26 190.5z" />
<glyph horiz-adv-x="954" d="M289 836l-127 18l12 53q16 0 44 -1t58.5 -2t57.5 -1h45q35 0 88 1t90 1q41 0 92 -6t95 -25.5t74 -56.5t30 -96q0 -66 -30 -116t-79 -86t-111.5 -53t-129.5 -17v-3q57 -18 91 -69t62 -117l54 -121q14 -35 24 -52t22.5 -25.5t31 -10.5t48.5 -6l-12 -47q-29 2 -43 2h-59 q-8 0 -40 -1t-50 -1q-23 35 -39.5 83t-46.5 122l-17 39q-35 84 -88 134t-114 64l-101 -370l129 -21l-14 -51q-10 0 -31.5 1t-49.5 1t-58.5 1t-59.5 1h-102q-29 0 -56.5 -1t-46.5 -3l13 51l139 21zM426 838l-98 -369q12 -2 41.5 -3t40.5 -1q80 0 136 22.5t93 60.5t54.5 86 t17.5 99q0 66 -47 98q-43 31 -115 31h-25z" />
<glyph horiz-adv-x="792" d="M705 655h-41q0 70 -16.5 114t-44.5 69.5t-61.5 35t-66.5 9.5q-74 0 -124 -38t-50 -112q0 -70 41 -117t98 -100l52 -45q49 -47 91 -101.5t42 -127.5q0 -123 -94.5 -195t-247.5 -72q-51 0 -93.5 10.5t-73 22.5t-50 24.5t-27.5 18.5l-27 -43h-41l54 264h36q2 -45 14.5 -90 t38 -80.5t68.5 -58.5t107 -23q92 0 150.5 43t58.5 134q0 35 -11.5 61.5t-31 51t-45 47t-54.5 51.5l-37 34q-29 27 -55 53.5t-46.5 55.5t-33 61.5t-12.5 73.5q0 66 27.5 111t70.5 73.5t97.5 42t107.5 13.5q80 0 138.5 -21.5t82.5 -40.5l17 33h39z" />
<glyph horiz-adv-x="1015" d="M672 858l-215 -788l157 -21l-14 -51q-16 2 -48 3t-67 1h-225q-33 0 -63.5 -1t-49.5 -3l13 51l159 21l213 788h-217q-18 0 -26 -4t-25 -27l-137 -184h-55l131 328h45l37 -56q4 -10 13 -11t28 -1h587q18 0 27.5 1t24.5 11l65 56h45l-86 -328h-49l-12 184q-2 23 -8.5 27 t-22.5 4h-225z" />
<glyph horiz-adv-x="1103" d="M289 836l-127 18l12 53q16 0 44 -1t58.5 -2t57.5 -1h92q31 0 62.5 1t60.5 1h47q80 0 154.5 -16.5t132 -55t92.5 -101t35 -154.5q0 -104 -39 -211t-113 -185q-96 -102 -235.5 -142t-341.5 -40h-301q-29 0 -48 -2l13 51l139 21zM858 592q0 137 -73.5 203.5t-211.5 66.5h-14 l-131 -22l-209 -777l119 -20q281 0 410 186q53 78 81.5 177.5t28.5 185.5z" />
<glyph horiz-adv-x="962" d="M133 0q-49 0 -107.5 1t-93.5 -3l13 51l139 21l205 766l-127 18l12 53q16 0 45 -1t58.5 -2t58.5 -1h561l-20 -229h-35l-43 110q-20 49 -37 66q-6 6 -13.5 7t-15.5 1h-301l-100 -373h233q12 0 19.5 3.5t15.5 15.5l82 119h33l-90 -330h-33l-14 133q-2 12 -7.5 14t-17.5 2 h-234l-98 -372l152 -27h116q27 0 46.5 3t41 14.5t49 36t72.5 67.5q8 10 22.5 23.5t29.5 29.5q16 16 32 37h41l-110 -254h-580z" />
<glyph horiz-adv-x="876" d="M289 836l-127 18l12 53q16 0 45 -1t58.5 -2t58.5 -1h553l-21 -229h-34l-43 110q-20 49 -37 66q-6 6 -13.5 7t-15.5 1h-293l-100 -375h246q12 0 19 3t15 16l82 121h33l-94 -342h-33l-10 143q-2 12 -7 14t-18 2h-246l-98 -370l191 -21l-15 -51q-16 2 -53 3t-78 1h-231 q-29 0 -56.5 -1t-46.5 -3l13 51l139 21z" />
<glyph horiz-adv-x="1036" d="M942 379l-119 -21l-75 -276l81 16l11 -32q-8 -4 -40 -19.5t-83 -31t-120 -28t-148 -12.5q-184 0 -286 93.5t-102 285.5q0 119 47.5 231.5t131.5 192.5q70 68 157.5 108t194.5 40q94 0 150.5 -17.5t93.5 -36.5l20 39h39l-43 -241h-39q-2 37 -13.5 74.5t-37 68.5 t-65.5 49.5t-99 18.5q-96 0 -169 -53.5t-121 -134.5t-72.5 -176t-24.5 -177q0 -147 55.5 -233.5t188.5 -86.5q23 0 33 1.5t20 3.5l98 32l84 301l-145 21l12 47q16 0 46 -1t62.5 -2t61.5 -1h47q35 0 90.5 1t89.5 3z" />
<glyph horiz-adv-x="1030" d="M252 836l-127 18l12 53q16 0 45 -1t58.5 -2t58.5 -1h90q27 0 54.5 1t54 2t45.5 1l-13 -53l-139 -18l-123 -465q-10 -37 -16 -71t-6 -69q0 -31 8 -62.5t28.5 -56t56.5 -40t91 -15.5q80 0 139.5 30t102.5 83q35 43 60.5 101.5t47.5 144.5l113 420l-143 18l14 53 q33 -2 84 -3t86 -1t75 1t74 3l-10 -53l-127 -18l-121 -453q-25 -96 -61.5 -166t-83.5 -119q-117 -117 -311 -116q-135 0 -200 65.5t-65 169.5q0 41 7.5 79t21.5 91z" />
<glyph horiz-adv-x="927" d="M829 840l-139 18l15 51q20 0 45.5 -1t52 -2t51.5 -1h43q41 0 65.5 1t59.5 3l-14 -51l-113 -18l-584 -881h-22l-80 881l-117 18l14 51q33 -2 88.5 -3t94.5 -1h45q29 0 57.5 1t54 2t43.5 1l-10 -51l-133 -18l41 -473q2 -29 4 -61t4 -58l4 -62h4q12 16 25 39q10 16 24.5 40 t30.5 48z" />
<glyph horiz-adv-x="1251" d="M356 903h500q29 0 58.5 1t57 2t46.5 1l-14 -47l-82 -18l-232 -346l12 -131q2 -29 5.5 -61t5.5 -58l4 -62h4q12 16 27 39q12 18 27.5 42t31.5 48l346 529l-111 18l15 47q41 -2 85 -3t79 -1q41 0 65.5 1t59.5 3l-15 -51l-112 -14l-584 -883h-23l-34 410l-267 -410h-22 l-80 883l-117 14l14 51q33 -2 96.5 -3t153.5 -1zM399 184q12 16 27 39q12 18 27.5 42t31.5 48l82 127l-35 402l-88 12l-102 -12l41 -475q2 -29 4 -62t4 -59q2 -33 4 -62h4zM758 854l-94 -12l20 -275l176 275z" />
<glyph horiz-adv-x="974" d="M422 381l-309 -311l135 -17l-17 -55q-18 2 -41.5 3t-48.5 1h-166q-41 0 -79 -4l18 55l125 17l362 358l-163 408l-123 18l16 53q16 -2 40 -3t48 -1h191q29 0 55.5 1t44.5 3l-12 -53l-117 -18l129 -318l317 318l-127 16l17 55q35 -4 84 -4h164q41 0 79 4l-18 -55l-127 -16 l-371 -365l164 -401l127 -21l-12 -51q-16 0 -41 1t-50.5 2t-49.5 1h-91q-29 0 -59.5 -1t-60 -2t-47.5 -1l12 51l129 21z" />
<glyph horiz-adv-x="878" d="M467 391l-86 -321l151 -21l-14 -51q-16 2 -47 3t-63 1h-220q-33 0 -61.5 -1t-46.5 -3l12 51l152 21l88 323l-123 443l-109 18l15 53q16 -2 39.5 -3t48.5 -1h190q29 0 55.5 1t45.5 3l-13 -53l-133 -18l109 -387l325 387l-120 18l14 53q33 -4 84 -4h143q25 0 60 4l-13 -53 l-102 -18z" />
<glyph horiz-adv-x="962" d="M965 870l-672 -661q-43 -41 -90 -84t-84 -74v-4h352q29 0 49.5 2t41 13.5t48 36t72.5 67.5l111 110h36l-116 -276h-779v33l695 684q29 29 72.5 68.5t72.5 70.5v4q-23 -2 -49 -2h-240q-29 0 -48 -2t-40.5 -12t-49.5 -35t-71 -68q-10 -10 -27.5 -28.5t-35.5 -36.5l-45 -45 h-35l115 276h717v-37z" />
<glyph horiz-adv-x="1372" d="M354 49l140 21l100 372h-234l-325 -372l151 -21l-16 -51q-16 0 -43 1t-54.5 2t-54.5 1h-43q-35 0 -60.5 -1t-61.5 -3l16 51l94 21l672 772l-119 12l12 49h779l-21 -229h-35l-43 110q-20 49 -37 66q-8 8 -28 8h-301l-101 -373h234q12 0 19 3.5t16 15.5l82 119h32l-90 -330 h-33l-14 133q-2 12 -7 14t-17 2h-234l-98 -372l151 -27h117q27 0 47.5 2t42 13.5t49 36t70.5 69.5l84 90h41l-111 -254h-780zM705 858q-29 -37 -54 -70q-23 -29 -47 -58.5t-41 -47.5l-170 -197h211l103 373h-2z" />
<glyph horiz-adv-x="811" d="M709 1305q-12 -70 -35 -115t-51.5 -72.5t-59.5 -39t-59 -11.5q-49 0 -76 21.5t-49 44.5l-33 32q-23 23 -40 38.5t-42 15.5q-49 0 -79.5 -46.5t-43.5 -105.5h-39q12 72 35 119t51.5 74.5t59.5 39t59 11.5q45 0 69.5 -17.5t45.5 -38.5l41 -43q20 -20 37.5 -35.5t46.5 -15.5 q49 0 80.5 46t42.5 98h39z" />
<glyph horiz-adv-x="540" d="M383 1067l-233 186q-10 10 -29 30t-19 48q0 23 16.5 37t39.5 14q29 0 45 -13t33 -34l22 -32l164 -236h-39z" />
<glyph horiz-adv-x="540" d="M438 1331q0 -29 -18.5 -48t-28.5 -30l-233 -186h-39l162 236l24 32q16 20 32.5 33.5t45.5 13.5q23 0 39 -14t16 -37z" />
<glyph horiz-adv-x="477" d="M338 18l-94 -120q23 -4 46 -11.5t41.5 -22t31 -36t12.5 -49.5q0 -55 -30 -92t-76 -60.5t-99 -33t-100 -9.5h-9l5 35h30q25 0 54.5 4t55 16.5t42 33t16.5 53.5q0 20 -11 33.5t-26.5 21.5t-35 13t-33.5 7l-17 29l160 188h37z" />
<glyph horiz-adv-x="737" d="M635 1212l-23 -90h-510l23 90h510z" />
<glyph horiz-adv-x="1705" d="M815 1067h-110l-9 209l-176 -209h-61l-2 4l295 322h41l28 -320z" />
<glyph horiz-adv-x="677" d="M575 1157q0 -35 -24.5 -59.5t-58.5 -24.5q-35 0 -59.5 24.5t-24.5 59.5t24.5 59.5t59.5 24.5t59 -24.5t24 -59.5zM270 1157q0 -35 -24.5 -59.5t-59.5 -24.5t-59.5 24.5t-24.5 59.5t25 59.5t59 24.5q35 0 59.5 -24.5t24.5 -59.5z" />
<glyph horiz-adv-x="1402" d="M965 856q-76 0 -134.5 2t-74.5 2v-4q76 -43 127 -122t51 -189q0 -16 -1 -30.5t-3 -29.5h141q12 0 19.5 3.5t15.5 15.5l82 119h33l-91 -330h-32l-15 133q-2 12 -7 14t-17 2h-135q-25 -137 -113 -237.5t-205 -157.5v-2h72q31 0 64.5 1t58.5 1h129q27 0 47 1t41.5 12.5 t49.5 35t71 68.5l84 90h41l-111 -254h-727q-100 0 -170 28.5t-113 78t-61.5 115t-18.5 138.5q0 102 37 199.5t104.5 174.5t164 123t217.5 46h751l-20 -229h-35l-43 108q-20 49 -37 66q-8 8 -28 8h-209zM795 573q0 49 -10.5 100.5t-35 93.5t-64.5 67.5t-99 25.5 q-84 0 -152.5 -50t-118 -128t-76 -172t-26.5 -180q0 -49 11.5 -99.5t37 -92.5t65.5 -68.5t99 -26.5q84 0 152.5 50t116.5 127t74 171t26 182z" />
<glyph d="M862 657h-39q-2 111 -61.5 166.5t-151.5 55.5q-98 0 -171.5 -53.5t-123 -135.5t-74 -179t-24.5 -185q0 -141 54.5 -222t164.5 -81q111 0 190 65.5t124 151.5l38 -4l-83 -242h-43l4 45q-8 -4 -29 -15.5t-51.5 -21.5t-71.5 -18.5t-92 -8.5h-6l-60 -77q23 -4 46.5 -11.5 t42 -22t30.5 -36t12 -49.5q0 -55 -29.5 -92t-75.5 -60.5t-99.5 -33t-100.5 -9.5h-8l4 35h31q25 0 54.5 4t55 16.5t42 33t16.5 53.5q0 20 -11.5 33.5t-26.5 21.5t-34.5 13t-34.5 7l-16 29l125 147q-145 12 -230.5 106.5t-85.5 272.5q0 98 37 199.5t105.5 183.5t170 134.5 t230.5 52.5q90 0 145.5 -17.5t90.5 -36.5l22 37h43z" />
<glyph horiz-adv-x="878" d="M467 391l-86 -321l151 -21l-14 -51q-16 2 -47 3t-63 1h-220q-33 0 -61.5 -1t-46.5 -3l12 51l152 21l88 323l-123 443l-109 18l15 53q16 -2 39.5 -3t48.5 -1h190q29 0 55.5 1t45.5 3l-13 -53l-133 -18l109 -387l325 387l-120 18l14 53q33 -4 84 -4h143q25 0 60 4l-13 -53 l-102 -18zM817 1331q0 -29 -18.5 -48t-28.5 -30l-233 -186h-39l161 236l25 32q16 20 32.5 33.5t45.5 13.5q23 0 39 -14t16 -37z" />
<glyph horiz-adv-x="929" d="M786 -4q-33 2 -88 3t-94 1h-47q-27 0 -55.5 -1t-55 -2t-45.5 -1l11 51l137 19l-17 215h-329l-140 -215l140 -19l-15 -51q-20 0 -45.5 1t-52.5 2t-51 1h-43q-41 0 -65.5 -1t-59.5 -3l14 51l117 19l483 741l-4 55q31 4 60.5 24.5t46.5 43.5h22l74 -864l117 -19zM510 549 q-4 29 -5 60.5t-5 60.5q-4 31 -6 61h-5q-10 -18 -22 -39q-10 -16 -23.5 -38.5t-29.5 -47.5l-183 -278h297zM809 1331q0 -29 -18.5 -48t-28.5 -30l-234 -186h-39l162 236l25 32q16 20 32.5 33.5t45.5 13.5q23 0 39 -14t16 -37z" />
<glyph horiz-adv-x="929" d="M786 -4q-33 2 -88 3t-94 1h-47q-27 0 -55.5 -1t-55 -2t-45.5 -1l11 51l137 19l-17 215h-329l-140 -215l140 -19l-15 -51q-20 0 -45.5 1t-52.5 2t-51 1h-43q-41 0 -65.5 -1t-59.5 -3l14 51l117 19l483 741l-4 55q31 4 60.5 24.5t46.5 43.5h22l74 -864l117 -19zM510 549 q-4 29 -5 60.5t-5 60.5q-4 31 -6 61h-5q-10 -18 -22 -39q-10 -16 -23.5 -38.5t-29.5 -47.5l-183 -278h297zM662 1067l-234 186q-10 10 -28.5 30t-18.5 48q0 23 16.5 37t38.5 14q29 0 45.5 -13t32.5 -34l23 -32l163 -236h-38z" />
<glyph horiz-adv-x="929" d="M786 -4q-33 2 -88 3t-94 1h-47q-27 0 -55.5 -1t-55 -2t-45.5 -1l11 51l137 19l-17 215h-329l-140 -215l140 -19l-15 -51q-20 0 -45.5 1t-52.5 2t-51 1h-43q-41 0 -65.5 -1t-59.5 -3l14 51l117 19l483 741l-4 55q31 4 60.5 24.5t46.5 43.5h22l74 -864l117 -19zM510 549 q-4 29 -5 60.5t-5 60.5q-4 31 -6 61h-5q-10 -18 -22 -39q-10 -16 -23.5 -38.5t-29.5 -47.5l-183 -278h297zM762 1067h-111l-8 209l-176 -209h-61l-3 4l295 322h41l29 -320z" />
<glyph horiz-adv-x="929" d="M786 -4q-33 2 -88 3t-94 1h-47q-27 0 -55.5 -1t-55 -2t-45.5 -1l11 51l137 19l-17 215h-329l-140 -215l140 -19l-15 -51q-20 0 -45.5 1t-52.5 2t-51 1h-43q-41 0 -65.5 -1t-59.5 -3l14 51l117 19l483 741l-4 55q31 4 60.5 24.5t46.5 43.5h22l74 -864l117 -19zM510 549 q-4 29 -5 60.5t-5 60.5q-4 31 -6 61h-5q-10 -18 -22 -39q-10 -16 -23.5 -38.5t-29.5 -47.5l-183 -278h297zM842 1157q0 -35 -24.5 -59.5t-59.5 -24.5t-59.5 24.5t-24.5 59.5t24.5 59.5t59.5 24.5t59.5 -24.5t24.5 -59.5zM537 1157q0 -35 -25 -59.5t-59 -24.5 q-35 0 -59.5 24.5t-24.5 59.5t24.5 59.5t59.5 24.5t59.5 -24.5t24.5 -59.5z" />
<glyph horiz-adv-x="929" d="M786 -4q-33 2 -88 3t-94 1h-47q-27 0 -55.5 -1t-55 -2t-45.5 -1l11 51l137 19l-17 215h-329l-140 -215l140 -19l-15 -51q-20 0 -45.5 1t-52.5 2t-51 1h-43q-41 0 -65.5 -1t-59.5 -3l14 51l117 19l483 741l-4 55q31 4 60.5 24.5t46.5 43.5h22l74 -864l117 -19zM510 549 q-4 29 -5 60.5t-5 60.5q-4 31 -6 61h-5q-10 -18 -22 -39q-10 -16 -23.5 -38.5t-29.5 -47.5l-183 -278h297zM920 1305q-12 -70 -35 -115t-51.5 -72.5t-59.5 -39t-59 -11.5q-49 0 -76 21.5t-49 44.5l-33 32q-23 23 -40 38.5t-42 15.5q-49 0 -79.5 -46.5t-43.5 -105.5h-39 q12 72 35 119t51.5 74.5t59 39t59.5 11.5q45 0 69.5 -17.5t45.5 -38.5l41 -43q20 -20 37.5 -35.5t46.5 -15.5q49 0 80.5 46t42.5 98h39z" />
<glyph horiz-adv-x="929" d="M786 -4q-33 2 -88 3t-94 1h-47q-27 0 -55.5 -1t-55 -2t-45.5 -1l11 51l137 19l-17 215h-329l-140 -215l140 -19l-15 -51q-20 0 -45.5 1t-52.5 2t-51 1h-43q-41 0 -65.5 -1t-59.5 -3l14 51l117 19l483 741l-4 55q31 4 60.5 24.5t46.5 43.5h22l74 -864l117 -19zM510 549 q-4 29 -5 60.5t-5 60.5q-4 31 -6 61h-5q-10 -18 -22 -39q-10 -16 -23.5 -38.5t-29.5 -47.5l-183 -278h297zM641 1395q72 0 125 -49.5t53 -126.5q0 -78 -53 -129.5t-127 -51.5t-127 51.5t-53 127.5q0 78 53 128t129 50zM639 1339q-43 0 -80 -31.5t-37 -90.5q0 -57 35 -89 t82 -32t82 31.5t35 89.5q0 59 -35 90.5t-82 31.5z" />
<glyph horiz-adv-x="962" d="M133 0q-49 0 -107.5 1t-93.5 -3l13 51l139 21l205 766l-127 18l12 53q16 0 45 -1t58.5 -2t58.5 -1h561l-20 -229h-35l-43 110q-20 49 -37 66q-6 6 -13.5 7t-15.5 1h-301l-100 -373h233q12 0 19.5 3.5t15.5 15.5l82 119h33l-90 -330h-33l-14 133q-2 12 -7.5 14t-17.5 2 h-234l-98 -372l152 -27h116q27 0 46.5 3t41 14.5t49 36t72.5 67.5q8 10 22.5 23.5t29.5 29.5q16 16 32 37h41l-110 -254h-580zM815 1331q0 -29 -18.5 -48t-28.5 -30l-233 -186h-39l161 236l25 32q16 20 32.5 33.5t45.5 13.5q23 0 39 -14t16 -37z" />
<glyph horiz-adv-x="962" d="M133 0q-49 0 -107.5 1t-93.5 -3l13 51l139 21l205 766l-127 18l12 53q16 0 45 -1t58.5 -2t58.5 -1h561l-20 -229h-35l-43 110q-20 49 -37 66q-6 6 -13.5 7t-15.5 1h-301l-100 -373h233q12 0 19.5 3.5t15.5 15.5l82 119h33l-90 -330h-33l-14 133q-2 12 -7.5 14t-17.5 2 h-234l-98 -372l152 -27h116q27 0 46.5 3t41 14.5t49 36t72.5 67.5q8 10 22.5 23.5t29.5 29.5q16 16 32 37h41l-110 -254h-580zM664 1067l-234 186q-10 10 -28.5 30t-18.5 48q0 23 16.5 37t38.5 14q29 0 45.5 -13t32.5 -34l23 -32l163 -236h-38z" />
<glyph horiz-adv-x="962" d="M133 0q-49 0 -107.5 1t-93.5 -3l13 51l139 21l205 766l-127 18l12 53q16 0 45 -1t58.5 -2t58.5 -1h561l-20 -229h-35l-43 110q-20 49 -37 66q-6 6 -13.5 7t-15.5 1h-301l-100 -373h233q12 0 19.5 3.5t15.5 15.5l82 119h33l-90 -330h-33l-14 133q-2 12 -7.5 14t-17.5 2 h-234l-98 -372l152 -27h116q27 0 46.5 3t41 14.5t49 36t72.5 67.5q8 10 22.5 23.5t29.5 29.5q16 16 32 37h41l-110 -254h-580zM786 1067h-110l-8 209l-176 -209h-62l-2 4l295 322h41l29 -320z" />
<glyph horiz-adv-x="962" d="M133 0q-49 0 -107.5 1t-93.5 -3l13 51l139 21l205 766l-127 18l12 53q16 0 45 -1t58.5 -2t58.5 -1h561l-20 -229h-35l-43 110q-20 49 -37 66q-6 6 -13.5 7t-15.5 1h-301l-100 -373h233q12 0 19.5 3.5t15.5 15.5l82 119h33l-90 -330h-33l-14 133q-2 12 -7.5 14t-17.5 2 h-234l-98 -372l152 -27h116q27 0 46.5 3t41 14.5t49 36t72.5 67.5q8 10 22.5 23.5t29.5 29.5q16 16 32 37h41l-110 -254h-580zM862 1157q0 -35 -24.5 -59.5t-59.5 -24.5t-59.5 24.5t-24.5 59.5t24.5 59.5t59.5 24.5t59.5 -24.5t24.5 -59.5zM557 1157q0 -35 -24.5 -59.5 t-59.5 -24.5t-59.5 24.5t-24.5 59.5t24.5 59.5t59.5 24.5t59.5 -24.5t24.5 -59.5z" />
<glyph horiz-adv-x="1058" d="M1085 854l-120 -20l-232 -859h-33l-309 557q-6 10 -17.5 31t-21.5 41q-12 23 -26 49h-4q-4 -14 -9 -30q-4 -14 -8 -31l-8 -33l-129 -491l184 -19l-14 -51q-16 0 -43 1t-56.5 2t-56.5 1h-45q-35 0 -79 -1t-78 -3l14 51l123 19l172 647l-78 127l-98 14l14 49h211l364 -661 q8 -16 15.5 -27.5t11.5 -21.5q6 -10 8 -19h2l15 57q6 25 13 50.5t13 48.5l133 502l-161 20l14 53q16 0 39.5 -1t50.5 -2t51 -1h41q37 0 77 1t75 3zM979 1305q-12 -70 -34.5 -115t-51.5 -72.5t-59.5 -39t-59.5 -11.5q-49 0 -75.5 21.5t-49.5 44.5l-33 32q-23 23 -40 38.5 t-41 15.5q-49 0 -80 -46.5t-43 -105.5h-39q12 72 34.5 119t51 74.5t59.5 39t60 11.5q45 0 69.5 -17.5t44.5 -38.5l41 -43q20 -20 37.5 -35.5t46.5 -15.5q49 0 81 46t42 98h39z" />
<glyph horiz-adv-x="1036" d="M940 561q0 -109 -38 -213t-107.5 -186t-167 -133.5t-213.5 -51.5q-90 0 -157 28t-111 78t-65.5 119.5t-21.5 151.5q0 96 37 197.5t104.5 184.5t165 136.5t218.5 53.5q90 0 156.5 -28t111.5 -77t66.5 -115.5t21.5 -144.5zM791 588q0 51 -10.5 104t-36 95t-66.5 69t-103 27 q-86 0 -153.5 -54.5t-114.5 -137.5t-72.5 -179t-25.5 -182q0 -55 11 -110.5t36 -99.5t65.5 -72t100.5 -28q86 0 154.5 55.5t115.5 139.5t73 183.5t26 189.5zM819 1331q0 -29 -18.5 -48t-28.5 -30l-233 -186h-39l162 236l24 32q16 20 32.5 33.5t45.5 13.5q23 0 39 -14t16 -37 z" />
<glyph horiz-adv-x="1036" d="M940 561q0 -109 -38 -213t-107.5 -186t-167 -133.5t-213.5 -51.5q-90 0 -157 28t-111 78t-65.5 119.5t-21.5 151.5q0 96 37 197.5t104.5 184.5t165 136.5t218.5 53.5q90 0 156.5 -28t111.5 -77t66.5 -115.5t21.5 -144.5zM791 588q0 51 -10.5 104t-36 95t-66.5 69t-103 27 q-86 0 -153.5 -54.5t-114.5 -137.5t-72.5 -179t-25.5 -182q0 -55 11 -110.5t36 -99.5t65.5 -72t100.5 -28q86 0 154.5 55.5t115.5 139.5t73 183.5t26 189.5zM682 1067l-233 186q-10 10 -29 30t-19 48q0 23 16.5 37t39.5 14q29 0 45 -13t33 -34l22 -32l164 -236h-39z" />
<glyph horiz-adv-x="1036" d="M940 561q0 -109 -38 -213t-107.5 -186t-167 -133.5t-213.5 -51.5q-90 0 -157 28t-111 78t-65.5 119.5t-21.5 151.5q0 96 37 197.5t104.5 184.5t165 136.5t218.5 53.5q90 0 156.5 -28t111.5 -77t66.5 -115.5t21.5 -144.5zM791 588q0 51 -10.5 104t-36 95t-66.5 69t-103 27 q-86 0 -153.5 -54.5t-114.5 -137.5t-72.5 -179t-25.5 -182q0 -55 11 -110.5t36 -99.5t65.5 -72t100.5 -28q86 0 154.5 55.5t115.5 139.5t73 183.5t26 189.5zM797 1067h-111l-8 209l-176 -209h-62l-2 4l295 322h41l29 -320z" />
<glyph horiz-adv-x="1036" d="M940 561q0 -109 -38 -213t-107.5 -186t-167 -133.5t-213.5 -51.5q-90 0 -157 28t-111 78t-65.5 119.5t-21.5 151.5q0 96 37 197.5t104.5 184.5t165 136.5t218.5 53.5q90 0 156.5 -28t111.5 -77t66.5 -115.5t21.5 -144.5zM791 588q0 51 -10.5 104t-36 95t-66.5 69t-103 27 q-86 0 -153.5 -54.5t-114.5 -137.5t-72.5 -179t-25.5 -182q0 -55 11 -110.5t36 -99.5t65.5 -72t100.5 -28q86 0 154.5 55.5t115.5 139.5t73 183.5t26 189.5zM883 1157q0 -35 -24.5 -59.5t-59.5 -24.5t-59.5 24.5t-24.5 59.5t24.5 59.5t59.5 24.5t59.5 -24.5t24.5 -59.5z M578 1157q0 -35 -25 -59.5t-59 -24.5q-35 0 -59.5 24.5t-24.5 59.5t24.5 59.5t59.5 24.5t59.5 -24.5t24.5 -59.5z" />
<glyph horiz-adv-x="1036" d="M940 561q0 -109 -38 -213t-107.5 -186t-167 -133.5t-213.5 -51.5q-90 0 -157 28t-111 78t-65.5 119.5t-21.5 151.5q0 96 37 197.5t104.5 184.5t165 136.5t218.5 53.5q90 0 156.5 -28t111.5 -77t66.5 -115.5t21.5 -144.5zM791 588q0 51 -10.5 104t-36 95t-66.5 69t-103 27 q-86 0 -153.5 -54.5t-114.5 -137.5t-72.5 -179t-25.5 -182q0 -55 11 -110.5t36 -99.5t65.5 -72t100.5 -28q86 0 154.5 55.5t115.5 139.5t73 183.5t26 189.5zM936 1305q-12 -70 -34.5 -115t-51.5 -72.5t-59.5 -39t-59.5 -11.5q-49 0 -75.5 21.5t-49.5 44.5l-33 32 q-23 23 -40 38.5t-41 15.5q-49 0 -80 -46.5t-43 -105.5h-39q12 72 34.5 119t51 74.5t59.5 39t60 11.5q45 0 69.5 -17.5t44.5 -38.5l41 -43q20 -20 37.5 -35.5t46.5 -15.5q49 0 81 46t42 98h39z" />
<glyph horiz-adv-x="1030" d="M252 836l-127 18l12 53q16 0 45 -1t58.5 -2t58.5 -1h90q27 0 54.5 1t54 2t45.5 1l-13 -53l-139 -18l-123 -465q-10 -37 -16 -71t-6 -69q0 -31 8 -62.5t28.5 -56t56.5 -40t91 -15.5q80 0 139.5 30t102.5 83q35 43 60.5 101.5t47.5 144.5l113 420l-143 18l14 53 q33 -2 84 -3t86 -1t75 1t74 3l-10 -53l-127 -18l-121 -453q-25 -96 -61.5 -166t-83.5 -119q-117 -117 -311 -116q-135 0 -200 65.5t-65 169.5q0 41 7.5 79t21.5 91zM862 1331q0 -29 -18.5 -48t-28.5 -30l-233 -186h-39l162 236l24 32q16 20 32.5 33.5t45.5 13.5q23 0 39 -14 t16 -37z" />
<glyph horiz-adv-x="1030" d="M252 836l-127 18l12 53q16 0 45 -1t58.5 -2t58.5 -1h90q27 0 54.5 1t54 2t45.5 1l-13 -53l-139 -18l-123 -465q-10 -37 -16 -71t-6 -69q0 -31 8 -62.5t28.5 -56t56.5 -40t91 -15.5q80 0 139.5 30t102.5 83q35 43 60.5 101.5t47.5 144.5l113 420l-143 18l14 53 q33 -2 84 -3t86 -1t75 1t74 3l-10 -53l-127 -18l-121 -453q-25 -96 -61.5 -166t-83.5 -119q-117 -117 -311 -116q-135 0 -200 65.5t-65 169.5q0 41 7.5 79t21.5 91zM694 1067l-233 186q-10 10 -28.5 30t-18.5 48q0 23 16 37t39 14q29 0 45 -13t33 -34l22 -32l164 -236h-39z " />
</font>
</defs>
</svg>
